<?plantuml 1.2026.2?><svg xmlns="http://www.w3.org/2000/svg" xmlns:xlink="http://www.w3.org/1999/xlink" contentStyleType="text/css" data-diagram-type="DESCRIPTION" height="467px" preserveAspectRatio="none" style="width:1763px;height:467px;background:#FFFFFF;" version="1.1" viewBox="0 0 1763 467" width="1763px" zoomAndPan="magnify"><title>DeckMux &#8212; Package Architecture</title><defs/><g><g class="title" data-source-line="4"><text fill="#333333" font-family="sans-serif" font-size="14" font-weight="bold" lengthAdjust="spacing" textLength="241.0625" x="754.1663" y="23.5352">DeckMux &#8212; Package Architecture</text></g><!--cluster undef-deckmux (standalone)--><g class="cluster" data-qualified-name="undef-deckmux .standalone." data-source-line="16" id="ent0002"><path d="M302.5,346.4383 L513.3496,346.4383 A3.75,3.75 0 0 1 515.8496,348.9383 L522.8496,368.9266 L1588.5,368.9266 A2.5,2.5 0 0 1 1591,371.4266 L1591,457.9183 A2.5,2.5 0 0 1 1588.5,460.4183 L302.5,460.4183 A2.5,2.5 0 0 1 300,457.9183 L300,348.9383 A2.5,2.5 0 0 1 302.5,346.4383" fill="#FFFFFF" style="stroke:#D1D5DB;stroke-width:1.5;"/><line style="stroke:#D1D5DB;stroke-width:1.5;" x1="300" x2="522.8496" y1="368.9266" y2="368.9266"/><text fill="#333333" font-family="sans-serif" font-size="14" font-weight="bold" lengthAdjust="spacing" textLength="209.8496" x="304" y="361.9734">undef-deckmux (standalone)</text></g><!--cluster undef-terminal (integration)--><g class="cluster" data-qualified-name="undef-terminal .integration." data-source-line="24" id="ent0008"><path d="M8.5,43.4883 L215.2686,43.4883 A3.75,3.75 0 0 1 217.7686,45.9883 L224.7686,65.9766 L273.5,65.9766 A2.5,2.5 0 0 1 276,68.4766 L276,457.9183 A2.5,2.5 0 0 1 273.5,460.4183 L8.5,460.4183 A2.5,2.5 0 0 1 6,457.9183 L6,45.9883 A2.5,2.5 0 0 1 8.5,43.4883" fill="#FFFFFF" style="stroke:#D1D5DB;stroke-width:1.5;"/><line style="stroke:#D1D5DB;stroke-width:1.5;" x1="6" x2="224.7686" y1="65.9766" y2="65.9766"/><text fill="#333333" font-family="sans-serif" font-size="14" font-weight="bold" lengthAdjust="spacing" textLength="205.7686" x="10" y="59.0234">undef-terminal (integration)</text></g><!--cluster undef-terminal-frontend--><g class="cluster" data-qualified-name="undef-terminal-frontend" data-source-line="30" id="ent0012"><path d="M504.5,43.4883 L688.0537,43.4883 A3.75,3.75 0 0 1 690.5537,45.9883 L697.5537,65.9766 L1534.5,65.9766 A2.5,2.5 0 0 1 1537,68.4766 L1537,294.9383 A2.5,2.5 0 0 1 1534.5,297.4383 L504.5,297.4383 A2.5,2.5 0 0 1 502,294.9383 L502,45.9883 A2.5,2.5 0 0 1 504.5,43.4883" fill="#FFFFFF" style="stroke:#D1D5DB;stroke-width:1.5;"/><line style="stroke:#D1D5DB;stroke-width:1.5;" x1="502" x2="697.5537" y1="65.9766" y2="65.9766"/><text fill="#333333" font-family="sans-serif" font-size="14" font-weight="bold" lengthAdjust="spacing" textLength="182.5537" x="506" y="59.0234">undef-terminal-frontend</text></g><!--entity PROTO--><g class="entity" data-qualified-name="undef-deckmux .standalone..PROTO" data-source-line="17" id="ent0003"><rect fill="#F3F4F6" height="62.9766" rx="2.5" ry="2.5" style="stroke:#D1D5DB;stroke-width:0.5;" width="241.6191" x="316.19" y="381.4383"/><rect fill="#F3F4F6" height="10" style="stroke:#D1D5DB;stroke-width:0.5;" width="15" x="537.8091" y="386.4383"/><rect fill="#F3F4F6" height="2" style="stroke:#D1D5DB;stroke-width:0.5;" width="4" x="535.8091" y="388.4383"/><rect fill="#F3F4F6" height="2" style="stroke:#D1D5DB;stroke-width:0.5;" width="4" x="535.8091" y="392.4383"/><text fill="#333333" font-family="sans-serif" font-size="14" lengthAdjust="spacing" textLength="84.3486" x="331.19" y="414.9734">_protocol.py</text><text fill="#333333" font-family="sans-serif" font-size="14" lengthAdjust="spacing" textLength="201.6191" x="331.19" y="431.4617">message types &amp; serialization</text></g><!--entity PRESENCE--><g class="entity" data-qualified-name="undef-deckmux .standalone..PRESENCE" data-source-line="18" id="ent0004"><rect fill="#F3F4F6" height="62.9766" rx="2.5" ry="2.5" style="stroke:#D1D5DB;stroke-width:0.5;" width="244.9824" x="592.51" y="381.4383"/><rect fill="#F3F4F6" height="10" style="stroke:#D1D5DB;stroke-width:0.5;" width="15" x="817.4924" y="386.4383"/><rect fill="#F3F4F6" height="2" style="stroke:#D1D5DB;stroke-width:0.5;" width="4" x="815.4924" y="388.4383"/><rect fill="#F3F4F6" height="2" style="stroke:#D1D5DB;stroke-width:0.5;" width="4" x="815.4924" y="392.4383"/><text fill="#333333" font-family="sans-serif" font-size="14" lengthAdjust="spacing" textLength="88.4912" x="607.51" y="414.9734">_presence.py</text><text fill="#333333" font-family="sans-serif" font-size="14" lengthAdjust="spacing" textLength="204.9824" x="607.51" y="431.4617">PresenceStore + UserPresence</text></g><!--entity NAMES--><g class="entity" data-qualified-name="undef-deckmux .standalone..NAMES" data-source-line="19" id="ent0005"><rect fill="#F3F4F6" height="62.9766" rx="2.5" ry="2.5" style="stroke:#D1D5DB;stroke-width:0.5;" width="207.5352" x="872.23" y="381.4383"/><rect fill="#F3F4F6" height="10" style="stroke:#D1D5DB;stroke-width:0.5;" width="15" x="1059.7652" y="386.4383"/><rect fill="#F3F4F6" height="2" style="stroke:#D1D5DB;stroke-width:0.5;" width="4" x="1057.7652" y="388.4383"/><rect fill="#F3F4F6" height="2" style="stroke:#D1D5DB;stroke-width:0.5;" width="4" x="1057.7652" y="392.4383"/><text fill="#333333" font-family="sans-serif" font-size="14" lengthAdjust="spacing" textLength="71.9824" x="887.23" y="414.9734">_names.py</text><text fill="#333333" font-family="sans-serif" font-size="14" lengthAdjust="spacing" textLength="167.5352" x="887.23" y="431.4617">name &amp; color generation</text></g><!--entity XFER--><g class="entity" data-qualified-name="undef-deckmux .standalone..XFER" data-source-line="20" id="ent0006"><rect fill="#F3F4F6" height="62.9766" rx="2.5" ry="2.5" style="stroke:#D1D5DB;stroke-width:0.5;" width="287.4678" x="1115.27" y="381.4383"/><rect fill="#F3F4F6" height="10" style="stroke:#D1D5DB;stroke-width:0.5;" width="15" x="1382.7378" y="386.4383"/><rect fill="#F3F4F6" height="2" style="stroke:#D1D5DB;stroke-width:0.5;" width="4" x="1380.7378" y="388.4383"/><rect fill="#F3F4F6" height="2" style="stroke:#D1D5DB;stroke-width:0.5;" width="4" x="1380.7378" y="392.4383"/><text fill="#333333" font-family="sans-serif" font-size="14" lengthAdjust="spacing" textLength="80.7529" x="1130.27" y="414.9734">_transfer.py</text><text fill="#333333" font-family="sans-serif" font-size="14" lengthAdjust="spacing" textLength="247.4678" x="1130.27" y="431.4617">TransferManager + keystroke queue</text></g><!--entity EDGE--><g class="entity" data-qualified-name="undef-deckmux .standalone..EDGE" data-source-line="21" id="ent0007"><rect fill="#F3F4F6" height="62.9766" rx="2.5" ry="2.5" style="stroke:#D1D5DB;stroke-width:0.5;" width="137.4121" x="1437.29" y="381.4383"/><rect fill="#F3F4F6" height="10" style="stroke:#D1D5DB;stroke-width:0.5;" width="15" x="1554.7021" y="386.4383"/><rect fill="#F3F4F6" height="2" style="stroke:#D1D5DB;stroke-width:0.5;" width="4" x="1552.7021" y="388.4383"/><rect fill="#F3F4F6" height="2" style="stroke:#D1D5DB;stroke-width:0.5;" width="4" x="1552.7021" y="392.4383"/><text fill="#333333" font-family="sans-serif" font-size="14" lengthAdjust="spacing" textLength="60.6963" x="1452.29" y="414.9734">_edge.py</text><text fill="#333333" font-family="sans-serif" font-size="14" lengthAdjust="spacing" textLength="97.4121" x="1452.29" y="431.4617">viewport math</text></g><!--entity MIX--><g class="entity" data-qualified-name="undef-terminal .integration..MIX" data-source-line="25" id="ent0009"><rect fill="#F3F4F6" height="62.9766" rx="2.5" ry="2.5" style="stroke:#D1D5DB;stroke-width:0.5;" width="208.834" x="51.58" y="218.4683"/><rect fill="#F3F4F6" height="10" style="stroke:#D1D5DB;stroke-width:0.5;" width="15" x="240.414" y="223.4683"/><rect fill="#F3F4F6" height="2" style="stroke:#D1D5DB;stroke-width:0.5;" width="4" x="238.414" y="225.4683"/><rect fill="#F3F4F6" height="2" style="stroke:#D1D5DB;stroke-width:0.5;" width="4" x="238.414" y="229.4683"/><text fill="#333333" font-family="sans-serif" font-size="14" lengthAdjust="spacing" textLength="168.834" x="66.58" y="252.0034">deckmux/_hub_mixin.py</text><text fill="#333333" font-family="sans-serif" font-size="14" lengthAdjust="spacing" textLength="142.2012" x="66.58" y="268.4917">TermHub integration</text></g><!--entity HUB--><g class="entity" data-qualified-name="undef-terminal .integration..HUB" data-source-line="26" id="ent0010"><rect fill="#F3F4F6" height="62.9766" rx="2.5" ry="2.5" style="stroke:#D1D5DB;stroke-width:0.5;" width="170.8057" x="70.6" y="381.4383"/><rect fill="#F3F4F6" height="10" style="stroke:#D1D5DB;stroke-width:0.5;" width="15" x="221.4057" y="386.4383"/><rect fill="#F3F4F6" height="2" style="stroke:#D1D5DB;stroke-width:0.5;" width="4" x="219.4057" y="388.4383"/><rect fill="#F3F4F6" height="2" style="stroke:#D1D5DB;stroke-width:0.5;" width="4" x="219.4057" y="392.4383"/><text fill="#333333" font-family="sans-serif" font-size="14" lengthAdjust="spacing" textLength="130.8057" x="85.6" y="414.9734">hijack/hub/core.py</text><text fill="#333333" font-family="sans-serif" font-size="14" lengthAdjust="spacing" textLength="63.2393" x="85.6" y="431.4617">TermHub</text></g><!--entity WS--><g class="entity" data-qualified-name="undef-terminal .integration..WS" data-source-line="27" id="ent0011"><rect fill="#F3F4F6" height="62.9766" rx="2.5" ry="2.5" style="stroke:#D1D5DB;stroke-width:0.5;" width="237.1689" x="22.42" y="78.4883"/><rect fill="#F3F4F6" height="10" style="stroke:#D1D5DB;stroke-width:0.5;" width="15" x="239.5889" y="83.4883"/><rect fill="#F3F4F6" height="2" style="stroke:#D1D5DB;stroke-width:0.5;" width="4" x="237.5889" y="85.4883"/><rect fill="#F3F4F6" height="2" style="stroke:#D1D5DB;stroke-width:0.5;" width="4" x="237.5889" y="89.4883"/><text fill="#333333" font-family="sans-serif" font-size="14" lengthAdjust="spacing" textLength="197.1689" x="37.42" y="112.0234">hijack/routes/websockets.py</text><text fill="#333333" font-family="sans-serif" font-size="14" lengthAdjust="spacing" textLength="113.5518" x="37.42" y="128.5117">message routing</text></g><!--entity COORD--><g class="entity" data-qualified-name="undef-terminal-frontend.COORD" data-source-line="31" id="ent0013"><rect fill="#F3F4F6" height="62.9766" rx="2.5" ry="2.5" style="stroke:#D1D5DB;stroke-width:0.5;" width="188.7637" x="925.62" y="78.4883"/><rect fill="#F3F4F6" height="10" style="stroke:#D1D5DB;stroke-width:0.5;" width="15" x="1094.3837" y="83.4883"/><rect fill="#F3F4F6" height="2" style="stroke:#D1D5DB;stroke-width:0.5;" width="4" x="1092.3837" y="85.4883"/><rect fill="#F3F4F6" height="2" style="stroke:#D1D5DB;stroke-width:0.5;" width="4" x="1092.3837" y="89.4883"/><text fill="#333333" font-family="sans-serif" font-size="14" lengthAdjust="spacing" textLength="148.7637" x="940.62" y="112.0234">deckmux/deckmux.ts</text><text fill="#333333" font-family="sans-serif" font-size="14" lengthAdjust="spacing" textLength="78.9414" x="940.62" y="128.5117">coordinator</text></g><!--entity BAR--><g class="entity" data-qualified-name="undef-terminal-frontend.BAR" data-source-line="32" id="ent0014"><rect fill="#F3F4F6" height="62.9766" rx="2.5" ry="2.5" style="stroke:#D1D5DB;stroke-width:0.5;" width="217.7617" x="518.12" y="218.4683"/><rect fill="#F3F4F6" height="10" style="stroke:#D1D5DB;stroke-width:0.5;" width="15" x="715.8817" y="223.4683"/><rect fill="#F3F4F6" height="2" style="stroke:#D1D5DB;stroke-width:0.5;" width="4" x="713.8817" y="225.4683"/><rect fill="#F3F4F6" height="2" style="stroke:#D1D5DB;stroke-width:0.5;" width="4" x="713.8817" y="229.4683"/><text fill="#333333" font-family="sans-serif" font-size="14" lengthAdjust="spacing" textLength="177.7617" x="533.12" y="252.0034">deckmux/presence-bar.ts</text><text fill="#333333" font-family="sans-serif" font-size="14" lengthAdjust="spacing" textLength="68.1064" x="533.12" y="268.4917">avatar bar</text></g><!--entity EDGE_UI--><g class="entity" data-qualified-name="undef-terminal-frontend.EDGE_UI" data-source-line="33" id="ent0015"><rect fill="#F3F4F6" height="62.9766" rx="2.5" ry="2.5" style="stroke:#D1D5DB;stroke-width:0.5;" width="234.8926" x="770.55" y="218.4683"/><rect fill="#F3F4F6" height="10" style="stroke:#D1D5DB;stroke-width:0.5;" width="15" x="985.4426" y="223.4683"/><rect fill="#F3F4F6" height="2" style="stroke:#D1D5DB;stroke-width:0.5;" width="4" x="983.4426" y="225.4683"/><rect fill="#F3F4F6" height="2" style="stroke:#D1D5DB;stroke-width:0.5;" width="4" x="983.4426" y="229.4683"/><text fill="#333333" font-family="sans-serif" font-size="14" lengthAdjust="spacing" textLength="194.8926" x="785.55" y="252.0034">deckmux/edge-indicators.ts</text><text fill="#333333" font-family="sans-serif" font-size="14" lengthAdjust="spacing" textLength="93.3037" x="785.55" y="268.4917">minimap bars</text></g><!--entity CURSOR--><g class="entity" data-qualified-name="undef-terminal-frontend.CURSOR" data-source-line="34" id="ent0016"><rect fill="#F3F4F6" height="62.9766" rx="2.5" ry="2.5" style="stroke:#D1D5DB;stroke-width:0.5;" width="226.0742" x="1039.96" y="218.4683"/><rect fill="#F3F4F6" height="10" style="stroke:#D1D5DB;stroke-width:0.5;" width="15" x="1246.0342" y="223.4683"/><rect fill="#F3F4F6" height="2" style="stroke:#D1D5DB;stroke-width:0.5;" width="4" x="1244.0342" y="225.4683"/><rect fill="#F3F4F6" height="2" style="stroke:#D1D5DB;stroke-width:0.5;" width="4" x="1244.0342" y="229.4683"/><text fill="#333333" font-family="sans-serif" font-size="14" lengthAdjust="spacing" textLength="186.0742" x="1054.96" y="252.0034">deckmux/cursor-overlay.ts</text><text fill="#333333" font-family="sans-serif" font-size="14" lengthAdjust="spacing" textLength="116.334" x="1054.96" y="268.4917">pins + selections</text></g><!--entity CTRL--><g class="entity" data-qualified-name="undef-terminal-frontend.CTRL" data-source-line="35" id="ent0017"><rect fill="#F3F4F6" height="62.9766" rx="2.5" ry="2.5" style="stroke:#D1D5DB;stroke-width:0.5;" width="219.7031" x="1301.15" y="218.4683"/><rect fill="#F3F4F6" height="10" style="stroke:#D1D5DB;stroke-width:0.5;" width="15" x="1500.8531" y="223.4683"/><rect fill="#F3F4F6" height="2" style="stroke:#D1D5DB;stroke-width:0.5;" width="4" x="1498.8531" y="225.4683"/><rect fill="#F3F4F6" height="2" style="stroke:#D1D5DB;stroke-width:0.5;" width="4" x="1498.8531" y="229.4683"/><text fill="#333333" font-family="sans-serif" font-size="14" lengthAdjust="spacing" textLength="179.7031" x="1316.15" y="252.0034">deckmux/control-panel.ts</text><text fill="#333333" font-family="sans-serif" font-size="14" lengthAdjust="spacing" textLength="106.4492" x="1316.15" y="268.4917">toasts + menus</text></g><g class="entity" data-qualified-name="GMN29" data-source-line="51" id="ent0030"><path d="M1609.61,392.6183 L1609.61,433.2394 L1756.3952,433.2394 L1756.3952,402.6183 L1746.3952,392.6183 L1609.61,392.6183" fill="#F9FAFB" style="stroke:#D1D5DB;stroke-width:0.5;"/><path d="M1746.3952,392.6183 L1746.3952,402.6183 L1756.3952,402.6183 L1746.3952,392.6183" fill="#F9FAFB" style="stroke:#D1D5DB;stroke-width:1;"/><text fill="#333333" font-family="sans-serif" font-size="13" lengthAdjust="spacing" textLength="119.2153" x="1615.61" y="410.1866">Zero dependencies</text><text fill="#333333" font-family="sans-serif" font-size="13" lengthAdjust="spacing" textLength="125.7852" x="1615.61" y="425.4972">Standalone package</text></g><g class="entity" data-qualified-name="GMN32" data-source-line="52" id="ent0033"><path d="M295.08,229.6383 L295.08,245.9583 L260.61,249.9583 L295.08,253.9583 L295.08,270.2594 A0,0 0 0 0 295.08,270.2594 L428.9159,270.2594 A0,0 0 0 0 428.9159,270.2594 L428.9159,239.6383 L418.9159,229.6383 L295.08,229.6383 A0,0 0 0 0 295.08,229.6383" fill="#F9FAFB" style="stroke:#D1D5DB;stroke-width:0.5;"/><path d="M418.9159,229.6383 L418.9159,239.6383 L428.9159,239.6383 L418.9159,229.6383" fill="#F9FAFB" style="stroke:#D1D5DB;stroke-width:0.5;"/><text fill="#333333" font-family="sans-serif" font-size="13" lengthAdjust="spacing" textLength="112.8359" x="301.08" y="247.2066">Extends TermHub</text><text fill="#333333" font-family="sans-serif" font-size="13" lengthAdjust="spacing" textLength="107.3008" x="301.08" y="262.5172">via mixin pattern</text></g><!--link MIX to PROTO--><g class="link" data-entity-1="ent0009" data-entity-2="ent0003" data-link-type="dependency" data-source-line="38" id="lnk18"><path d="M209.85,281.7983 C259.73,310.3783 328.3035,349.6663 378.1335,378.2063" fill="none" id="MIX-to-PROTO" style="stroke:#2563EB;stroke-width:1;"/><polygon fill="#2563EB" points="383.34,381.1883,377.5183,373.2443,379.0013,378.7033,373.5422,380.1863,383.34,381.1883" style="stroke:#2563EB;stroke-width:1;"/><text fill="#333333" font-family="sans-serif" font-size="13" lengthAdjust="spacing" textLength="28.5645" x="289.07" y="327.0066">uses</text></g><!--link MIX to PRESENCE--><g class="link" data-entity-1="ent0009" data-entity-2="ent0004" data-link-type="dependency" data-source-line="39" id="lnk19"><path d="M215.45,281.9283 C234.92,290.8583 256.96,299.7283 278,305.4383 C310.04,314.1483 543.25,328.7283 575,338.4383 C607.29,348.3283 635.6954,362.6412 661.8654,378.0012" fill="none" id="MIX-to-PRESENCE" style="stroke:#2563EB;stroke-width:1;"/><polygon fill="#2563EB" points="667.04,381.0383,661.3029,373.0329,662.7279,378.5074,657.2534,379.9323,667.04,381.0383" style="stroke:#2563EB;stroke-width:1;"/><text fill="#333333" font-family="sans-serif" font-size="13" lengthAdjust="spacing" textLength="28.5645" x="517.46" y="327.0066">uses</text></g><!--link MIX to NAMES--><g class="link" data-entity-1="ent0009" data-entity-2="ent0005" data-link-type="dependency" data-source-line="40" id="lnk20"><path d="M212.73,281.8183 C232.76,291.2083 255.84,300.3783 278,305.4383 C337.82,319.0983 492.74,310.0083 554,313.4383 C688.03,320.9483 727.34,296.9383 855,338.4383 C883.98,347.8683 908.3472,361.9826 930.8472,377.5626" fill="none" id="MIX-to-NAMES" style="stroke:#2563EB;stroke-width:1;"/><polygon fill="#2563EB" points="935.78,380.9783,930.6579,372.5661,931.6693,378.1319,926.1036,379.1433,935.78,380.9783" style="stroke:#2563EB;stroke-width:1;"/><text fill="#333333" font-family="sans-serif" font-size="13" lengthAdjust="spacing" textLength="28.5645" x="826.96" y="327.0066">uses</text></g><!--link MIX to XFER--><g class="link" data-entity-1="ent0009" data-entity-2="ent0006" data-link-type="dependency" data-source-line="41" id="lnk21"><path d="M212.38,281.8683 C232.48,291.3283 255.69,300.5283 278,305.4383 C341.59,319.4483 799,309.5183 864,313.4383 C967.96,319.7183 996.52,311.0283 1097,338.4383 C1133.5,348.3983 1166.7998,362.9623 1197.1998,378.2523" fill="none" id="MIX-to-XFER" style="stroke:#2563EB;stroke-width:1;"/><polygon fill="#2563EB" points="1202.56,380.9483,1196.317,373.3309,1198.0932,378.7016,1192.7224,380.4778,1202.56,380.9483" style="stroke:#2563EB;stroke-width:1;"/><text fill="#333333" font-family="sans-serif" font-size="13" lengthAdjust="spacing" textLength="28.5645" x="1064.68" y="327.0066">uses</text></g><!--link MIX to EDGE--><g class="link" data-entity-1="ent0009" data-entity-2="ent0007" data-link-type="dependency" data-source-line="42" id="lnk22"><path d="M212.37,281.9183 C232.47,291.3783 255.68,300.5683 278,305.4383 C322.73,315.1983 1056.26,311.4283 1102,313.4383 C1243.63,319.6883 1289.03,284.1783 1420,338.4383 C1442.68,347.8383 1459.4937,361.3194 1475.0737,377.0194" fill="none" id="MIX-to-EDGE" style="stroke:#2563EB;stroke-width:1;"/><polygon fill="#2563EB" points="1479.3,381.2783,1475.7998,372.0724,1475.7781,377.7292,1470.1212,377.7075,1479.3,381.2783" style="stroke:#2563EB;stroke-width:1;"/><text fill="#333333" font-family="sans-serif" font-size="13" lengthAdjust="spacing" textLength="28.5645" x="1398.31" y="327.0066">uses</text></g><!--link MIX to HUB--><g class="link" data-entity-1="ent0009" data-entity-2="ent0010" data-link-type="dependency" data-source-line="43" id="lnk23"><path d="M156,281.6083 C156,310.1683 156,346.5083 156,375.1083" fill="none" id="MIX-to-HUB" style="stroke:#2563EB;stroke-width:1;"/><polygon fill="#2563EB" points="156,381.1083,160,372.1083,156,376.1083,152,372.1083,156,381.1083" style="stroke:#2563EB;stroke-width:1;"/><text fill="#333333" font-family="sans-serif" font-size="13" lengthAdjust="spacing" textLength="35.6929" x="157" y="327.0066">mixin</text></g><!--link WS to MIX--><g class="link" data-entity-1="ent0011" data-entity-2="ent0009" data-link-type="dependency" data-source-line="44" id="lnk24"><path d="M144.37,141.9383 C146.84,164.6683 149.5336,189.4232 151.9936,212.1232" fill="none" id="WS-to-MIX" style="stroke:#2563EB;stroke-width:1;"/><polygon fill="#2563EB" points="152.64,218.0883,155.6471,208.7097,152.1013,213.1174,147.6936,209.5716,152.64,218.0883" style="stroke:#2563EB;stroke-width:1;"/><text fill="#333333" font-family="sans-serif" font-size="13" lengthAdjust="spacing" textLength="138.4106" x="150.4" y="185.0366">routes presence msgs</text></g><!--link COORD to BAR--><g class="link" data-entity-1="ent0013" data-entity-2="ent0014" data-link-type="dependency" data-source-line="46" id="lnk25"><path d="M931.8,141.9383 C867.19,164.6283 785.5214,193.3013 720.9014,215.9813" fill="none" id="COORD-to-BAR" style="stroke:#2563EB;stroke-width:1;"/><polygon fill="#2563EB" points="715.24,217.9683,725.0568,218.762,719.9579,216.3124,722.4075,211.2135,715.24,217.9683" style="stroke:#2563EB;stroke-width:1;"/></g><!--link COORD to EDGE_UI--><g class="link" data-entity-1="ent0013" data-entity-2="ent0015" data-link-type="dependency" data-source-line="47" id="lnk26"><path d="M990.38,141.9383 C968.64,164.6683 943.388,191.0531 921.668,213.7531" fill="none" id="COORD-to-EDGE_UI" style="stroke:#2563EB;stroke-width:1;"/><polygon fill="#2563EB" points="917.52,218.0883,926.6322,214.3509,920.9767,214.4756,920.8519,208.8201,917.52,218.0883" style="stroke:#2563EB;stroke-width:1;"/></g><!--link COORD to CURSOR--><g class="link" data-entity-1="ent0013" data-entity-2="ent0016" data-link-type="dependency" data-source-line="48" id="lnk27"><path d="M1049.85,141.9383 C1071.75,164.6683 1097.2061,191.0683 1119.0861,213.7683" fill="none" id="COORD-to-CURSOR" style="stroke:#2563EB;stroke-width:1;"/><polygon fill="#2563EB" points="1123.25,218.0883,1119.8841,208.8324,1119.7801,214.4883,1114.1242,214.3843,1123.25,218.0883" style="stroke:#2563EB;stroke-width:1;"/></g><!--link COORD to CTRL--><g class="link" data-entity-1="ent0013" data-entity-2="ent0017" data-link-type="dependency" data-source-line="49" id="lnk28"><path d="M1107.75,141.9383 C1172.03,164.6283 1253.2517,193.2925 1317.5517,215.9725" fill="none" id="COORD-to-CTRL" style="stroke:#2563EB;stroke-width:1;"/><polygon fill="#2563EB" points="1323.21,217.9683,1316.053,211.2023,1318.4947,216.3051,1313.392,218.7468,1323.21,217.9683" style="stroke:#2563EB;stroke-width:1;"/></g><!--link PROTO to GMN29--><g class="link" data-entity-1="ent0003" data-entity-2="ent0030" data-link-type="association" data-source-line="51" id="lnk31"><path d="M477.5,381.0983 C507.39,359.7283 550.08,333.4383 592.5,321.9383 C645.1,307.6783 1522.24,303.4283 1573.5,321.9383 C1612.09,335.8783 1646.67,369.9983 1666.22,392.2683" fill="none" id="PROTO-GMN29" style="stroke:#2563EB;stroke-width:1;stroke-dasharray:7,7;"/></g><?plantuml-src XPJXJjim4CU_vobEJ9gOfb1j3AJnOHAKC91MYXegqCPKkSabzPhOsTa1kcdI7c9Fk2VPsKaWb0dofStv__ET_tUnbRP0ECHaEQfluU_lFt0cagN84VOfMKYBYQq9Wy0ifQe4YHBcl9wJhbKwr8KcU97vfwT8CHDrOO-qigraspyzIQBBIYjKza1JYjJAqZVfJZh_h-nHqktiNRRRarPDsK_lrucUFO8WqZVjujkTtMtixwAqVIQFLpnAyZuJsJm8sY9WWvSm2rFslcJlDuqLAXK5d_VL1lmC0BxCAj9M9xhOgbPNgaHZ76TN5Hfu2GP9YaB-45PgzHM4WRF9-7pSWcXG9UZ1i_ObjfeGNiEKoIxMSb4SdGuZZoh1YJpd_d6Un9UVeqAwJtMwFufYhxSabCcGF7BUleo4ubA9aornPIpf9SBt6kict-LHDF4ifdbJuhN4cqgJXLBOXTT4Xn-ZuDSZjonIAPKeO5CgYtbJKUTNQ-LWjgZdirBUIjKKnSnnFOSUuLECJYuTjP3VECU0cK721lKHBpkU7lHat56BPd23SwEJ9Lhpe3TkLQhSSnVn4_M76V7dWIfTAxtztRBcIYMQXup5t3Q_uN0ydXpsnLsNmxaWJuXhOGNn9ze01_kJljov7KgLoiHjQJp1nSXIL0unTxxFfYTzBgd9Q0hrDL8XLXwhf3BSN8C5Nn3iPyCEfvDu_21bmeSaNOILK5XuqcfXh6DBL7MBdKy-EQku7n267venXZse3PfUi9dHzRWVnFMW6x3rc3lOUenRoo4_AS55x4DkQG-QBaDdC9GcDq7W6-1Lpjdxjywp-qZhH2_WpXYuUm58vWiBEhixvsSapPTcnTF0oIIoI_7TNT3TMMjiKsPqwqR8G3kkxZiIpN4OipnhAlW7?></g></svg>