<?plantuml 1.2026.2?><svg xmlns="http://www.w3.org/2000/svg" xmlns:xlink="http://www.w3.org/1999/xlink" contentStyleType="text/css" data-diagram-type="SEQUENCE" height="776px" preserveAspectRatio="none" style="width:863px;height:776px;background:#FFFFFF;" version="1.1" viewBox="0 0 863 776" width="863px" zoomAndPan="magnify"><title>DeckMux &#8212; Control Transfer (Request / Handover)</title><defs/><g><text fill="#333333" font-family="sans-serif" font-size="14" font-weight="bold" lengthAdjust="spacing" textLength="368.71" x="248.3425" y="28.5352">DeckMux &#8212; Control Transfer (Request / Handover)</text><rect fill="none" height="402.3027" style="stroke:#000000;stroke-width:1.5;" width="847.395" x="9" y="304.9492"/><g class="participant-lifeline" data-entity-uid="part1" data-qualified-name="J" id="part1-lifeline"><g><title>Jane</title><rect fill="#000000" fill-opacity="0.00000" height="633.7871" width="8" x="101.6704" y="90.4648"/><line style="stroke:#D1D5DB;stroke-width:0.5;stroke-dasharray:5,5;" x1="105" x2="105" y1="90.4648" y2="724.252"/></g></g><g class="participant-lifeline" data-entity-uid="part2" data-qualified-name="S" id="part2-lifeline"><g><title>Server</title><rect fill="#000000" fill-opacity="0.00000" height="633.7871" width="8" x="413.6509" y="90.4648"/><line style="stroke:#D1D5DB;stroke-width:0.5;stroke-dasharray:5,5;" x1="417.4785" x2="417.4785" y1="90.4648" y2="724.252"/></g></g><g class="participant-lifeline" data-entity-uid="part3" data-qualified-name="T" id="part3-lifeline"><g><title>Tim</title><rect fill="#000000" fill-opacity="0.00000" height="633.7871" width="8" x="725.6313" y="90.4648"/><line style="stroke:#D1D5DB;stroke-width:0.5;stroke-dasharray:5,5;" x1="729.3335" x2="729.3335" y1="90.4648" y2="724.252"/></g></g><g class="participant-lifeline" data-entity-uid="part4" data-qualified-name="O" id="part4-lifeline"><g><title>Others</title><rect fill="#000000" fill-opacity="0.00000" height="633.7871" width="8" x="812.6621" y="90.4648"/><line style="stroke:#D1D5DB;stroke-width:0.5;stroke-dasharray:5,5;" x1="815.9292" x2="815.9292" y1="90.4648" y2="724.252"/></g></g><g class="participant participant-head" data-entity-uid="part1" data-qualified-name="J" id="part1-head"><rect fill="#F3F4F6" height="46.9766" rx="2.5" ry="2.5" style="stroke:#D1D5DB;stroke-width:0.5;" width="81.3408" x="65" y="42.4883"/><text fill="#333333" font-family="sans-serif" font-size="14" lengthAdjust="spacing" textLength="28.5742" x="91.3833" y="63.0234">Jane</text><text fill="#333333" font-family="sans-serif" font-size="14" lengthAdjust="spacing" textLength="67.3408" x="72" y="79.5117">(operator)</text></g><g class="participant participant-tail" data-entity-uid="part1" data-qualified-name="J" id="part1-tail"><rect fill="#F3F4F6" height="46.9766" rx="2.5" ry="2.5" style="stroke:#D1D5DB;stroke-width:0.5;" width="81.3408" x="65" y="723.252"/><text fill="#333333" font-family="sans-serif" font-size="14" lengthAdjust="spacing" textLength="28.5742" x="91.3833" y="743.7871">Jane</text><text fill="#333333" font-family="sans-serif" font-size="14" lengthAdjust="spacing" textLength="67.3408" x="72" y="760.2754">(operator)</text></g><g class="participant participant-head" data-entity-uid="part2" data-qualified-name="S" id="part2-head"><rect fill="#F3F4F6" height="46.9766" rx="2.5" ry="2.5" style="stroke:#D1D5DB;stroke-width:0.5;" width="86.3447" x="374.4785" y="42.4883"/><text fill="#333333" font-family="sans-serif" font-size="14" lengthAdjust="spacing" textLength="41.8428" x="396.7295" y="63.0234">Server</text><text fill="#333333" font-family="sans-serif" font-size="14" lengthAdjust="spacing" textLength="72.3447" x="381.4785" y="79.5117">(TermHub)</text></g><g class="participant participant-tail" data-entity-uid="part2" data-qualified-name="S" id="part2-tail"><rect fill="#F3F4F6" height="46.9766" rx="2.5" ry="2.5" style="stroke:#D1D5DB;stroke-width:0.5;" width="86.3447" x="374.4785" y="723.252"/><text fill="#333333" font-family="sans-serif" font-size="14" lengthAdjust="spacing" textLength="41.8428" x="396.7295" y="743.7871">Server</text><text fill="#333333" font-family="sans-serif" font-size="14" lengthAdjust="spacing" textLength="72.3447" x="381.4785" y="760.2754">(TermHub)</text></g><g class="participant participant-head" data-entity-uid="part3" data-qualified-name="T" id="part3-head"><rect fill="#F3F4F6" height="46.9766" rx="2.5" ry="2.5" style="stroke:#D1D5DB;stroke-width:0.5;" width="94.5957" x="682.3335" y="42.4883"/><text fill="#333333" font-family="sans-serif" font-size="14" lengthAdjust="spacing" textLength="25.9697" x="716.6465" y="63.0234">Tim</text><text fill="#333333" font-family="sans-serif" font-size="14" lengthAdjust="spacing" textLength="80.5957" x="689.3335" y="79.5117">(DM/owner)</text></g><g class="participant participant-tail" data-entity-uid="part3" data-qualified-name="T" id="part3-tail"><rect fill="#F3F4F6" height="46.9766" rx="2.5" ry="2.5" style="stroke:#D1D5DB;stroke-width:0.5;" width="94.5957" x="682.3335" y="723.252"/><text fill="#333333" font-family="sans-serif" font-size="14" lengthAdjust="spacing" textLength="25.9697" x="716.6465" y="743.7871">Tim</text><text fill="#333333" font-family="sans-serif" font-size="14" lengthAdjust="spacing" textLength="80.5957" x="689.3335" y="760.2754">(DM/owner)</text></g><g class="participant participant-head" data-entity-uid="part4" data-qualified-name="O" id="part4-head"><rect fill="#F3F4F6" height="30.4883" rx="2.5" ry="2.5" style="stroke:#D1D5DB;stroke-width:0.5;" width="59.4658" x="786.9292" y="58.9766"/><text fill="#333333" font-family="sans-serif" font-size="14" lengthAdjust="spacing" textLength="45.4658" x="793.9292" y="79.5117">Others</text></g><g class="participant participant-tail" data-entity-uid="part4" data-qualified-name="O" id="part4-tail"><rect fill="#F3F4F6" height="30.4883" rx="2.5" ry="2.5" style="stroke:#D1D5DB;stroke-width:0.5;" width="59.4658" x="786.9292" y="723.252"/><text fill="#333333" font-family="sans-serif" font-size="14" lengthAdjust="spacing" textLength="45.4658" x="793.9292" y="743.7871">Others</text></g><g class="message" data-entity-1="part1" data-entity-2="part1" id="msg1"><line style="stroke:#2563EB;stroke-width:1;" x1="105.6704" x2="147.6704" y1="137.0859" y2="137.0859"/><line style="stroke:#2563EB;stroke-width:1;" x1="147.6704" x2="147.6704" y1="137.0859" y2="150.0859"/><line style="stroke:#2563EB;stroke-width:1;" x1="106.6704" x2="147.6704" y1="150.0859" y2="150.0859"/><polygon fill="#2563EB" points="116.6704,146.0859,106.6704,150.0859,116.6704,154.0859,112.6704,150.0859" style="stroke:#2563EB;stroke-width:1;"/><text fill="#333333" font-family="sans-serif" font-size="13" lengthAdjust="spacing" textLength="115.4512" x="112.6704" y="117.0332">clicks Tim's avatar</text><text fill="#333333" font-family="sans-serif" font-size="13" lengthAdjust="spacing" textLength="130.876" x="112.6704" y="132.3438">-&gt; "Request control"</text></g><g class="message" data-entity-1="part1" data-entity-2="part2" id="msg2"><polygon fill="#2563EB" points="405.6509,175.3965,415.6509,179.3965,405.6509,183.3965,409.6509,179.3965" style="stroke:#2563EB;stroke-width:1;"/><line style="stroke:#2563EB;stroke-width:1;" x1="105.6704" x2="411.6509" y1="179.3965" y2="179.3965"/><text fill="#333333" font-family="sans-serif" font-size="13" lengthAdjust="spacing" textLength="177.8042" x="112.6704" y="174.6543">control_request {target: tim}</text></g><g class="message" data-entity-1="part2" data-entity-2="part3" id="msg3"><polygon fill="#2563EB" points="717.6313,220.0176,727.6313,224.0176,717.6313,228.0176,721.6313,224.0176" style="stroke:#2563EB;stroke-width:1;"/><line style="stroke:#2563EB;stroke-width:1;" x1="417.6509" x2="723.6313" y1="224.0176" y2="224.0176"/><text fill="#333333" font-family="sans-serif" font-size="13" lengthAdjust="spacing" textLength="176.9028" x="424.6509" y="203.9648">control_request_notification</text><text fill="#333333" font-family="sans-serif" font-size="13" lengthAdjust="spacing" textLength="83.1479" x="424.6509" y="219.2754">{from: "Jane"}</text></g><path d="M640,237.0176 L640,292.0176 L817,292.0176 L817,247.0176 L807,237.0176 L640,237.0176" fill="#F9FAFB" style="stroke:#D1D5DB;stroke-width:0.5;"/><path d="M807,237.0176 L807,247.0176 L817,247.0176 L807,237.0176" fill="#F9FAFB" style="stroke:#D1D5DB;stroke-width:0.5;"/><text fill="#333333" font-family="sans-serif" font-size="13" lengthAdjust="spacing" textLength="93.0122" x="646" y="254.5859">Toast appears:</text><text fill="#333333" font-family="sans-serif" font-size="13" lengthAdjust="spacing" textLength="156.584" x="646" y="269.8965">"Jane requesting control"</text><text fill="#333333" font-family="sans-serif" font-size="13" lengthAdjust="spacing" textLength="117.2349" x="646" y="285.207">[Hand over] [Deny]</text><path d="M9,304.9492 L71.1387,304.9492 L71.1387,312.2598 L61.1387,322.2598 L9,322.2598 L9,304.9492" fill="#EEEEEE" style="stroke:#000000;stroke-width:1.5;"/><rect fill="none" height="402.3027" style="stroke:#000000;stroke-width:1.5;" width="847.395" x="9" y="304.9492"/><text fill="#333333" font-family="sans-serif" font-size="13" font-weight="bold" lengthAdjust="spacing" textLength="17.1387" x="24" y="318.5176">alt</text><text fill="#333333" font-family="sans-serif" font-size="11" font-weight="bold" lengthAdjust="spacing" textLength="76.1997" x="86.1387" y="317.584">[Tim accepts]</text><g class="message" data-entity-1="part3" data-entity-2="part2" id="msg4"><polygon fill="#2563EB" points="428.6509,339.5703,418.6509,343.5703,428.6509,347.5703,424.6509,343.5703" style="stroke:#2563EB;stroke-width:1;"/><line style="stroke:#2563EB;stroke-width:1;" x1="422.6509" x2="728.6313" y1="343.5703" y2="343.5703"/><text fill="#333333" font-family="sans-serif" font-size="13" lengthAdjust="spacing" textLength="169.9966" x="434.6509" y="338.8281">control_handover {to: jane}</text></g><g class="message" data-entity-1="part2" data-entity-2="part2" id="msg5"><line style="stroke:#2563EB;stroke-width:1;" x1="417.6509" x2="459.6509" y1="388.1914" y2="388.1914"/><line style="stroke:#2563EB;stroke-width:1;" x1="459.6509" x2="459.6509" y1="388.1914" y2="401.1914"/><line style="stroke:#2563EB;stroke-width:1;" x1="418.6509" x2="459.6509" y1="401.1914" y2="401.1914"/><polygon fill="#2563EB" points="428.6509,397.1914,418.6509,401.1914,428.6509,405.1914,424.6509,401.1914" style="stroke:#2563EB;stroke-width:1;"/><text fill="#333333" font-family="sans-serif" font-size="13" lengthAdjust="spacing" textLength="118.606" x="424.6509" y="368.1387">release Tim's lease</text><text fill="#333333" font-family="sans-serif" font-size="13" lengthAdjust="spacing" textLength="122.8208" x="424.6509" y="383.4492">acquire Jane's lease</text></g><g class="message" data-entity-1="part2" data-entity-2="part1" id="msg6"><polygon fill="#2563EB" points="116.6704,426.502,106.6704,430.502,116.6704,434.502,112.6704,430.502" style="stroke:#2563EB;stroke-width:1;"/><line style="stroke:#2563EB;stroke-width:1;" x1="110.6704" x2="416.6509" y1="430.502" y2="430.502"/><text fill="#333333" font-family="sans-serif" font-size="13" lengthAdjust="spacing" textLength="287.9805" x="122.6704" y="425.7598">control_transfer {to: jane, reason: "handover"}</text></g><g class="message" data-entity-1="part2" data-entity-2="part3" id="msg7"><polygon fill="#2563EB" points="717.6313,455.8125,727.6313,459.8125,717.6313,463.8125,721.6313,459.8125" style="stroke:#2563EB;stroke-width:1;"/><line style="stroke:#2563EB;stroke-width:1;" x1="417.6509" x2="723.6313" y1="459.8125" y2="459.8125"/><text fill="#333333" font-family="sans-serif" font-size="13" lengthAdjust="spacing" textLength="287.9805" x="424.6509" y="455.0703">control_transfer {to: jane, reason: "handover"}</text></g><g class="message" data-entity-1="part2" data-entity-2="part4" id="msg8"><polygon fill="#2563EB" points="804.6621,485.123,814.6621,489.123,804.6621,493.123,808.6621,489.123" style="stroke:#2563EB;stroke-width:1;"/><line style="stroke:#2563EB;stroke-width:1;" x1="417.6509" x2="810.6621" y1="489.123" y2="489.123"/><text fill="#333333" font-family="sans-serif" font-size="13" lengthAdjust="spacing" textLength="287.9805" x="424.6509" y="484.3809">control_transfer {to: jane, reason: "handover"}</text></g><path d="M19,502.123 L19,542.123 L191,542.123 L191,512.123 L181,502.123 L19,502.123" fill="#F9FAFB" style="stroke:#D1D5DB;stroke-width:0.5;"/><path d="M181,502.123 L181,512.123 L191,512.123 L181,502.123" fill="#F9FAFB" style="stroke:#D1D5DB;stroke-width:0.5;"/><text fill="#333333" font-family="sans-serif" font-size="13" lengthAdjust="spacing" textLength="151.125" x="25" y="519.6914">Pulsing border activates</text><text fill="#333333" font-family="sans-serif" font-size="13" lengthAdjust="spacing" textLength="109.605" x="25" y="535.002">Jane in status bar</text><path d="M661,552.7441 L661,592.7441 L798,592.7441 L798,562.7441 L788,552.7441 L661,552.7441" fill="#F9FAFB" style="stroke:#D1D5DB;stroke-width:0.5;"/><path d="M788,552.7441 L788,562.7441 L798,562.7441 L788,552.7441" fill="#F9FAFB" style="stroke:#D1D5DB;stroke-width:0.5;"/><text fill="#333333" font-family="sans-serif" font-size="13" lengthAdjust="spacing" textLength="116.1621" x="667" y="570.3125">Border deactivates</text><text fill="#333333" font-family="sans-serif" font-size="13" lengthAdjust="spacing" textLength="87.2295" x="667" y="585.623">No longer DM</text><line style="stroke:#000000;stroke-width:1;stroke-dasharray:2,2;" x1="9" x2="856.395" y1="599.3652" y2="599.3652"/><text fill="#333333" font-family="sans-serif" font-size="11" font-weight="bold" lengthAdjust="spacing" textLength="70.8125" x="14" y="610">[Tim denies]</text><g class="message" data-entity-1="part3" data-entity-2="part2" id="msg9"><polygon fill="#2563EB" points="428.6509,630.6309,418.6509,634.6309,428.6509,638.6309,424.6509,634.6309" style="stroke:#2563EB;stroke-width:1;"/><line style="stroke:#2563EB;stroke-width:1;" x1="422.6509" x2="728.6313" y1="634.6309" y2="634.6309"/><text fill="#333333" font-family="sans-serif" font-size="13" lengthAdjust="spacing" textLength="188.7666" x="434.6509" y="629.8887">control_deny {requester: jane}</text></g><g class="message" data-entity-1="part2" data-entity-2="part1" id="msg10"><polygon fill="#2563EB" points="116.6704,659.9414,106.6704,663.9414,116.6704,667.9414,112.6704,663.9414" style="stroke:#2563EB;stroke-width:1;"/><line style="stroke:#2563EB;stroke-width:1;" x1="110.6704" x2="416.6509" y1="663.9414" y2="663.9414"/><text fill="#333333" font-family="sans-serif" font-size="13" lengthAdjust="spacing" textLength="106.3804" x="122.6704" y="659.1992">control_denied {}</text></g><path d="M20,676.9414 L20,701.9414 L191,701.9414 L191,686.9414 L181,676.9414 L20,676.9414" fill="#F9FAFB" style="stroke:#D1D5DB;stroke-width:0.5;"/><path d="M181,676.9414 L181,686.9414 L191,686.9414 L181,676.9414" fill="#F9FAFB" style="stroke:#D1D5DB;stroke-width:0.5;"/><text fill="#333333" font-family="sans-serif" font-size="13" lengthAdjust="spacing" textLength="150.0459" x="26" y="694.5098">Toast: "Request denied"</text><?plantuml-src dPFRQjj048Rlzoa6zQ89j8JMJQ2wABGn9PYw3h7keX36qiZPMffLTbT9Wp7q8Vg4VPAEJZx4Xj8836Rt-_yvhjS-9nXIiXXNF-7FhzzmRjXRaqDaaLr65ewkwBuYv-44Bf1Jyq3sM2ctq5oYnG9cc2pcrbISdflSM7YLDTyMaLA6LUw_YdE739fl2t5r34xeixNciOFUdvuDQ7O0-gOp-J5zCJObsz7fk_GqFKHVelKwqIMo_t_1Ncs3x4DsjYLYu_-HHqFi-NpCC9ifLMvYGJ12ffYFJ4aMlR770Q23qIup9Ii342eYMrnKinQQxaAHBeGOZa_C8rFd4-qY4tz7rZKt4wL6yFOJZ498SfqiXDN5QmVuW1ubb5m5_GuaxNO4hM8QzWUtjWEM8fcJ3y7hOgMcDHNjKRVI4vtf1Bqs7FCoiwO8s_g3bQeR1lMQrSh8eBXYMH9Q5yRSGD3vQ9wlCuhvkbxFHdW3rqFYfnkbCFTrDO19GgLt2Y1wblXTjzEIkGdXXxYlX9fsbAMSq57NaUP_p9ZSLzeIrAdqfxrcj77s_GjQExyHFtI6fTO-RB2E5hrOENc9SjDbIVcoobtTp5cpoT8jhsNuv69ksgqPd4TVENdiTaShIRVRBuzyI_NTG6vuBiV3iQAyRQ0WhEdG3EJY2PRTKCa-6yDe1zIKmdAlW6PDmisUjc2WY5Fr5m00?></g></svg>