<?plantuml 1.2026.2?><svg xmlns="http://www.w3.org/2000/svg" xmlns:xlink="http://www.w3.org/1999/xlink" contentStyleType="text/css" data-diagram-type="DESCRIPTION" height="1361px" preserveAspectRatio="none" style="width:908px;height:1361px;background:#FFFFFF;" version="1.1" viewBox="0 0 908 1361" width="908px" zoomAndPan="magnify"><title>undef-terminal &#8212; Data Flow Through the System</title><defs/><g><g class="title" data-source-line="4"><text fill="#333333" font-family="sans-serif" font-size="14" font-weight="bold" lengthAdjust="spacing" textLength="355.8789" x="269.1316" y="23.5352">undef-terminal &#8212; Data Flow Through the System</text></g><!--cluster Remote / Local Process--><g class="cluster" data-qualified-name="Remote . Local Process" data-source-line="18" id="ent0002"><path d="M344.5,43.4883 L514.2109,43.4883 A3.75,3.75 0 0 1 516.7109,45.9883 L523.7109,65.9766 L523.5,65.9766 A2.5,2.5 0 0 1 526,68.4766 L526,154.9683 A2.5,2.5 0 0 1 523.5,157.4683 L344.5,157.4683 A2.5,2.5 0 0 1 342,154.9683 L342,45.9883 A2.5,2.5 0 0 1 344.5,43.4883" fill="#FFFFFF" style="stroke:#D1D5DB;stroke-width:1.5;"/><line style="stroke:#D1D5DB;stroke-width:1.5;" x1="342" x2="523.7109" y1="65.9766" y2="65.9766"/><text fill="#333333" font-family="sans-serif" font-size="14" font-weight="bold" lengthAdjust="spacing" textLength="168.7109" x="346" y="59.0234">Remote / Local Process</text></g><!--cluster Worker (CLI / uterm share)--><g class="cluster" data-qualified-name="Worker .CLI . uterm share." data-source-line="22" id="ent0004"><path d="M308.5,206.4683 L503.3125,206.4683 A3.75,3.75 0 0 1 505.8125,208.9683 L512.8125,228.9566 L559.5,228.9566 A2.5,2.5 0 0 1 562,231.4566 L562,317.9383 A2.5,2.5 0 0 1 559.5,320.4383 L308.5,320.4383 A2.5,2.5 0 0 1 306,317.9383 L306,208.9683 A2.5,2.5 0 0 1 308.5,206.4683" fill="#FFFFFF" style="stroke:#D1D5DB;stroke-width:1.5;"/><line style="stroke:#D1D5DB;stroke-width:1.5;" x1="306" x2="512.8125" y1="228.9566" y2="228.9566"/><text fill="#333333" font-family="sans-serif" font-size="14" font-weight="bold" lengthAdjust="spacing" textLength="193.8125" x="310" y="222.0034">Worker (CLI / uterm share)</text></g><!--cluster Server (TermHub)--><g class="cluster" data-qualified-name="Server .TermHub." data-source-line="26" id="ent0006"><path d="M8.5,399.4383 L137.127,399.4383 A3.75,3.75 0 0 1 139.627,401.9383 L146.627,421.9266 L564.5,421.9266 A2.5,2.5 0 0 1 567,424.4266 L567,1018.5583 A2.5,2.5 0 0 1 564.5,1021.0583 L8.5,1021.0583 A2.5,2.5 0 0 1 6,1018.5583 L6,401.9383 A2.5,2.5 0 0 1 8.5,399.4383" fill="#FFFFFF" style="stroke:#D1D5DB;stroke-width:1.5;"/><line style="stroke:#D1D5DB;stroke-width:1.5;" x1="6" x2="146.627" y1="421.9266" y2="421.9266"/><text fill="#333333" font-family="sans-serif" font-size="14" font-weight="bold" lengthAdjust="spacing" textLength="127.627" x="10" y="414.9734">Server (TermHub)</text></g><!--cluster Browser--><g class="cluster" data-qualified-name="Browser" data-source-line="33" id="ent0011"><path d="M114.5,1085.0583 L174.1865,1085.0583 A3.75,3.75 0 0 1 176.6865,1087.5583 L183.6865,1107.5466 L661.5,1107.5466 A2.5,2.5 0 0 1 664,1110.0466 L664,1351.5083 A2.5,2.5 0 0 1 661.5,1354.0083 L114.5,1354.0083 A2.5,2.5 0 0 1 112,1351.5083 L112,1087.5583 A2.5,2.5 0 0 1 114.5,1085.0583" fill="#FFFFFF" style="stroke:#D1D5DB;stroke-width:1.5;"/><line style="stroke:#D1D5DB;stroke-width:1.5;" x1="112" x2="183.6865" y1="1107.5466" y2="1107.5466"/><text fill="#333333" font-family="sans-serif" font-size="14" font-weight="bold" lengthAdjust="spacing" textLength="58.6865" x="116" y="1100.5934">Browser</text></g><!--entity PTY--><g class="entity" data-qualified-name="Remote . Local Process.PTY" data-source-line="19" id="ent0003"><rect fill="#F3F4F6" height="62.9766" rx="2.5" ry="2.5" style="stroke:#D1D5DB;stroke-width:0.5;" width="123.9932" x="372" y="78.4883"/><rect fill="#F3F4F6" height="10" style="stroke:#D1D5DB;stroke-width:0.5;" width="15" x="475.9932" y="83.4883"/><rect fill="#F3F4F6" height="2" style="stroke:#D1D5DB;stroke-width:0.5;" width="4" x="473.9932" y="85.4883"/><rect fill="#F3F4F6" height="2" style="stroke:#D1D5DB;stroke-width:0.5;" width="4" x="473.9932" y="89.4883"/><text fill="#333333" font-family="sans-serif" font-size="14" lengthAdjust="spacing" textLength="73.6367" x="387" y="112.0234">PTY / Shell</text><text fill="#333333" font-family="sans-serif" font-size="14" lengthAdjust="spacing" textLength="83.9932" x="387" y="128.5117">SSH / Telnet</text></g><!--entity WP--><g class="entity" data-qualified-name="Worker .CLI . uterm share..WP" data-source-line="23" id="ent0005"><rect fill="#F3F4F6" height="62.9766" rx="2.5" ry="2.5" style="stroke:#D1D5DB;stroke-width:0.5;" width="224.8027" x="321.6" y="241.4683"/><rect fill="#F3F4F6" height="10" style="stroke:#D1D5DB;stroke-width:0.5;" width="15" x="526.4027" y="246.4683"/><rect fill="#F3F4F6" height="2" style="stroke:#D1D5DB;stroke-width:0.5;" width="4" x="524.4027" y="248.4683"/><rect fill="#F3F4F6" height="2" style="stroke:#D1D5DB;stroke-width:0.5;" width="4" x="524.4027" y="252.4683"/><text fill="#333333" font-family="sans-serif" font-size="14" lengthAdjust="spacing" textLength="103.7559" x="336.6" y="275.0034">Worker Process</text><text fill="#333333" font-family="sans-serif" font-size="14" lengthAdjust="spacing" textLength="184.8027" x="336.6" y="291.4917">(undef-terminal connector)</text></g><!--entity WWS--><g class="entity" data-qualified-name="Server .TermHub..WWS" data-source-line="27" id="ent0007"><rect fill="#F3F4F6" height="62.9766" rx="2.5" ry="2.5" style="stroke:#D1D5DB;stroke-width:0.5;" width="165.5625" x="351.22" y="434.4383"/><rect fill="#F3F4F6" height="10" style="stroke:#D1D5DB;stroke-width:0.5;" width="15" x="496.7825" y="439.4383"/><rect fill="#F3F4F6" height="2" style="stroke:#D1D5DB;stroke-width:0.5;" width="4" x="494.7825" y="441.4383"/><rect fill="#F3F4F6" height="2" style="stroke:#D1D5DB;stroke-width:0.5;" width="4" x="494.7825" y="445.4383"/><text fill="#333333" font-family="sans-serif" font-size="14" lengthAdjust="spacing" textLength="125.5625" x="366.22" y="467.9734">Worker WebSocket</text><text fill="#333333" font-family="sans-serif" font-size="14" lengthAdjust="spacing" textLength="121.3105" x="366.22" y="484.4617">bearer token auth</text></g><!--entity HUB--><g class="entity" data-qualified-name="Server .TermHub..HUB" data-source-line="28" id="ent0008"><rect fill="#F3F4F6" height="62.9766" rx="2.5" ry="2.5" style="stroke:#D1D5DB;stroke-width:0.5;" width="192.9541" x="310.52" y="608.8583"/><rect fill="#F3F4F6" height="10" style="stroke:#D1D5DB;stroke-width:0.5;" width="15" x="483.4741" y="613.8583"/><rect fill="#F3F4F6" height="2" style="stroke:#D1D5DB;stroke-width:0.5;" width="4" x="481.4741" y="615.8583"/><rect fill="#F3F4F6" height="2" style="stroke:#D1D5DB;stroke-width:0.5;" width="4" x="481.4741" y="619.8583"/><text fill="#333333" font-family="sans-serif" font-size="14" lengthAdjust="spacing" textLength="63.2393" x="325.52" y="642.3934">TermHub</text><text fill="#333333" font-family="sans-serif" font-size="14" lengthAdjust="spacing" textLength="152.9541" x="325.52" y="658.8817">broker + session state</text></g><!--entity DMX--><g class="entity" data-qualified-name="Server .TermHub..DMX" data-source-line="29" id="ent0009"><rect fill="#F3F4F6" height="62.9766" rx="2.5" ry="2.5" style="stroke:#D1D5DB;stroke-width:0.5;" width="270.0361" x="280.98" y="782.9683"/><rect fill="#F3F4F6" height="10" style="stroke:#D1D5DB;stroke-width:0.5;" width="15" x="531.0161" y="787.9683"/><rect fill="#F3F4F6" height="2" style="stroke:#D1D5DB;stroke-width:0.5;" width="4" x="529.0161" y="789.9683"/><rect fill="#F3F4F6" height="2" style="stroke:#D1D5DB;stroke-width:0.5;" width="4" x="529.0161" y="793.9683"/><text fill="#333333" font-family="sans-serif" font-size="14" lengthAdjust="spacing" textLength="104.8291" x="295.98" y="816.5034">DeckMux Mixin</text><text fill="#333333" font-family="sans-serif" font-size="14" lengthAdjust="spacing" textLength="230.0361" x="295.98" y="832.9917">PresenceStore + TransferManager</text></g><!--entity BWS--><g class="entity" data-qualified-name="Server .TermHub..BWS" data-source-line="30" id="ent0010"><rect fill="#F3F4F6" height="62.9766" rx="2.5" ry="2.5" style="stroke:#D1D5DB;stroke-width:0.5;" width="171.3799" x="219.31" y="942.0783"/><rect fill="#F3F4F6" height="10" style="stroke:#D1D5DB;stroke-width:0.5;" width="15" x="370.6899" y="947.0783"/><rect fill="#F3F4F6" height="2" style="stroke:#D1D5DB;stroke-width:0.5;" width="4" x="368.6899" y="949.0783"/><rect fill="#F3F4F6" height="2" style="stroke:#D1D5DB;stroke-width:0.5;" width="4" x="368.6899" y="953.0783"/><text fill="#333333" font-family="sans-serif" font-size="14" lengthAdjust="spacing" textLength="131.3799" x="234.31" y="975.6134">Browser WebSocket</text><text fill="#333333" font-family="sans-serif" font-size="14" lengthAdjust="spacing" textLength="90.5625" x="234.31" y="992.1017">JWT role auth</text></g><!--entity XTERM--><g class="entity" data-qualified-name="Browser.XTERM" data-source-line="34" id="ent0012"><rect fill="#F3F4F6" height="62.9766" rx="2.5" ry="2.5" style="stroke:#D1D5DB;stroke-width:0.5;" width="158.8633" x="127.57" y="1120.0583"/><rect fill="#F3F4F6" height="10" style="stroke:#D1D5DB;stroke-width:0.5;" width="15" x="266.4333" y="1125.0583"/><rect fill="#F3F4F6" height="2" style="stroke:#D1D5DB;stroke-width:0.5;" width="4" x="264.4333" y="1127.0583"/><rect fill="#F3F4F6" height="2" style="stroke:#D1D5DB;stroke-width:0.5;" width="4" x="264.4333" y="1131.0583"/><text fill="#333333" font-family="sans-serif" font-size="14" lengthAdjust="spacing" textLength="56.2461" x="142.57" y="1153.5934">xterm.js</text><text fill="#333333" font-family="sans-serif" font-size="14" lengthAdjust="spacing" textLength="118.8633" x="142.57" y="1170.0817">terminal renderer</text></g><!--entity DMTS--><g class="entity" data-qualified-name="Browser.DMTS" data-source-line="35" id="ent0013"><rect fill="#F3F4F6" height="62.9766" rx="2.5" ry="2.5" style="stroke:#D1D5DB;stroke-width:0.5;" width="139.7637" x="321.12" y="1120.0583"/><rect fill="#F3F4F6" height="10" style="stroke:#D1D5DB;stroke-width:0.5;" width="15" x="440.8837" y="1125.0583"/><rect fill="#F3F4F6" height="2" style="stroke:#D1D5DB;stroke-width:0.5;" width="4" x="438.8837" y="1127.0583"/><rect fill="#F3F4F6" height="2" style="stroke:#D1D5DB;stroke-width:0.5;" width="4" x="438.8837" y="1131.0583"/><text fill="#333333" font-family="sans-serif" font-size="14" lengthAdjust="spacing" textLength="62.9727" x="336.12" y="1153.5934">DeckMux</text><text fill="#333333" font-family="sans-serif" font-size="14" lengthAdjust="spacing" textLength="99.7637" x="336.12" y="1170.0817">TS coordinator</text></g><!--entity BAR--><g class="entity" data-qualified-name="Browser.BAR" data-source-line="36" id="ent0014"><rect fill="#F3F4F6" height="62.9766" rx="2.5" ry="2.5" style="stroke:#D1D5DB;stroke-width:0.5;" width="149.8125" x="128.09" y="1275.0283"/><rect fill="#F3F4F6" height="10" style="stroke:#D1D5DB;stroke-width:0.5;" width="15" x="257.9025" y="1280.0283"/><rect fill="#F3F4F6" height="2" style="stroke:#D1D5DB;stroke-width:0.5;" width="4" x="255.9025" y="1282.0283"/><rect fill="#F3F4F6" height="2" style="stroke:#D1D5DB;stroke-width:0.5;" width="4" x="255.9025" y="1286.0283"/><text fill="#333333" font-family="sans-serif" font-size="14" lengthAdjust="spacing" textLength="85.8047" x="143.09" y="1308.5634">Presence Bar</text><text fill="#333333" font-family="sans-serif" font-size="14" lengthAdjust="spacing" textLength="109.8125" x="143.09" y="1325.0517">avatars + colors</text></g><!--entity EDGE--><g class="entity" data-qualified-name="Browser.EDGE" data-source-line="37" id="ent0015"><rect fill="#F3F4F6" height="62.9766" rx="2.5" ry="2.5" style="stroke:#D1D5DB;stroke-width:0.5;" width="144.542" x="312.73" y="1275.0283"/><rect fill="#F3F4F6" height="10" style="stroke:#D1D5DB;stroke-width:0.5;" width="15" x="437.272" y="1280.0283"/><rect fill="#F3F4F6" height="2" style="stroke:#D1D5DB;stroke-width:0.5;" width="4" x="435.272" y="1282.0283"/><rect fill="#F3F4F6" height="2" style="stroke:#D1D5DB;stroke-width:0.5;" width="4" x="435.272" y="1286.0283"/><text fill="#333333" font-family="sans-serif" font-size="14" lengthAdjust="spacing" textLength="104.542" x="327.73" y="1308.5634">Edge Indicators</text><text fill="#333333" font-family="sans-serif" font-size="14" lengthAdjust="spacing" textLength="93.3037" x="327.73" y="1325.0517">minimap bars</text></g><!--entity OVERLAY--><g class="entity" data-qualified-name="Browser.OVERLAY" data-source-line="38" id="ent0016"><rect fill="#F3F4F6" height="62.9766" rx="2.5" ry="2.5" style="stroke:#D1D5DB;stroke-width:0.5;" width="156.334" x="491.83" y="1275.0283"/><rect fill="#F3F4F6" height="10" style="stroke:#D1D5DB;stroke-width:0.5;" width="15" x="628.164" y="1280.0283"/><rect fill="#F3F4F6" height="2" style="stroke:#D1D5DB;stroke-width:0.5;" width="4" x="626.164" y="1282.0283"/><rect fill="#F3F4F6" height="2" style="stroke:#D1D5DB;stroke-width:0.5;" width="4" x="626.164" y="1286.0283"/><text fill="#333333" font-family="sans-serif" font-size="14" lengthAdjust="spacing" textLength="100.7412" x="506.83" y="1308.5634">Cursor Overlay</text><text fill="#333333" font-family="sans-serif" font-size="14" lengthAdjust="spacing" textLength="116.334" x="506.83" y="1325.0517">pins + selections</text></g><g class="entity" data-qualified-name="GMN19" data-source-line="45" id="ent0020"><path d="M582.79,414.9983 L582.79,461.9283 L516.83,465.9283 L582.79,469.9283 L582.79,516.8616 A0,0 0 0 0 582.79,516.8616 L781.2006,516.8616 A0,0 0 0 0 781.2006,516.8616 L781.2006,424.9983 L771.2006,414.9983 L582.79,414.9983 A0,0 0 0 0 582.79,414.9983" fill="#F9FAFB" style="stroke:#D1D5DB;stroke-width:0.5;"/><path d="M771.2006,414.9983 L771.2006,424.9983 L781.2006,424.9983 L771.2006,414.9983" fill="#F9FAFB" style="stroke:#D1D5DB;stroke-width:0.5;"/><text fill="#333333" font-family="sans-serif" font-size="13" lengthAdjust="spacing" textLength="98.376" x="588.79" y="432.5666">Binary channels</text><text fill="#333333" font-family="sans-serif" font-size="13" lengthAdjust="spacing" textLength="109.4844" x="588.79" y="447.8772">(tunnel protocol):</text><text fill="#333333" font-family="sans-serif" font-size="13" lengthAdjust="spacing" textLength="139.147" x="588.79" y="463.1877">0x00 = control (JSON)</text><text fill="#333333" font-family="sans-serif" font-size="13" lengthAdjust="spacing" textLength="177.4106" x="588.79" y="478.4983">0x01 = terminal (PTY bytes)</text><text fill="#333333" font-family="sans-serif" font-size="13" lengthAdjust="spacing" textLength="119.7739" x="588.79" y="493.8088">0x02 = TCP tunnel</text><text fill="#333333" font-family="sans-serif" font-size="13" lengthAdjust="spacing" textLength="153.6958" x="588.79" y="509.1194">0x03 = HTTP inspection</text></g><!--entity PSS--><g class="entity" data-qualified-name="PSS" data-source-line="65" id="ent0031"><path d="M582.62,952.5783 C582.62,942.5783 640.0033,942.5783 640.0033,942.5783 C640.0033,942.5783 697.3866,942.5783 697.3866,952.5783 L697.3866,994.5548 C697.3866,1004.5548 640.0033,1004.5548 640.0033,1004.5548 C640.0033,1004.5548 582.62,1004.5548 582.62,994.5548 L582.62,952.5783" fill="#F3F4F6" style="stroke:#D1D5DB;stroke-width:0.5;"/><path d="M582.62,952.5783 C582.62,962.5783 640.0033,962.5783 640.0033,962.5783 C640.0033,962.5783 697.3866,962.5783 697.3866,952.5783" fill="none" style="stroke:#D1D5DB;stroke-width:0.5;"/><text fill="#333333" font-family="sans-serif" font-size="14" lengthAdjust="spacing" textLength="94.7666" x="592.62" y="980.1134">PresenceStore</text><text fill="#333333" font-family="sans-serif" font-size="14" lengthAdjust="spacing" textLength="50.5449" x="592.62" y="996.6017">(server)</text></g><!--entity KQ--><g class="entity" data-qualified-name="KQ" data-source-line="66" id="ent0032"><path d="M741.81,952.5783 C741.81,942.5783 814.0034,942.5783 814.0034,942.5783 C814.0034,942.5783 886.1967,942.5783 886.1967,952.5783 L886.1967,994.5548 C886.1967,1004.5548 814.0034,1004.5548 814.0034,1004.5548 C814.0034,1004.5548 741.81,1004.5548 741.81,994.5548 L741.81,952.5783" fill="#F3F4F6" style="stroke:#D1D5DB;stroke-width:0.5;"/><path d="M741.81,952.5783 C741.81,962.5783 814.0034,962.5783 814.0034,962.5783 C814.0034,962.5783 886.1967,962.5783 886.1967,952.5783" fill="none" style="stroke:#D1D5DB;stroke-width:0.5;"/><text fill="#333333" font-family="sans-serif" font-size="14" lengthAdjust="spacing" textLength="115.2197" x="751.81" y="980.1134">Keystroke Queue</text><text fill="#333333" font-family="sans-serif" font-size="14" lengthAdjust="spacing" textLength="124.3867" x="751.81" y="996.6017">(TransferManager)</text></g><g class="entity" data-qualified-name="GMN35" data-source-line="72" id="ent0036"><path d="M585.58,778.8383 L585.58,850.0805 L794.4135,850.0805 L794.4135,788.8383 L784.4135,778.8383 L585.58,778.8383" fill="#F9FAFB" style="stroke:#D1D5DB;stroke-width:0.5;"/><path d="M784.4135,778.8383 L784.4135,788.8383 L794.4135,788.8383 L784.4135,778.8383" fill="#F9FAFB" style="stroke:#D1D5DB;stroke-width:1;"/><text fill="#333333" font-family="sans-serif" font-size="13" lengthAdjust="spacing" textLength="143.7617" x="591.58" y="796.4066">Lock never held across</text><text fill="#333333" font-family="sans-serif" font-size="13" lengthAdjust="spacing" textLength="180.54" x="591.58" y="811.7172">network I/O (TOCTOU-safe).</text><text fill="#333333" font-family="sans-serif" font-size="13" lengthAdjust="spacing" textLength="174.8208" x="591.58" y="827.0277">All hub methods are public;</text><text fill="#333333" font-family="sans-serif" font-size="13" lengthAdjust="spacing" textLength="187.8335" x="591.58" y="842.3383">private state: _lock, _workers.</text></g><!--link PTY to WP--><g class="link" data-entity-1="ent0003" data-entity-2="ent0005" data-link-type="dependency" data-source-line="41" id="lnk17"><path d="M434,141.6283 C434,170.1883 434,206.5283 434,235.1383" fill="none" id="PTY-to-WP" style="stroke:#2563EB;stroke-width:1;"/><polygon fill="#2563EB" points="434,241.1383,438,232.1383,434,236.1383,430,232.1383,434,241.1383" style="stroke:#2563EB;stroke-width:1;"/><text fill="#333333" font-family="sans-serif" font-size="13" lengthAdjust="spacing" textLength="60.3345" x="435" y="187.0366">raw bytes</text></g><!--link WP to WWS--><g class="link" data-entity-1="ent0005" data-entity-2="ent0007" data-link-type="dependency" data-source-line="42" id="lnk18"><path d="M434,304.6383 C434,340.1683 434,392.3683 434,428.0083" fill="none" id="WP-to-WWS" style="stroke:#2563EB;stroke-width:1;"/><polygon fill="#2563EB" points="434,434.0083,438,425.0083,434,429.0083,430,425.0083,434,434.0083" style="stroke:#2563EB;stroke-width:1;"/><text fill="#333333" font-family="sans-serif" font-size="13" font-weight="bold" lengthAdjust="spacing" textLength="155.3208" x="435" y="350.0066">control stream framing</text><text fill="#333333" font-family="sans-serif" font-size="13" lengthAdjust="spacing" textLength="147.8115" x="438.7546" y="365.3172">DLE(0x10) + STX(0x02)</text><text fill="#333333" font-family="sans-serif" font-size="13" lengthAdjust="spacing" textLength="141.4702" x="441.9253" y="380.6277">header before payload</text></g><!--link WWS to HUB--><g class="link" data-entity-1="ent0007" data-entity-2="ent0008" data-link-type="dependency" data-source-line="53" id="lnk22"><path d="M429.17,497.7583 C424.27,529.0383 417.6583,571.2805 412.7583,602.5705" fill="none" id="WWS-to-HUB" style="stroke:#2563EB;stroke-width:1;"/><polygon fill="#2563EB" points="411.83,608.4983,417.1743,600.2255,412.6036,603.5585,409.2706,598.9878,411.83,608.4983" style="stroke:#2563EB;stroke-width:1;"/><text fill="#333333" font-family="sans-serif" font-size="13" lengthAdjust="spacing" textLength="133.6309" x="428.0419" y="560.4266">authenticated frames</text><text fill="#333333" font-family="sans-serif" font-size="13" lengthAdjust="spacing" textLength="145.0947" x="422.31" y="575.7372">routed by channel byte</text></g><!--link HUB to DMX--><g class="link" data-entity-1="ent0008" data-entity-2="ent0009" data-link-type="dependency" data-source-line="54" id="lnk23"><path d="M408.61,672.1183 C410.24,703.3483 412.4474,745.4364 414.0774,776.6764" fill="none" id="HUB-to-DMX" style="stroke:#2563EB;stroke-width:1;"/><polygon fill="#2563EB" points="414.39,782.6683,417.9156,773.4721,414.1295,777.6751,409.9265,773.8889,414.39,782.6683" style="stroke:#2563EB;stroke-width:1;"/><text fill="#333333" font-family="sans-serif" font-size="13" lengthAdjust="spacing" textLength="106.7993" x="413.57" y="715.4066">presence_update</text><text fill="#333333" font-family="sans-serif" font-size="13" lengthAdjust="spacing" textLength="98.6807" x="417.6293" y="730.7172">control_request</text><text fill="#333333" font-family="sans-serif" font-size="13" lengthAdjust="spacing" textLength="100.5342" x="416.7026" y="746.0277">control_transfer</text></g><!--link HUB to BWS--><g class="link" data-entity-1="ent0008" data-entity-2="ent0010" data-link-type="dependency" data-source-line="55" id="lnk24"><path d="M310.23,652.3583 C231.88,666.9483 126.25,700.7283 74,778.8383 C56.39,805.1583 57.68,822.9483 74,850.0783 C105.36,902.1983 161.5063,931.3665 213.3063,949.1865" fill="none" id="HUB-to-BWS" style="stroke:#2563EB;stroke-width:1;"/><polygon fill="#2563EB" points="218.98,951.1383,211.7707,944.4281,214.252,949.5118,209.1683,951.993,218.98,951.1383" style="stroke:#2563EB;stroke-width:1;"/><text fill="#333333" font-family="sans-serif" font-size="13" lengthAdjust="spacing" textLength="187.4971" x="75" y="819.5266">terminal bytes &#8594; all browsers</text></g><!--link DMX to BWS--><g class="link" data-entity-1="ent0009" data-entity-2="ent0010" data-link-type="dependency" data-source-line="56" id="lnk25"><path d="M394.33,846.1183 C374.84,873.7183 349.8027,909.1583 330.2627,936.8083" fill="none" id="DMX-to-BWS" style="stroke:#2563EB;stroke-width:1;"/><polygon fill="#2563EB" points="326.8,941.7083,335.2607,936.6669,329.6856,937.625,328.7275,932.0499,326.8,941.7083" style="stroke:#2563EB;stroke-width:1;"/><text fill="#333333" font-family="sans-serif" font-size="13" lengthAdjust="spacing" textLength="122.4844" x="378.0396" y="893.6466">presence messages</text><text fill="#333333" font-family="sans-serif" font-size="13" lengthAdjust="spacing" textLength="142.2637" x="368.15" y="908.9572">(ride same WebSocket)</text></g><!--link BWS to XTERM--><g class="link" data-entity-1="ent0010" data-entity-2="ent0012" data-link-type="dependency" data-source-line="58" id="lnk26"><path d="M261.54,1005.2783 C251.19,1014.4383 241.11,1025.2383 234,1037.0583 C218.76,1062.3983 212.8379,1089.7914 209.9479,1113.7714" fill="none" id="BWS-to-XTERM" style="stroke:#2563EB;stroke-width:1;"/><polygon fill="#2563EB" points="209.23,1119.7283,214.2781,1111.2715,209.8283,1114.7642,206.3356,1110.3143,209.23,1119.7283" style="stroke:#2563EB;stroke-width:1;"/><text fill="#333333" font-family="sans-serif" font-size="13" lengthAdjust="spacing" textLength="90.1431" x="237.0503" y="1050.6266">terminal bytes</text><text fill="#333333" font-family="sans-serif" font-size="13" lengthAdjust="spacing" textLength="94.2437" x="235" y="1065.9372">(channel 0x01)</text></g><!--link BWS to DMTS--><g class="link" data-entity-1="ent0010" data-entity-2="ent0013" data-link-type="dependency" data-source-line="59" id="lnk27"><path d="M319.98,1005.2183 C335.67,1037.3183 357.5357,1082.0675 373.2657,1114.2575" fill="none" id="BWS-to-DMTS" style="stroke:#2563EB;stroke-width:1;"/><polygon fill="#2563EB" points="375.9,1119.6483,375.5425,1109.8059,373.7048,1115.156,368.3547,1113.3183,375.9,1119.6483" style="stroke:#2563EB;stroke-width:1;"/><text fill="#333333" font-family="sans-serif" font-size="13" lengthAdjust="spacing" textLength="91.4443" x="377.3547" y="1050.6266">presence JSON</text><text fill="#333333" font-family="sans-serif" font-size="13" lengthAdjust="spacing" textLength="142.9937" x="351.58" y="1065.9372">(channel 0x00 control)</text></g><!--link DMTS to BAR--><g class="link" data-entity-1="ent0013" data-entity-2="ent0014" data-link-type="dependency" data-source-line="61" id="lnk28"><path d="M320.78,1179.2083 C286.86,1192.5683 252.15,1207.1283 246,1213.0283 C228.63,1229.7183 219.4593,1249.0802 212.9193,1268.9102" fill="none" id="DMTS-to-BAR" style="stroke:#2563EB;stroke-width:1;"/><polygon fill="#2563EB" points="211.04,1274.6083,217.6576,1267.314,212.606,1269.8599,210.0601,1264.8083,211.04,1274.6083" style="stroke:#2563EB;stroke-width:1;"/><text fill="#333333" font-family="sans-serif" font-size="13" lengthAdjust="spacing" textLength="73.3345" x="268.106" y="1226.5966">avatar state</text><text fill="#333333" font-family="sans-serif" font-size="13" lengthAdjust="spacing" textLength="115.5464" x="247" y="1241.9072">(name, color, role)</text></g><!--link DMTS to EDGE--><g class="link" data-entity-1="ent0013" data-entity-2="ent0015" data-link-type="dependency" data-source-line="62" id="lnk29"><path d="M379.29,1183.5083 C376.3,1192.8583 373.5,1203.2383 372,1213.0283 C368.85,1233.5483 370.7853,1250.8141 374.8253,1268.8041" fill="none" id="DMTS-to-EDGE" style="stroke:#2563EB;stroke-width:1;"/><polygon fill="#2563EB" points="376.14,1274.6583,378.0708,1265.0005,375.0444,1269.7798,370.2652,1266.7534,376.14,1274.6583" style="stroke:#2563EB;stroke-width:1;"/><text fill="#333333" font-family="sans-serif" font-size="13" lengthAdjust="spacing" textLength="116.0605" x="379.0271" y="1226.5966">viewport positions</text><text fill="#333333" font-family="sans-serif" font-size="13" lengthAdjust="spacing" textLength="128.1147" x="373" y="1241.9072">(scroll_line per user)</text></g><!--link DMTS to OVERLAY--><g class="link" data-entity-1="ent0013" data-entity-2="ent0016" data-link-type="dependency" data-source-line="63" id="lnk30"><path d="M461.37,1182.6883 C477.01,1191.1883 492.83,1201.3683 506,1213.0283 C525.73,1230.5083 539.4218,1250.0985 550.8218,1269.5985" fill="none" id="DMTS-to-OVERLAY" style="stroke:#2563EB;stroke-width:1;"/><polygon fill="#2563EB" points="553.85,1274.7783,552.7609,1264.9898,551.3265,1270.4618,545.8545,1269.0274,553.85,1274.7783" style="stroke:#2563EB;stroke-width:1;"/><text fill="#333333" font-family="sans-serif" font-size="13" lengthAdjust="spacing" textLength="101.8037" x="533.7798" y="1226.5966">pins, selections,</text><text fill="#333333" font-family="sans-serif" font-size="13" lengthAdjust="spacing" textLength="101.9434" x="533.71" y="1241.9072">cursor positions</text></g><!--link DMX to PSS--><g class="link" data-entity-1="ent0009" data-entity-2="ent0031" data-link-type="dependency" data-source-line="68" id="lnk33"><path d="M467.42,846.4283 C484.09,856.7983 502.52,868.6483 519,880.0783 C547.57,899.8983 573.9945,920.0483 597.5345,938.5683" fill="none" id="DMX-to-PSS" style="stroke:#2563EB;stroke-width:1;"/><polygon fill="#2563EB" points="602.25,942.2783,597.65,933.5697,598.3204,939.1867,592.7034,939.8571,602.25,942.2783" style="stroke:#2563EB;stroke-width:1;"/><text fill="#333333" font-family="sans-serif" font-size="13" lengthAdjust="spacing" textLength="141.4829" x="564.04" y="901.1466">store / sync user state</text></g><!--link DMX to KQ--><g class="link" data-entity-1="ent0009" data-entity-2="ent0032" data-link-type="dependency" data-source-line="69" id="lnk34"><path d="M551.06,846.3783 C556.78,847.6383 562.45,848.8783 568,850.0783 C632.74,864.0983 655.07,849.8083 714,880.0783 C743.45,895.2083 766.5936,916.9819 785.1436,937.6619" fill="none" id="DMX-to-KQ" style="stroke:#2563EB;stroke-width:1;"/><polygon fill="#2563EB" points="789.15,942.1283,786.118,932.7577,785.8113,938.4063,780.1628,938.0996,789.15,942.1283" style="stroke:#2563EB;stroke-width:1;"/><text fill="#333333" font-family="sans-serif" font-size="13" lengthAdjust="spacing" textLength="110.3794" x="773.6713" y="893.6466">buffer keystrokes</text><text fill="#333333" font-family="sans-serif" font-size="13" lengthAdjust="spacing" textLength="142.562" x="757.58" y="908.9572">during idle countdown</text></g><!--link HUB to GMN35--><g class="link" data-entity-1="ent0008" data-entity-2="ent0036" data-link-type="association" data-source-line="72" id="lnk37"><path d="M473.78,672.2683 C491.98,681.2883 511.49,691.4983 529,701.8383 C568.83,725.3483 611.78,755.3783 643.29,778.3683" fill="none" id="HUB-GMN35" style="stroke:#2563EB;stroke-width:1;stroke-dasharray:7,7;"/></g><?plantuml-src XLLTJ-j647tthnZHbuJoUUczKgbQYK1kuG9DmBuDLLEXjJqcRfnTtzqr8QegzQa_eEellB-aPzUECT2MFCMxPsREp9oPjRajc2gPShPjMIzoAGhw_CVVT2AieFU5Mb8qqwgwcv6TCOKhOtaH16QUor9eiQ1O9FCx06Hwh0gbwOlC_pe8k1PLOTyhQHl8WVzr849hjMmktxnzTy1nvp9HYr99bdQWTCgwWQNxwTlqts4l61raNsNlEb2fBF-_CuzuuUVhJ6HTL0c4k7l5rHhqUfrGyLYOLzorgF_8CcZYqSOrBv05xTA5Ij3KiLO96xD1lmL4Fu-Zdt0JphWefZ8CJ_4HSI7P_aB246w3tpkk9ahFMLFl-E8CmCe9XSnCQEutxXf04sCgUyyKbIWfER5Azxt_oVY9-v3rlNCV0NvQnS-SJZWELJ9dEvKn8wOcg-OiILHsLdkRX0xUM0EbbRFxaWouv4gIiSAoXvv-73Ze2IVpo-g1BlE7N4xbMBDXcN08WWoxI0jfCjQNGeAVzfOdbpVESW2XcgUaFamYqWfJr18QW50tlyQeIUl1LMNdLrIfBOzcb4itaMwYuVLbX-LKHY4A25K02uODdSWdlQPE0w6dKjn37TeWXSI9mjHiZguTSfY2ofbCyyGvGNI4pXUYn0GtmE79zqE7FAwqWQ96w4aXLbDPvjBuQXPe8UfPeqS_3gylZhnEd9Ysjxz3M-cGj5XIlB9i0dpwqqc8uyrDQC2YJkY6PWWvWvfpURUvEPKd5yFUtiF-NXzHmkW6__VUzATonW9LePWprvPIh0ebqY1miqawlvjPKbdJ_05AerUKp0HqLXYSz6pb_bAfbLMeHlyGXt2yHz_IcadlGpZweL-Vx-EyxKVFPUIJQ6xVu3Ow7bFjj3uxmDbf58q9vIdhoWJeezyTGU2oTjb3SSZUIGEhoTMUKvywemCON_SPjyHzpC2PE5D83gPbq-7RgiJiyrGsx6yrVwhOsCS3syYsTJ3mbM-pyWdHvp__8b7WgnQb2LoOH_Gw786XWNhTCEiyPJBW_2ZxVX0CcWozNb_4WTawALVTVWjtokt6SJru2jvRDmX1FDgpExfsTVG2hmSQHXASjcgjR_aPx3yQE3N3uZxdPQcqfLAPtAiNTYO1kBWjSWbTGM8L2j4nRQJjMAAtMntbRw7QzNIqxe9WlP9fuyaYSN7yOiC-Spir33l8SyPBwlOKNLLSEUopfLCRdLy5RN_W08oCtr6xP5OoyRphOhIeyok0uYg39vglWo3djDAODifJBAe4puPDrL8smnGhQzN2JLEz7_5Wp4cosybu858IA9TnGuNtOOcbJ6Ux8sphqN4q-hXjHCRz7LmUGLIpAePmx4ob1eywYbl5HPvyWzjIv-WTrsmFwRP0Z2swNVeTRtOU9-SV?></g></svg>