<?plantuml 1.2026.2?><svg xmlns="http://www.w3.org/2000/svg" xmlns:xlink="http://www.w3.org/1999/xlink" contentStyleType="text/css" data-diagram-type="DESCRIPTION" height="969px" preserveAspectRatio="none" style="width:1691px;height:969px;background:#FFFFFF;" version="1.1" viewBox="0 0 1691 969" width="1691px" zoomAndPan="magnify"><title>undef-terminal &#8212; Ecosystem Overview</title><defs/><g><g class="title" data-source-line="4"><text fill="#333333" font-family="sans-serif" font-size="14" font-weight="bold" lengthAdjust="spacing" textLength="282.5908" x="697.2552" y="23.5352">undef-terminal &#8212; Ecosystem Overview</text></g><!--cluster Server--><g class="cluster" data-qualified-name="Server" data-source-line="30" id="ent0008"><path d="M14.61,311.4483 L61.0485,311.4483 A3.75,3.75 0 0 1 63.5485,313.9483 L70.5485,333.9366 L773.61,333.9366 A2.5,2.5 0 0 1 776.11,336.4366 L776.11,697.8983 A2.5,2.5 0 0 1 773.61,700.3983 L14.61,700.3983 A2.5,2.5 0 0 1 12.11,697.8983 L12.11,313.9483 A2.5,2.5 0 0 1 14.61,311.4483" fill="#FFFFFF" style="stroke:#D1D5DB;stroke-width:1.5;"/><line style="stroke:#D1D5DB;stroke-width:1.5;" x1="12.11" x2="70.5485" y1="333.9366" y2="333.9366"/><text fill="#333333" font-family="sans-serif" font-size="14" font-weight="bold" lengthAdjust="spacing" textLength="45.4385" x="16.11" y="326.9834">Server</text></g><!--cluster FASTAPI--><g class="cluster" data-qualified-name="Server.FASTAPI" data-source-line="31" id="ent0009"><path d="M375.61,354.4483 L555.9577,354.4483 A3.75,3.75 0 0 1 558.4577,356.9483 L565.4577,376.9366 L749.61,376.9366 A2.5,2.5 0 0 1 752.11,379.4366 L752.11,657.8983 A2.5,2.5 0 0 1 749.61,660.3983 L375.61,660.3983 A2.5,2.5 0 0 1 373.11,657.8983 L373.11,356.9483 A2.5,2.5 0 0 1 375.61,354.4483" fill="#FFFFFF" style="stroke:#D1D5DB;stroke-width:1.5;"/><line style="stroke:#D1D5DB;stroke-width:1.5;" x1="373.11" x2="565.4577" y1="376.9366" y2="376.9366"/><text fill="#333333" font-family="sans-serif" font-size="14" font-weight="bold" lengthAdjust="spacing" textLength="179.3477" x="377.11" y="369.9834">undef-terminal (FastAPI)</text></g><!--cluster CF--><g class="cluster" data-qualified-name="Server.CF" data-source-line="36" id="ent0013"><path d="M46.61,538.4283 L329.0866,538.4283 A3.75,3.75 0 0 1 331.5866,540.9283 L338.5866,560.9166 L338.61,560.9166 A2.5,2.5 0 0 1 341.11,563.4166 L341.11,665.8983 A2.5,2.5 0 0 1 338.61,668.3983 L46.61,668.3983 A2.5,2.5 0 0 1 44.11,665.8983 L44.11,540.9283 A2.5,2.5 0 0 1 46.61,538.4283" fill="#FFFFFF" style="stroke:#D1D5DB;stroke-width:1.5;"/><line style="stroke:#D1D5DB;stroke-width:1.5;" x1="44.11" x2="338.5866" y1="560.9166" y2="560.9166"/><text fill="#333333" font-family="sans-serif" font-size="14" font-weight="bold" lengthAdjust="spacing" textLength="281.4766" x="48.11" y="553.9634">undef-terminal-cloudflare (CF Worker)</text></g><!--cluster Python Ecosystem--><g class="cluster" data-qualified-name="Python Ecosystem" data-source-line="41" id="ent0015"><path d="M172.61,733.3983 L304.2243,733.3983 A3.75,3.75 0 0 1 306.7243,735.8983 L313.7243,755.8866 L1274.61,755.8866 A2.5,2.5 0 0 1 1277.11,758.3866 L1277.11,959.8783 A2.5,2.5 0 0 1 1274.61,962.3783 L172.61,962.3783 A2.5,2.5 0 0 1 170.11,959.8783 L170.11,735.8983 A2.5,2.5 0 0 1 172.61,733.3983" fill="#FFFFFF" style="stroke:#D1D5DB;stroke-width:1.5;"/><line style="stroke:#D1D5DB;stroke-width:1.5;" x1="170.11" x2="313.7243" y1="755.8866" y2="755.8866"/><text fill="#333333" font-family="sans-serif" font-size="14" font-weight="bold" lengthAdjust="spacing" textLength="130.6143" x="174.11" y="748.9334">Python Ecosystem</text></g><!--cluster PKG_DM--><g class="cluster" data-qualified-name="Python Ecosystem.PKG_DM" data-source-line="42" id="ent0016"><path d="M204.61,792.6483 L390.3444,792.6483 A3.75,3.75 0 0 1 392.8444,795.1483 L399.8444,831.6248 L763.61,831.6248 A2.5,2.5 0 0 1 766.11,834.1248 L766.11,919.6383 A2.5,2.5 0 0 1 763.61,922.1383 L204.61,922.1383 A2.5,2.5 0 0 1 202.11,919.6383 L202.11,795.1483 A2.5,2.5 0 0 1 204.61,792.6483" fill="#FFFFFF" style="stroke:#D1D5DB;stroke-width:1.5;"/><line style="stroke:#D1D5DB;stroke-width:1.5;" x1="202.11" x2="399.8444" y1="831.6248" y2="831.6248"/><text fill="#333333" font-family="sans-serif" font-size="14" font-weight="bold" lengthAdjust="spacing" textLength="184.7344" x="206.11" y="808.1834">undef-terminal-deckmux</text><text fill="#333333" font-family="sans-serif" font-size="14" font-weight="bold" lengthAdjust="spacing" textLength="81.4434" x="257.7555" y="824.6717">(zero deps)</text></g><!--cluster PKG_R--><g class="cluster" data-qualified-name="Python Ecosystem.PKG_R" data-source-line="47" id="ent0020"><path d="M808.61,784.3983 L977.1178,784.3983 A3.75,3.75 0 0 1 979.6178,786.8983 L986.6178,823.3748 L1012.61,823.3748 A2.5,2.5 0 0 1 1015.11,825.8748 L1015.11,927.8783 A2.5,2.5 0 0 1 1012.61,930.3783 L808.61,930.3783 A2.5,2.5 0 0 1 806.11,927.8783 L806.11,786.8983 A2.5,2.5 0 0 1 808.61,784.3983" fill="#FFFFFF" style="stroke:#D1D5DB;stroke-width:1.5;"/><line style="stroke:#D1D5DB;stroke-width:1.5;" x1="806.11" x2="986.6178" y1="823.3748" y2="823.3748"/><text fill="#333333" font-family="sans-serif" font-size="14" font-weight="bold" lengthAdjust="spacing" textLength="167.5078" x="810.11" y="799.9334">undef-terminal-render</text><text fill="#333333" font-family="sans-serif" font-size="14" font-weight="bold" lengthAdjust="spacing" textLength="81.4434" x="853.1422" y="816.4217">(zero deps)</text></g><!--cluster PKG_SH--><g class="cluster" data-qualified-name="Python Ecosystem.PKG_SH" data-source-line="50" id="ent0022"><path d="M1057.61,784.3983 L1212.9313,784.3983 A3.75,3.75 0 0 1 1215.4313,786.8983 L1222.4313,823.3748 L1242.61,823.3748 A2.5,2.5 0 0 1 1245.11,825.8748 L1245.11,927.8783 A2.5,2.5 0 0 1 1242.61,930.3783 L1057.61,930.3783 A2.5,2.5 0 0 1 1055.11,927.8783 L1055.11,786.8983 A2.5,2.5 0 0 1 1057.61,784.3983" fill="#FFFFFF" style="stroke:#D1D5DB;stroke-width:1.5;"/><line style="stroke:#D1D5DB;stroke-width:1.5;" x1="1055.11" x2="1222.4313" y1="823.3748" y2="823.3748"/><text fill="#333333" font-family="sans-serif" font-size="14" font-weight="bold" lengthAdjust="spacing" textLength="154.3213" x="1059.11" y="799.9334">undef-terminal-shell</text><text fill="#333333" font-family="sans-serif" font-size="14" font-weight="bold" lengthAdjust="spacing" textLength="81.4434" x="1095.549" y="816.4217">(zero deps)</text></g><!--cluster Remote Hosts--><g class="cluster" data-qualified-name="Remote Hosts" data-source-line="55" id="ent0024"><path d="M1073.211,558.4556 C1079.8915,542.626 1092.4709,539.8929 1102.6659,555.1228 C1111.7698,541.5509 1120.0844,543.3769 1128.3573,555.9397 C1136.4087,540.6947 1151.4911,540.5359 1160.3267,555.0985 C1168.1041,539.5919 1181.2399,538.9989 1190.4545,553.6634 C1195.2418,538.2 1208.3535,538.1039 1216.9766,549.9364 C1226.0485,535.2685 1238.0508,538.6475 1246.0324,551.1044 C1251.6139,536.8489 1263.8402,533.6251 1274.2357,546.0076 C1286.3232,531.5279 1299.9223,535.7744 1306.6462,551.7209 C1312.6118,537.6688 1326.3627,535.9523 1334.9488,548.9823 C1343.9058,533.6985 1358.398,536.7069 1365.2642,551.1168 C1377.2492,537.8075 1386.2373,541.4619 1393.6231,555.8294 C1401.1034,543.5768 1412.7012,543.9064 1419.0586,556.9581 C1428.3145,542.8084 1438.15,538.6233 1450.2162,553.9918 C1463.1671,541.2021 1477.2312,542.936 1483.11,561.4283 C1485.5227,560.1879 1487.6386,561.3899 1487.4054,564.2202 C1509.9143,578.966 1506.7586,592.7516 1488.0158,608.0716 C1508.1078,625.9014 1498.114,645.8751 1476.11,652.3983 C1478.5205,651.1493 1479.8899,652.8706 1479.7778,655.0764 C1469.4884,668.6955 1460.7996,668.5017 1451.2627,654.3048 C1442.4712,671.5115 1429.8791,671.3637 1420.1603,655.1682 C1412.735,670.5087 1401.5011,671.0431 1390.7908,658.6465 C1383.6882,670.7084 1372.3777,674.4691 1363.6532,660.3261 C1354.816,674.0274 1342.9468,671.3298 1335.7619,658.5837 C1327.5081,675.582 1313.8177,671.9845 1305.0594,659.1022 C1298.528,670.7179 1286.0725,673.7606 1277.7615,661.1036 C1267.5376,675.092 1258.3149,673.2718 1248.3486,660.817 C1236.5116,676.715 1225.4451,673.9155 1215.7081,658.6196 C1209.0949,673.1522 1196.5991,673.4941 1188.3825,660.1939 C1180.1121,671.6704 1167.1666,673.5175 1159.8164,659.1758 C1151.0353,670.4425 1137.5792,672.7365 1130.6423,657.1707 C1120.7402,671.0611 1108.6354,667.6696 1100.9133,654.7531 C1086.3829,671.0673 1069.2334,663.0579 1063.11,645.3983 C1064.7207,643.076 1067.0114,643.0608 1068.5529,645.4778 C1046.7773,642.5029 1037.2018,626.0191 1052.9965,607.61 C1030.3147,584.9638 1040.01,560.0896 1070.11,554.4283 C1072.9712,554.0869 1074.2389,555.8024 1073.211,558.4556" fill="#FFFFFF" style="stroke:#D1D5DB;stroke-width:1;"/><text fill="#333333" font-family="sans-serif" font-size="14" font-weight="bold" lengthAdjust="spacing" textLength="100.2422" x="1222.9889" y="572.9634">Remote Hosts</text></g><!--entity HUB--><g class="entity" data-qualified-name="Server.FASTAPI.HUB" data-source-line="32" id="ent0010"><rect fill="#F3F4F6" height="62.9766" rx="2.5" ry="2.5" style="stroke:#D1D5DB;stroke-width:0.5;" width="146.6953" x="589.76" y="389.4483"/><rect fill="#F3F4F6" height="10" style="stroke:#D1D5DB;stroke-width:0.5;" width="15" x="716.4553" y="394.4483"/><rect fill="#F3F4F6" height="2" style="stroke:#D1D5DB;stroke-width:0.5;" width="4" x="714.4553" y="396.4483"/><rect fill="#F3F4F6" height="2" style="stroke:#D1D5DB;stroke-width:0.5;" width="4" x="714.4553" y="400.4483"/><text fill="#333333" font-family="sans-serif" font-size="14" lengthAdjust="spacing" textLength="63.2393" x="604.76" y="422.9834">TermHub</text><text fill="#333333" font-family="sans-serif" font-size="14" lengthAdjust="spacing" textLength="106.6953" x="604.76" y="439.4717">session registry</text></g><!--entity DM--><g class="entity" data-qualified-name="Server.FASTAPI.DM" data-source-line="33" id="ent0011"><rect fill="#F3F4F6" height="62.9766" rx="2.5" ry="2.5" style="stroke:#D1D5DB;stroke-width:0.5;" width="168.9941" x="388.61" y="581.4283"/><rect fill="#F3F4F6" height="10" style="stroke:#D1D5DB;stroke-width:0.5;" width="15" x="537.6041" y="586.4283"/><rect fill="#F3F4F6" height="2" style="stroke:#D1D5DB;stroke-width:0.5;" width="4" x="535.6041" y="588.4283"/><rect fill="#F3F4F6" height="2" style="stroke:#D1D5DB;stroke-width:0.5;" width="4" x="535.6041" y="592.4283"/><text fill="#333333" font-family="sans-serif" font-size="14" lengthAdjust="spacing" textLength="104.8291" x="403.61" y="614.9634">DeckMux Mixin</text><text fill="#333333" font-family="sans-serif" font-size="14" lengthAdjust="spacing" textLength="128.9941" x="403.61" y="631.4517">presence + control</text></g><!--entity TUN--><g class="entity" data-qualified-name="Server.FASTAPI.TUN" data-source-line="34" id="ent0012"><rect fill="#F3F4F6" height="62.9766" rx="2.5" ry="2.5" style="stroke:#D1D5DB;stroke-width:0.5;" width="143.5439" x="592.34" y="581.4283"/><rect fill="#F3F4F6" height="10" style="stroke:#D1D5DB;stroke-width:0.5;" width="15" x="715.8839" y="586.4283"/><rect fill="#F3F4F6" height="2" style="stroke:#D1D5DB;stroke-width:0.5;" width="4" x="713.8839" y="588.4283"/><rect fill="#F3F4F6" height="2" style="stroke:#D1D5DB;stroke-width:0.5;" width="4" x="713.8839" y="592.4283"/><text fill="#333333" font-family="sans-serif" font-size="14" lengthAdjust="spacing" textLength="100.4541" x="607.34" y="614.9634">Tunnel / Share</text><text fill="#333333" font-family="sans-serif" font-size="14" lengthAdjust="spacing" textLength="103.5439" x="607.34" y="631.4517">binary protocol</text></g><!--entity DO--><g class="entity" data-qualified-name="Server.CF.DO" data-source-line="37" id="ent0014"><rect fill="#F3F4F6" height="62.9766" rx="2.5" ry="2.5" style="stroke:#D1D5DB;stroke-width:0.5;" width="147.3311" x="109.44" y="581.4283"/><rect fill="#F3F4F6" height="10" style="stroke:#D1D5DB;stroke-width:0.5;" width="15" x="236.7711" y="586.4283"/><rect fill="#F3F4F6" height="2" style="stroke:#D1D5DB;stroke-width:0.5;" width="4" x="234.7711" y="588.4283"/><rect fill="#F3F4F6" height="2" style="stroke:#D1D5DB;stroke-width:0.5;" width="4" x="234.7711" y="592.4283"/><text fill="#333333" font-family="sans-serif" font-size="14" lengthAdjust="spacing" textLength="101.876" x="124.44" y="614.9634">Durable Object</text><text fill="#333333" font-family="sans-serif" font-size="14" lengthAdjust="spacing" textLength="107.3311" x="124.44" y="631.4517">SessionRuntime</text></g><!--entity PS--><g class="entity" data-qualified-name="Python Ecosystem.PKG_DM.PS" data-source-line="43" id="ent0017"><rect fill="#F3F4F6" height="46.4883" rx="2.5" ry="2.5" style="stroke:#D1D5DB;stroke-width:0.5;" width="134.7666" x="225.73" y="851.6483"/><rect fill="#F3F4F6" height="10" style="stroke:#D1D5DB;stroke-width:0.5;" width="15" x="340.4966" y="856.6483"/><rect fill="#F3F4F6" height="2" style="stroke:#D1D5DB;stroke-width:0.5;" width="4" x="338.4966" y="858.6483"/><rect fill="#F3F4F6" height="2" style="stroke:#D1D5DB;stroke-width:0.5;" width="4" x="338.4966" y="862.6483"/><text fill="#333333" font-family="sans-serif" font-size="14" lengthAdjust="spacing" textLength="94.7666" x="240.73" y="885.1834">PresenceStore</text></g><!--entity TM--><g class="entity" data-qualified-name="Python Ecosystem.PKG_DM.TM" data-source-line="44" id="ent0018"><rect fill="#F3F4F6" height="46.4883" rx="2.5" ry="2.5" style="stroke:#D1D5DB;stroke-width:0.5;" width="155.2813" x="395.47" y="851.6483"/><rect fill="#F3F4F6" height="10" style="stroke:#D1D5DB;stroke-width:0.5;" width="15" x="530.7513" y="856.6483"/><rect fill="#F3F4F6" height="2" style="stroke:#D1D5DB;stroke-width:0.5;" width="4" x="528.7513" y="858.6483"/><rect fill="#F3F4F6" height="2" style="stroke:#D1D5DB;stroke-width:0.5;" width="4" x="528.7513" y="862.6483"/><text fill="#333333" font-family="sans-serif" font-size="14" lengthAdjust="spacing" textLength="115.2813" x="410.47" y="885.1834">TransferManager</text></g><!--entity PT--><g class="entity" data-qualified-name="Python Ecosystem.PKG_DM.PT" data-source-line="45" id="ent0019"><rect fill="#F3F4F6" height="46.4883" rx="2.5" ry="2.5" style="stroke:#D1D5DB;stroke-width:0.5;" width="136.4482" x="585.89" y="851.6483"/><rect fill="#F3F4F6" height="10" style="stroke:#D1D5DB;stroke-width:0.5;" width="15" x="702.3382" y="856.6483"/><rect fill="#F3F4F6" height="2" style="stroke:#D1D5DB;stroke-width:0.5;" width="4" x="700.3382" y="858.6483"/><rect fill="#F3F4F6" height="2" style="stroke:#D1D5DB;stroke-width:0.5;" width="4" x="700.3382" y="862.6483"/><text fill="#333333" font-family="sans-serif" font-size="14" lengthAdjust="spacing" textLength="96.4482" x="600.89" y="885.1834">Protocol types</text></g><!--entity ANSI--><g class="entity" data-qualified-name="Python Ecosystem.PKG_R.ANSI" data-source-line="48" id="ent0021"><rect fill="#F3F4F6" height="62.9766" rx="2.5" ry="2.5" style="stroke:#D1D5DB;stroke-width:0.5;" width="141.1855" x="830.52" y="843.3983"/><rect fill="#F3F4F6" height="10" style="stroke:#D1D5DB;stroke-width:0.5;" width="15" x="951.7055" y="848.3983"/><rect fill="#F3F4F6" height="2" style="stroke:#D1D5DB;stroke-width:0.5;" width="4" x="949.7055" y="850.3983"/><rect fill="#F3F4F6" height="2" style="stroke:#D1D5DB;stroke-width:0.5;" width="4" x="949.7055" y="854.3983"/><text fill="#333333" font-family="sans-serif" font-size="14" lengthAdjust="spacing" textLength="82.667" x="845.52" y="876.9334">ANSI palette</text><text fill="#333333" font-family="sans-serif" font-size="14" lengthAdjust="spacing" textLength="101.1855" x="845.52" y="893.4217">&amp; SGR emitters</text></g><!--entity USHELL--><g class="entity" data-qualified-name="Python Ecosystem.PKG_SH.USHELL" data-source-line="51" id="ent0023"><rect fill="#F3F4F6" height="62.9766" rx="2.5" ry="2.5" style="stroke:#D1D5DB;stroke-width:0.5;" width="122.3389" x="1078.94" y="843.3983"/><rect fill="#F3F4F6" height="10" style="stroke:#D1D5DB;stroke-width:0.5;" width="15" x="1181.2789" y="848.3983"/><rect fill="#F3F4F6" height="2" style="stroke:#D1D5DB;stroke-width:0.5;" width="4" x="1179.2789" y="850.3983"/><rect fill="#F3F4F6" height="2" style="stroke:#D1D5DB;stroke-width:0.5;" width="4" x="1179.2789" y="854.3983"/><text fill="#333333" font-family="sans-serif" font-size="14" lengthAdjust="spacing" textLength="82.3389" x="1093.94" y="876.9334">Python REPL</text><text fill="#333333" font-family="sans-serif" font-size="14" lengthAdjust="spacing" textLength="40.4072" x="1093.94" y="893.4217">ushell</text></g><!--entity SSH--><g class="entity" data-qualified-name="Remote Hosts.SSH" data-source-line="56" id="ent0025"><rect fill="#F3F4F6" height="46.4883" rx="2.5" ry="2.5" style="stroke:#D1D5DB;stroke-width:0.5;" width="111.2373" x="1071.49" y="589.6683"/><rect fill="#F3F4F6" height="10" style="stroke:#D1D5DB;stroke-width:0.5;" width="15" x="1162.7273" y="594.6683"/><rect fill="#F3F4F6" height="2" style="stroke:#D1D5DB;stroke-width:0.5;" width="4" x="1160.7273" y="596.6683"/><rect fill="#F3F4F6" height="2" style="stroke:#D1D5DB;stroke-width:0.5;" width="4" x="1160.7273" y="600.6683"/><text fill="#333333" font-family="sans-serif" font-size="14" lengthAdjust="spacing" textLength="71.2373" x="1086.49" y="623.2034">SSH server</text></g><!--entity TEL--><g class="entity" data-qualified-name="Remote Hosts.TEL" data-source-line="57" id="ent0026"><rect fill="#F3F4F6" height="46.4883" rx="2.5" ry="2.5" style="stroke:#D1D5DB;stroke-width:0.5;" width="110.499" x="1217.86" y="589.6683"/><rect fill="#F3F4F6" height="10" style="stroke:#D1D5DB;stroke-width:0.5;" width="15" x="1308.359" y="594.6683"/><rect fill="#F3F4F6" height="2" style="stroke:#D1D5DB;stroke-width:0.5;" width="4" x="1306.359" y="596.6683"/><rect fill="#F3F4F6" height="2" style="stroke:#D1D5DB;stroke-width:0.5;" width="4" x="1306.359" y="600.6683"/><text fill="#333333" font-family="sans-serif" font-size="14" lengthAdjust="spacing" textLength="70.499" x="1232.86" y="623.2034">Telnet BBS</text></g><!--entity SH--><g class="entity" data-qualified-name="Remote Hosts.SH" data-source-line="58" id="ent0027"><rect fill="#F3F4F6" height="62.9766" rx="2.5" ry="2.5" style="stroke:#D1D5DB;stroke-width:0.5;" width="111.1621" x="1363.53" y="581.4283"/><rect fill="#F3F4F6" height="10" style="stroke:#D1D5DB;stroke-width:0.5;" width="15" x="1454.6921" y="586.4283"/><rect fill="#F3F4F6" height="2" style="stroke:#D1D5DB;stroke-width:0.5;" width="4" x="1452.6921" y="588.4283"/><rect fill="#F3F4F6" height="2" style="stroke:#D1D5DB;stroke-width:0.5;" width="4" x="1452.6921" y="592.4283"/><text fill="#333333" font-family="sans-serif" font-size="14" lengthAdjust="spacing" textLength="71.1621" x="1378.53" y="614.9634">Local shell</text><text fill="#333333" font-family="sans-serif" font-size="14" lengthAdjust="spacing" textLength="34.4189" x="1378.53" y="631.4517">(PTY)</text></g><!--entity Tim--><g class="entity" data-qualified-name="Tim" data-source-line="22" id="ent0002"><ellipse cx="540.1144" cy="51.4883" fill="#F9FAFB" rx="8" ry="8" style="stroke:#6B7280;stroke-width:0.5;"/><path d="M540.1144,59.4883 L540.1144,86.4883 M527.1144,67.4883 L553.1144,67.4883 M540.1144,86.4883 L527.1144,101.4883 M540.1144,86.4883 L553.1144,101.4883" fill="none" style="stroke:#6B7280;stroke-width:0.5;"/><text fill="#333333" font-family="sans-serif" font-size="14" lengthAdjust="spacing" textLength="25.9697" x="484.88" y="116.5234">Tim</text><text fill="#333333" font-family="sans-serif" font-size="14" lengthAdjust="spacing" textLength="110.4688" x="484.88" y="133.0117">(admin / sharer)</text></g><!--entity Jane--><g class="entity" data-qualified-name="Jane" data-source-line="23" id="ent0003"><ellipse cx="664.1104" cy="51.4883" fill="#F9FAFB" rx="8" ry="8" style="stroke:#6B7280;stroke-width:0.5;"/><path d="M664.1104,59.4883 L664.1104,86.4883 M651.1104,67.4883 L677.1104,67.4883 M664.1104,86.4883 L651.1104,101.4883 M664.1104,86.4883 L677.1104,101.4883" fill="none" style="stroke:#6B7280;stroke-width:0.5;"/><text fill="#333333" font-family="sans-serif" font-size="14" lengthAdjust="spacing" textLength="28.5742" x="630.44" y="116.5234">Jane</text><text fill="#333333" font-family="sans-serif" font-size="14" lengthAdjust="spacing" textLength="67.3408" x="630.44" y="133.0117">(operator)</text></g><!--entity RH--><g class="entity" data-qualified-name="RH" data-source-line="24" id="ent0004"><ellipse cx="795.1114" cy="51.4883" fill="#F9FAFB" rx="8" ry="8" style="stroke:#6B7280;stroke-width:0.5;"/><path d="M795.1114,59.4883 L795.1114,86.4883 M782.1114,67.4883 L808.1114,67.4883 M795.1114,86.4883 L782.1114,101.4883 M795.1114,86.4883 L808.1114,101.4883" fill="none" style="stroke:#6B7280;stroke-width:0.5;"/><text fill="#333333" font-family="sans-serif" font-size="14" lengthAdjust="spacing" textLength="66.8828" x="761.67" y="116.5234">Red Hawk</text><text fill="#333333" font-family="sans-serif" font-size="14" lengthAdjust="spacing" textLength="52.5137" x="761.67" y="133.0117">(viewer)</text></g><!--entity B1--><g class="entity" data-qualified-name="B1" data-source-line="26" id="ent0005"><rect fill="#F1F1F1" height="36.4883" rx="2.5" ry="2.5" style="stroke:#181818;stroke-width:0.5;" width="73.833" x="506.19" y="196.9583"/><text fill="#333333" font-family="sans-serif" font-size="14" lengthAdjust="spacing" textLength="53.833" x="516.19" y="220.4934">Browser</text></g><!--entity B2--><g class="entity" data-qualified-name="B2" data-source-line="27" id="ent0006"><rect fill="#F1F1F1" height="36.4883" rx="2.5" ry="2.5" style="stroke:#181818;stroke-width:0.5;" width="73.833" x="626.19" y="196.9583"/><text fill="#333333" font-family="sans-serif" font-size="14" lengthAdjust="spacing" textLength="53.833" x="636.19" y="220.4934">Browser</text></g><!--entity B3--><g class="entity" data-qualified-name="B3" data-source-line="28" id="ent0007"><rect fill="#F1F1F1" height="36.4883" rx="2.5" ry="2.5" style="stroke:#181818;stroke-width:0.5;" width="73.833" x="758.19" y="196.9583"/><text fill="#333333" font-family="sans-serif" font-size="14" lengthAdjust="spacing" textLength="53.833" x="768.19" y="220.4934">Browser</text></g><g class="entity" data-qualified-name="GMN46" data-source-line="85" id="ent0047"><path d="M1510.11,584.9483 L1510.11,640.8799 L1684.1012,640.8799 L1684.1012,594.9483 L1674.1012,584.9483 L1510.11,584.9483" fill="#F9FAFB" style="stroke:#D1D5DB;stroke-width:0.5;"/><path d="M1674.1012,584.9483 L1674.1012,594.9483 L1684.1012,594.9483 L1674.1012,584.9483" fill="#F9FAFB" style="stroke:#D1D5DB;stroke-width:1;"/><text fill="#333333" font-family="sans-serif" font-size="13" lengthAdjust="spacing" textLength="152.9912" x="1516.11" y="602.5166">DeckMux messages ride</text><text fill="#333333" font-family="sans-serif" font-size="13" lengthAdjust="spacing" textLength="129.4795" x="1516.11" y="617.8272">the same WebSocket</text><text fill="#333333" font-family="sans-serif" font-size="13" lengthAdjust="spacing" textLength="101.7593" x="1516.11" y="633.1377">as terminal data</text></g><g class="entity" data-qualified-name="GMN49" data-source-line="86" id="ent0050"><path d="M6,846.9283 L6,902.8599 L154.2261,902.8599 L154.2261,856.9283 L144.2261,846.9283 L6,846.9283" fill="#F9FAFB" style="stroke:#D1D5DB;stroke-width:0.5;"/><path d="M144.2261,846.9283 L144.2261,856.9283 L154.2261,856.9283 L144.2261,846.9283" fill="#F9FAFB" style="stroke:#D1D5DB;stroke-width:1;"/><text fill="#333333" font-family="sans-serif" font-size="13" lengthAdjust="spacing" textLength="120.5928" x="12" y="864.4966">Cloudflare Workers</text><text fill="#333333" font-family="sans-serif" font-size="13" lengthAdjust="spacing" textLength="127.2261" x="12" y="879.8072">KV-backed sessions</text><text fill="#333333" font-family="sans-serif" font-size="13" lengthAdjust="spacing" textLength="97.9888" x="12" y="895.1177">Hibernation API</text></g><!--link Tim to B1--><g class="link" data-entity-1="ent0002" data-entity-2="ent0005" data-link-type="dependency" data-source-line="61" id="lnk28"><path d="M541.22,136.1983 C541.73,157.2583 542.1648,175.01 542.5448,190.71" fill="none" id="Tim-to-B1" style="stroke:#2563EB;stroke-width:1;"/><polygon fill="#2563EB" points="542.69,196.7083,546.4711,187.6141,542.569,191.7097,538.4734,187.8077,542.69,196.7083" style="stroke:#2563EB;stroke-width:1;"/></g><!--link Jane to B2--><g class="link" data-entity-1="ent0003" data-entity-2="ent0006" data-link-type="dependency" data-source-line="62" id="lnk29"><path d="M663.74,136.1983 C663.57,157.2583 663.4297,175.0085 663.2997,190.7085" fill="none" id="Jane-to-B2" style="stroke:#2563EB;stroke-width:1;"/><polygon fill="#2563EB" points="663.25,196.7083,667.3244,187.7417,663.2914,191.7085,659.3247,187.6755,663.25,196.7083" style="stroke:#2563EB;stroke-width:1;"/></g><!--link RH to B3--><g class="link" data-entity-1="ent0004" data-entity-2="ent0007" data-link-type="dependency" data-source-line="63" id="lnk30"><path d="M795.11,136.1983 C795.11,157.2583 795.11,175.0083 795.11,190.7083" fill="none" id="RH-to-B3" style="stroke:#2563EB;stroke-width:1;"/><polygon fill="#2563EB" points="795.11,196.7083,799.11,187.7083,795.11,191.7083,791.11,187.7083,795.11,196.7083" style="stroke:#2563EB;stroke-width:1;"/></g><!--link B1 to HUB--><g class="link" data-entity-1="ent0005" data-entity-2="ent0010" data-link-type="dependency" data-source-line="65" id="lnk31"><path d="M548.29,233.7883 C553.47,250.2383 562.23,275.2383 573.11,295.4483 C591.38,329.3783 613.9495,359.9849 633.4095,384.2849" fill="none" id="B1-to-HUB" style="stroke:#2563EB;stroke-width:1;"/><polygon fill="#2563EB" points="637.16,388.9683,634.6564,379.4429,634.0346,385.0655,628.412,384.4436,637.16,388.9683" style="stroke:#2563EB;stroke-width:1;"/><text fill="#333333" font-family="sans-serif" font-size="13" lengthAdjust="spacing" textLength="67.8945" x="578.2614" y="277.0166">WebSocket</text><text fill="#333333" font-family="sans-serif" font-size="13" lengthAdjust="spacing" textLength="76.1973" x="574.11" y="292.3272">(admin role)</text></g><!--link B2 to HUB--><g class="link" data-entity-1="ent0006" data-entity-2="ent0010" data-link-type="dependency" data-source-line="66" id="lnk32"><path d="M661.73,233.6883 C661.1,242.5983 660.42,253.5883 660.11,263.4483 C658.73,307.0383 660.0075,351.4836 661.3375,383.0536" fill="none" id="B2-to-HUB" style="stroke:#2563EB;stroke-width:1;"/><polygon fill="#2563EB" points="661.59,389.0483,665.2076,379.8879,661.3795,384.0527,657.2147,380.2246,661.59,389.0483" style="stroke:#2563EB;stroke-width:1;"/><text fill="#333333" font-family="sans-serif" font-size="13" lengthAdjust="spacing" textLength="67.8945" x="672.6373" y="277.0166">WebSocket</text><text fill="#333333" font-family="sans-serif" font-size="13" lengthAdjust="spacing" textLength="90.9492" x="661.11" y="292.3272">(operator role)</text></g><!--link B3 to HUB--><g class="link" data-entity-1="ent0007" data-entity-2="ent0010" data-link-type="dependency" data-source-line="67" id="lnk33"><path d="M787.62,233.6983 C780.35,250.0883 768.6,275.0483 756.11,295.4483 C735.61,328.9183 712.1258,359.8792 692.4358,384.4092" fill="none" id="B3-to-HUB" style="stroke:#2563EB;stroke-width:1;"/><polygon fill="#2563EB" points="688.68,389.0883,697.4331,384.5736,691.8099,385.1891,691.1944,379.5658,688.68,389.0883" style="stroke:#2563EB;stroke-width:1;"/><text fill="#333333" font-family="sans-serif" font-size="13" lengthAdjust="spacing" textLength="67.8945" x="779.2133" y="277.0166">WebSocket</text><text fill="#333333" font-family="sans-serif" font-size="13" lengthAdjust="spacing" textLength="77.1812" x="774.57" y="292.3272">(viewer role)</text></g><!--link HUB to DM--><g class="link" data-entity-1="ent0010" data-entity-2="ent0011" data-link-type="dependency" data-source-line="69" id="lnk34"><path d="M592.98,452.8683 C578.49,461.1783 564.03,471.0783 552.11,482.4283 C522.36,510.7583 502.0723,547.2035 488.7823,575.6135" fill="none" id="HUB-to-DM" style="stroke:#2563EB;stroke-width:1;"/><polygon fill="#2563EB" points="486.24,581.0483,493.6767,574.591,488.3586,576.5193,486.4303,571.2013,486.24,581.0483" style="stroke:#2563EB;stroke-width:1;"/><text fill="#333333" font-family="sans-serif" font-size="13" lengthAdjust="spacing" textLength="101.4673" x="553.11" y="503.4966">presence events</text></g><!--link HUB to TUN--><g class="link" data-entity-1="ent0010" data-entity-2="ent0012" data-link-type="dependency" data-source-line="70" id="lnk35"><path d="M663.27,452.8783 C663.46,488.2083 663.7277,539.6584 663.9177,574.9784" fill="none" id="HUB-to-TUN" style="stroke:#2563EB;stroke-width:1;"/><polygon fill="#2563EB" points="663.95,580.9783,667.9015,571.9569,663.9231,575.9784,659.9016,571.9999,663.95,580.9783" style="stroke:#2563EB;stroke-width:1;"/><text fill="#333333" font-family="sans-serif" font-size="13" lengthAdjust="spacing" textLength="86.6963" x="664.58" y="495.9966">binary frames</text><text fill="#333333" font-family="sans-serif" font-size="13" lengthAdjust="spacing" textLength="61.8706" x="676.9928" y="511.3072">(ch0-ch3)</text></g><!--link HUB to DO--><g class="link" data-entity-1="ent0010" data-entity-2="ent0014" data-link-type="dependency" data-source-line="71" id="lnk36"><path d="M589.42,427.0583 C504.68,435.8283 364.03,459.4083 261.11,522.4283 C237.21,537.0583 220.1746,556.5139 206.1846,576.1239" fill="none" id="HUB-to-DO" style="stroke:#2563EB;stroke-width:1;"/><polygon fill="#2563EB" points="202.7,581.0083,211.1832,576.0047,205.6038,576.9379,204.6706,571.3586,202.7,581.0083" style="stroke:#2563EB;stroke-width:1;"/><text fill="#333333" font-family="sans-serif" font-size="13" lengthAdjust="spacing" textLength="68.2246" x="342.88" y="503.4966">CF adapter</text></g><!--link HUB to SSH--><g class="link" data-entity-1="ent0010" data-entity-2="ent0025" data-link-type="dependency" data-source-line="73" id="lnk37"><path d="M736.81,427.4183 C829.92,435.4683 983.83,452.8083 1032.11,482.4283 C1073.94,508.0783 1100.5785,554.252 1114.7485,583.982" fill="none" id="HUB-to-SSH" style="stroke:#2563EB;stroke-width:1;"/><polygon fill="#2563EB" points="1117.33,589.3983,1117.0686,579.5529,1115.1787,584.8847,1109.8469,582.9949,1117.33,589.3983" style="stroke:#2563EB;stroke-width:1;"/><text fill="#333333" font-family="sans-serif" font-size="13" lengthAdjust="spacing" textLength="62.8481" x="1069.31" y="503.4966">connector</text></g><!--link HUB to TEL--><g class="link" data-entity-1="ent0010" data-entity-2="ent0026" data-link-type="dependency" data-source-line="74" id="lnk38"><path d="M736.6,427.1183 C851.46,435.9183 1067.86,455.4683 1140.11,482.4283 C1194.16,502.5883 1234.2872,552.8892 1255.5572,584.3192" fill="none" id="HUB-to-TEL" style="stroke:#2563EB;stroke-width:1;"/><polygon fill="#2563EB" points="1258.92,589.2883,1257.1885,579.5928,1256.1177,585.1474,1250.5631,584.0765,1258.92,589.2883" style="stroke:#2563EB;stroke-width:1;"/><text fill="#333333" font-family="sans-serif" font-size="13" lengthAdjust="spacing" textLength="62.8481" x="1192.56" y="503.4966">connector</text></g><!--link HUB to SH--><g class="link" data-entity-1="ent0010" data-entity-2="ent0027" data-link-type="dependency" data-source-line="75" id="lnk39"><path d="M736.67,421.2083 C851.34,421.8683 1078.71,430.4383 1263.11,482.4283 C1302.52,493.5383 1313.96,497.0683 1346.11,522.4283 C1367.05,538.9383 1382.4589,557.5543 1395.7789,576.3343" fill="none" id="HUB-to-SH" style="stroke:#2563EB;stroke-width:1;"/><polygon fill="#2563EB" points="1399.25,581.2283,1397.306,571.5732,1396.3574,577.15,1390.7806,576.2014,1399.25,581.2283" style="stroke:#2563EB;stroke-width:1;"/><text fill="#333333" font-family="sans-serif" font-size="13" lengthAdjust="spacing" textLength="62.8481" x="1336.35" y="503.4966">connector</text></g><!--link DM to PS--><g class="link" data-entity-1="ent0011" data-entity-2="ent0017" data-link-type="dependency" data-source-line="77" id="lnk40"><path d="M444.03,644.8383 C424.32,666.5383 398.29,696.6983 378.11,725.3983 C348.3,767.8083 322.3583,816.0445 307.1283,845.8745" fill="none" id="DM-to-PS" style="stroke:#2563EB;stroke-width:1;"/><polygon fill="#2563EB" points="304.4,851.2183,312.055,845.0215,306.6736,846.7651,304.93,841.3837,304.4,851.2183" style="stroke:#2563EB;stroke-width:1;"/></g><!--link DM to TM--><g class="link" data-entity-1="ent0011" data-entity-2="ent0018" data-link-type="dependency" data-source-line="78" id="lnk41"><path d="M473.11,644.7583 C473.11,697.7483 473.11,798.8683 473.11,845.4283" fill="none" id="DM-to-TM" style="stroke:#2563EB;stroke-width:1;"/><polygon fill="#2563EB" points="473.11,851.4283,477.11,842.4283,473.11,846.4283,469.11,842.4283,473.11,851.4283" style="stroke:#2563EB;stroke-width:1;"/></g><!--link DM to PT--><g class="link" data-entity-1="ent0011" data-entity-2="ent0019" data-link-type="dependency" data-source-line="79" id="lnk42"><path d="M502.14,644.8783 C521.83,666.5883 547.85,696.7483 568.11,725.3983 C598.12,767.8483 624.4077,816.092 639.8677,845.902" fill="none" id="DM-to-PT" style="stroke:#2563EB;stroke-width:1;"/><polygon fill="#2563EB" points="642.63,851.2283,642.0374,841.3973,640.3281,846.7897,634.9356,845.0804,642.63,851.2283" style="stroke:#2563EB;stroke-width:1;"/></g><!--link HUB to PKG_DM--><g class="link" data-entity-1="ent0010" data-entity-2="ent0016" data-link-type="dependency" data-source-line="81" id="lnk43"><path d="M731.92,452.9183 C742.83,460.9283 752.64,470.6983 759.11,482.4283 C800.815,557.9983 800.895,654.9308 790.3863,733.432 C785.1319,772.6827 777.2303,807.3255 770.5611,832.3863 C769.7274,835.5188 768.913,838.5017 768.1255,841.3252 C767.7317,842.7369 767.3446,844.1088 766.9652,845.4395 C766.7755,846.1049 766.5877,846.7601 766.4019,847.4048 C766.3091,847.7271 767.8859,842.2837 767.794,842.6009" fill="none" id="HUB-to-PKG_DM" style="stroke:#2563EB;stroke-width:1;stroke-dasharray:7,7;"/><polygon fill="#2563EB" points="766.1248,848.364,772.4707,840.8321,767.5158,843.5614,764.7866,838.6065,766.1248,848.364" style="stroke:#2563EB;stroke-width:1;"/><text fill="#333333" font-family="sans-serif" font-size="13" lengthAdjust="spacing" textLength="28.5645" x="797.21" y="617.9866">uses</text></g><!--link HUB to PKG_R--><g class="link" data-entity-1="ent0010" data-entity-2="ent0020" data-link-type="dependency" data-source-line="82" id="lnk44"><path d="M736.67,451.4383 C755.41,460.2783 775.06,470.7683 792.11,482.4283 C889.83,549.2383 841.86,632.9883 933.11,708.3983 C952.83,724.6983 971.64,705.8183 988.11,725.3983 C998.6475,737.9308 1005.1494,753.2877 1008.9638,769.3198 C1009.9173,773.3279 1010.703,777.3781 1011.3417,781.437 C1011.4215,781.9444 1011.4991,782.4519 1011.5744,782.9594 C1011.612,783.2132 1010.7945,816.5048 1010.831,816.7586" fill="none" id="HUB-to-PKG_R" style="stroke:#2563EB;stroke-width:1;stroke-dasharray:7,7;"/><polygon fill="#2563EB" points="1011.6856,822.6974,1014.3629,813.2194,1010.9734,817.7484,1006.4445,814.3589,1011.6856,822.6974" style="stroke:#2563EB;stroke-width:1;"/><text fill="#333333" font-family="sans-serif" font-size="13" lengthAdjust="spacing" textLength="28.5645" x="934.11" y="617.9866">uses</text></g><!--link HUB to PKG_SH--><g class="link" data-entity-1="ent0010" data-entity-2="ent0022" data-link-type="dependency" data-source-line="83" id="lnk45"><path d="M736.89,427.4783 C805.45,436.4983 905.93,460.1983 967.11,522.4283 C1027.81,584.1683 957.7,654.0683 1025.11,708.3983 C1058.46,735.2783 1186.14,695.8083 1217.11,725.3983 C1240.81,748.0433 1246.025,784.3683 1245.21,815.422 C1245.1845,816.3925 1245.3835,850.3387 1245.3467,851.2983" fill="none" id="HUB-to-PKG_SH" style="stroke:#2563EB;stroke-width:1;stroke-dasharray:7,7;"/><polygon fill="#2563EB" points="1245.1163,857.2939,1249.4589,848.4541,1245.3083,852.2975,1241.4648,848.1469,1245.1163,857.2939" style="stroke:#2563EB;stroke-width:1;"/><text fill="#333333" font-family="sans-serif" font-size="13" lengthAdjust="spacing" textLength="28.5645" x="1026.11" y="617.9866">uses</text></g><!--link DM to GMN46--><g class="link" data-entity-1="ent0011" data-entity-2="ent0047" data-link-type="association" data-source-line="85" id="lnk48"><path d="M492.26,581.2083 C512.75,550.6683 548.37,506.3883 592.61,487.4283 C682.58,448.8583 1383.32,449.6083 1473.61,487.4283 C1520.41,507.0283 1558.45,553.9783 1579.4,584.5583" fill="none" id="DM-GMN46" style="stroke:#2563EB;stroke-width:1;stroke-dasharray:7,7;"/></g><!--link CF to GMN49--><g class="link" data-entity-1="ent0013" data-entity-2="ent0050" data-link-type="association" data-source-line="86" id="lnk51"><path d="M291.3639,668.4044 C291.3034,668.7273 291.2416,669.0502 291.1784,669.3732 C290.9257,670.665 290.6516,671.957 290.3545,673.2465 C289.7603,675.8256 289.0744,678.3944 288.2852,680.9309 C285.1281,691.077 280.3175,700.7058 273.11,708.3983 C253.28,729.5683 234.72,710.0583 210.11,725.3983 C160.11,756.5883 118.61,812.8983 96.76,846.4883" fill="none" id="CF-GMN49" style="stroke:#2563EB;stroke-width:1;stroke-dasharray:7,7;"/></g><?plantuml-src XLRXJjim4FwVfpWnQG9DtQ3TsCOF90g5CDfHDMLeejFa99SsQs97jWDqqwGzn9vmJxApdRG5MjfVzjtdxywVxoxLgSuGIXvZqj0eyvIp3Fxz-GkTIAYPqfZ3vItAsnJlF4zDKrumoN88MJGTIq7dZaKc9Bn8x6y9GOIipFIfuBg2jEnl2SAa57ULi_bkluNXaZCIUI4uSjqMCaPPmUAz-5sy6lOaerRoDjbV3XTf8H-mxOVlcnzsdq2UC7rCMB8Sb0kDpwTb4Hjv2aAmyGQg6hHPSQPPoDG6kZbgervH9ifuW_eMiYOppwe9MyCq7_5j5bDjmHjG4oPHxcm1Kq2U6lI9SIIKA50oCZY_CTQ00SRWixifWKmnrXG3t_CaHfhnCTNnLfigIg6qhlRUMazphQVbUPNWi1LGtHlxBmzWRdpKAjkdJEcZ_hdBvlGe6DB6dW2u6HBAByCHLwXKAZX87ATAozat0_QlsWvsWj6qLzv3BxrF-OWN4XNo2E4LLJVNKcGMVjAhI4lECICb0wFaY8UKXvn18OKMKOKTNdqcyE_rUJViooKPCS3syIbS2pcj9QLjbVz9ALb84bs6FqYk4G_SDGObrscEBgjB6-ZtacpzcPxGNUS3v5a16p5TFY_lwLb_eXGqDWhbqkXVd7q_wTMfz2jH0Ye65xaVL7f8nbM2iiSuyKjt_rvzoea2UbQWSiU66vIHI7kvEfz1dSxHv-2S63BKcfxW9GHd0y0yfPrqOGnWGo0rmInR7IVmv_TsOWuw_Uw8b_Q8vRyA_4wtMsjlNzFqI4vp1toXj7AgtmH4fMmTssEqzMnXPXmrjDk1awjZc6ww8gAAhjFg3x_kk3E-2K6z2et6eUagqvPktVG6lbjHtxJtx9BA6WxW6iD0H5FKyzQdEiOThzrS0wexlyQrrk1SyrSep_WDZWhb0EQDWxVqGL1p9tK3UQi-IMXkeIAYQBBRY2QjdGN79Q6e-5dC2dga1RdHyC3q8aSpYnQydUvA-oEuHyaPCnLijQBoh6r35-RrwyEwu0-Wf77nm3fOPRHHhDKpNnkGwNYYGIHEYtgcq5qL5PyYTqoLgYS8YWHObfIUU3xEpDV1qOL2Qv4RFfA4T5dC2pShICABBmtpFu06SpNVoEQd8KhEj9bsD0cz_m00?></g></svg>