<?plantuml 1.2026.2?><svg xmlns="http://www.w3.org/2000/svg" xmlns:xlink="http://www.w3.org/1999/xlink" contentStyleType="text/css" data-diagram-type="DESCRIPTION" height="844px" preserveAspectRatio="none" style="width:1321px;height:844px;background:#FFFFFF;" version="1.1" viewBox="0 0 1321 844" width="1321px" zoomAndPan="magnify"><title>undef-terminal &#8212; Package Dependency Graph</title><defs/><g><g class="title" data-source-line="4"><text fill="#333333" font-family="sans-serif" font-size="14" font-weight="bold" lengthAdjust="spacing" textLength="333.9834" x="486.5083" y="23.5352">undef-terminal &#8212; Package Dependency Graph</text></g><!--cluster RENDER--><g class="cluster" data-qualified-name="RENDER" data-source-line="29" id="ent0002"><rect fill="#EFF6FF" height="169.55" rx="2.5" ry="2.5" style="stroke:#2563EB;stroke-width:1;" width="223" x="427" y="44.4883"/><text fill="#1E40AF" font-family="sans-serif" font-size="14" font-weight="bold" lengthAdjust="spacing" textLength="167.5078" x="454.7461" y="60.0234">undef-terminal-render</text><text fill="#1E40AF" font-family="sans-serif" font-size="14" font-weight="bold" lengthAdjust="spacing" textLength="142.8164" x="467.0918" y="76.5117">(zero runtime deps)</text></g><!--cluster SHELL--><g class="cluster" data-qualified-name="SHELL" data-source-line="39" id="ent0004"><rect fill="#EFF6FF" height="169.55" rx="2.5" ry="2.5" style="stroke:#2563EB;stroke-width:1;" width="267" x="362" y="279.0383"/><text fill="#1E40AF" font-family="sans-serif" font-size="14" font-weight="bold" lengthAdjust="spacing" textLength="154.3213" x="418.3394" y="294.5734">undef-terminal-shell</text><text fill="#1E40AF" font-family="sans-serif" font-size="14" font-weight="bold" lengthAdjust="spacing" textLength="142.8164" x="424.0918" y="311.0617">(zero runtime deps)</text></g><!--cluster DECKMUX--><g class="cluster" data-qualified-name="DECKMUX" data-source-line="49" id="ent0006"><rect fill="#EFF6FF" height="154.25" rx="2.5" ry="2.5" style="stroke:#2563EB;stroke-width:1;" width="315" x="7" y="286.6883"/><text fill="#1E40AF" font-family="sans-serif" font-size="14" font-weight="bold" lengthAdjust="spacing" textLength="184.7344" x="72.1328" y="302.2234">undef-terminal-deckmux</text><text fill="#1E40AF" font-family="sans-serif" font-size="14" font-weight="bold" lengthAdjust="spacing" textLength="142.8164" x="93.0918" y="318.7117">(zero runtime deps)</text></g><!--cluster CORE--><g class="cluster" data-qualified-name="CORE" data-source-line="58" id="ent0008"><path d="M547.5,505.5883 L705.4121,505.5883 A3.75,3.75 0 0 1 707.9121,508.0883 L714.9121,528.0766 L1311.5,528.0766 A2.5,2.5 0 0 1 1314,530.5766 L1314,655.9583 A2.5,2.5 0 0 1 1311.5,658.4583 L547.5,658.4583 A2.5,2.5 0 0 1 545,655.9583 L545,508.0883 A2.5,2.5 0 0 1 547.5,505.5883" fill="#FFFFFF" style="stroke:#D1D5DB;stroke-width:1.5;"/><line style="stroke:#D1D5DB;stroke-width:1.5;" x1="545" x2="714.9121" y1="528.0766" y2="528.0766"/><text fill="#333333" font-family="sans-serif" font-size="14" font-weight="bold" lengthAdjust="spacing" textLength="156.9121" x="549" y="521.1234">undef-terminal (core)</text></g><!--cluster TELEM--><g class="cluster" data-qualified-name="TELEM" data-source-line="70" id="ent0011"><path d="M775.5,314.8283 L895.7256,314.8283 A3.75,3.75 0 0 1 898.2256,317.3283 L905.2256,337.3166 L968.5,337.3166 A2.5,2.5 0 0 1 971,339.8166 L971,426.2983 A2.5,2.5 0 0 1 968.5,428.7983 L775.5,428.7983 A2.5,2.5 0 0 1 773,426.2983 L773,317.3283 A2.5,2.5 0 0 1 775.5,314.8283" fill="#FFFFFF" style="stroke:#D1D5DB;stroke-width:1.5;"/><line style="stroke:#D1D5DB;stroke-width:1.5;" x1="773" x2="905.2256" y1="337.3166" y2="337.3166"/><text fill="#333333" font-family="sans-serif" font-size="14" font-weight="bold" lengthAdjust="spacing" textLength="119.2256" x="777" y="330.3634">undef-telemetry</text></g><!--cluster CF--><g class="cluster" data-qualified-name="CF" data-source-line="74" id="ent0013"><path d="M560.5,707.4583 L842.9766,707.4583 A3.75,3.75 0 0 1 845.4766,709.9583 L852.4766,729.9466 L996.5,729.9466 A2.5,2.5 0 0 1 999,732.4466 L999,835.4183 A2.5,2.5 0 0 1 996.5,837.9183 L560.5,837.9183 A2.5,2.5 0 0 1 558,835.4183 L558,709.9583 A2.5,2.5 0 0 1 560.5,707.4583" fill="#FFFFFF" style="stroke:#D1D5DB;stroke-width:1.5;"/><line style="stroke:#D1D5DB;stroke-width:1.5;" x1="558" x2="852.4766" y1="729.9466" y2="729.9466"/><text fill="#333333" font-family="sans-serif" font-size="14" font-weight="bold" lengthAdjust="spacing" textLength="281.4766" x="562" y="722.9934">undef-terminal-cloudflare (CF Worker)</text></g><g class="entity" data-qualified-name="RENDER.RENDER_N" data-source-line="31" id="ent0003"><path d="M451.04,103.4883 L451.04,190.041 L606.9658,190.041 L606.9658,113.4883 L596.9658,103.4883 L451.04,103.4883" fill="#F9FAFB" style="stroke:#D1D5DB;stroke-width:0.5;"/><path d="M596.9658,103.4883 L596.9658,113.4883 L606.9658,113.4883 L596.9658,103.4883" fill="#F9FAFB" style="stroke:#D1D5DB;stroke-width:1;"/><text fill="#333333" font-family="sans-serif" font-size="13" lengthAdjust="spacing" textLength="113.312" x="457.04" y="121.0566">[emulator] &#8594; pyte</text><text fill="#333333" font-family="sans-serif" font-size="13" lengthAdjust="spacing" textLength="111.1919" x="457.04" y="136.3672">[images] &#8594; Pillow</text><text fill="#333333" font-family="sans-serif" font-size="13" lengthAdjust="spacing" textLength="122.8398" x="457.04" y="151.6777">ANSI palette tables,</text><text fill="#333333" font-family="sans-serif" font-size="13" lengthAdjust="spacing" textLength="127.4292" x="457.04" y="166.9883">SGR emitters, image</text><text fill="#333333" font-family="sans-serif" font-size="13" lengthAdjust="spacing" textLength="134.9258" x="457.04" y="182.2988">conversion primitives</text></g><g class="entity" data-qualified-name="SHELL.SHELL_N" data-source-line="41" id="ent0005"><path d="M386.4,338.0383 L386.4,424.591 L585.5914,424.591 L585.5914,348.0383 L575.5914,338.0383 L386.4,338.0383" fill="#F9FAFB" style="stroke:#D1D5DB;stroke-width:0.5;"/><path d="M575.5914,338.0383 L575.5914,348.0383 L585.5914,348.0383 L575.5914,338.0383" fill="#F9FAFB" style="stroke:#D1D5DB;stroke-width:1;"/><text fill="#333333" font-family="sans-serif" font-size="13" lengthAdjust="spacing" textLength="178.1914" x="392.4" y="355.6066">[terminal] &#8594; undef-terminal</text><text fill="#333333" font-family="sans-serif" font-size="13" lengthAdjust="spacing" textLength="171.1265" x="392.4" y="370.9172">[images] &#8594; Pillow + render</text><text fill="#333333" font-family="sans-serif" font-size="13" lengthAdjust="spacing" textLength="150.0967" x="392.4" y="386.2277">Standalone Python REPL</text><text fill="#333333" font-family="sans-serif" font-size="13" lengthAdjust="spacing" textLength="141.7495" x="392.4" y="401.5383">python -m undef.shell</text><text fill="#333333" font-family="sans-serif" font-size="13" lengthAdjust="spacing" textLength="161.1479" x="392.4" y="416.8488">159 tests, 100% coverage</text></g><g class="entity" data-qualified-name="DECKMUX.DECKMUX_N" data-source-line="51" id="ent0007"><path d="M31.43,345.6883 L31.43,416.9305 L278.5653,416.9305 L278.5653,355.6883 L268.5653,345.6883 L31.43,345.6883" fill="#F9FAFB" style="stroke:#D1D5DB;stroke-width:0.5;"/><path d="M268.5653,345.6883 L268.5653,355.6883 L278.5653,355.6883 L268.5653,345.6883" fill="#F9FAFB" style="stroke:#D1D5DB;stroke-width:1;"/><text fill="#333333" font-family="sans-serif" font-size="13" lengthAdjust="spacing" textLength="178.1914" x="37.43" y="363.2566">[terminal] &#8594; undef-terminal</text><text fill="#333333" font-family="sans-serif" font-size="13" lengthAdjust="spacing" textLength="207.3843" x="37.43" y="378.5672">PresenceStore, TransferManager,</text><text fill="#333333" font-family="sans-serif" font-size="13" lengthAdjust="spacing" textLength="165.915" x="37.43" y="393.8777">edge math, protocol types</text><text fill="#333333" font-family="sans-serif" font-size="13" lengthAdjust="spacing" textLength="226.1353" x="37.43" y="409.1883">Standalone &#8212; usable without server</text></g><!--entity CORE_C--><g class="entity" data-qualified-name="CORE.CORE_C" data-source-line="59" id="ent0009"><rect fill="#F3F4F6" height="62.9766" rx="2.5" ry="2.5" style="stroke:#D1D5DB;stroke-width:0.5;" width="198.0469" x="560.98" y="560.0383"/><rect fill="#F3F4F6" height="10" style="stroke:#D1D5DB;stroke-width:0.5;" width="15" x="739.0269" y="565.0383"/><rect fill="#F3F4F6" height="2" style="stroke:#D1D5DB;stroke-width:0.5;" width="4" x="737.0269" y="567.0383"/><rect fill="#F3F4F6" height="2" style="stroke:#D1D5DB;stroke-width:0.5;" width="4" x="737.0269" y="571.0383"/><text fill="#333333" font-family="sans-serif" font-size="14" lengthAdjust="spacing" textLength="94.9102" x="575.98" y="593.5734">FastAPI server</text><text fill="#333333" font-family="sans-serif" font-size="14" lengthAdjust="spacing" textLength="158.0469" x="575.98" y="610.0617">TermHub + connectors</text></g><g class="entity" data-qualified-name="CORE.CORE_N" data-source-line="61" id="ent0010"><path d="M794.28,540.5883 L794.28,642.4516 L1297.7273,642.4516 L1297.7273,550.5883 L1287.7273,540.5883 L794.28,540.5883" fill="#F9FAFB" style="stroke:#D1D5DB;stroke-width:0.5;"/><path d="M1287.7273,540.5883 L1287.7273,550.5883 L1297.7273,550.5883 L1287.7273,540.5883" fill="#F9FAFB" style="stroke:#D1D5DB;stroke-width:1;"/><text fill="#333333" font-family="sans-serif" font-size="13" lengthAdjust="spacing" textLength="482.4473" x="800.28" y="558.1566">Requires: undef-telemetry,\nundef-terminal-shell,\nundef-terminal-render</text><text fill="#333333" font-family="sans-serif" font-size="13" lengthAdjust="spacing" textLength="230.2676" x="800.28" y="573.4672">[websocket] &#8594; fastapi + websockets</text><text fill="#333333" font-family="sans-serif" font-size="13" lengthAdjust="spacing" textLength="107.6499" x="800.28" y="588.7777">[ssh] &#8594; asyncssh</text><text fill="#333333" font-family="sans-serif" font-size="13" lengthAdjust="spacing" textLength="228.2427" x="800.28" y="604.0883">[server] &#8594; fastapi + uvicorn + pyjwt</text><text fill="#333333" font-family="sans-serif" font-size="13" lengthAdjust="spacing" textLength="266.5825" x="800.28" y="619.3988">[cli] &#8594; fastapi + uvicorn + textual + httpx</text><text fill="#333333" font-family="sans-serif" font-size="13" lengthAdjust="spacing" textLength="177.5884" x="800.28" y="634.7094">~4035 tests, 100% coverage</text></g><!--entity TELEM_C--><g class="entity" data-qualified-name="TELEM.TELEM_C" data-source-line="71" id="ent0012"><rect fill="#F3F4F6" height="62.9766" rx="2.5" ry="2.5" style="stroke:#D1D5DB;stroke-width:0.5;" width="166.6289" x="788.69" y="349.8283"/><rect fill="#F3F4F6" height="10" style="stroke:#D1D5DB;stroke-width:0.5;" width="15" x="935.3189" y="354.8283"/><rect fill="#F3F4F6" height="2" style="stroke:#D1D5DB;stroke-width:0.5;" width="4" x="933.3189" y="356.8283"/><rect fill="#F3F4F6" height="2" style="stroke:#D1D5DB;stroke-width:0.5;" width="4" x="933.3189" y="360.8283"/><text fill="#333333" font-family="sans-serif" font-size="14" lengthAdjust="spacing" textLength="126.6289" x="803.69" y="383.3634">Structured logging</text><text fill="#333333" font-family="sans-serif" font-size="14" lengthAdjust="spacing" textLength="103.6055" x="803.69" y="399.8517">&amp; trace context</text></g><!--entity CF_C--><g class="entity" data-qualified-name="CF.CF_C" data-source-line="75" id="ent0014"><rect fill="#F3F4F6" height="79.4648" rx="2.5" ry="2.5" style="stroke:#D1D5DB;stroke-width:0.5;" width="171.3457" x="574.33" y="742.4583"/><rect fill="#F3F4F6" height="10" style="stroke:#D1D5DB;stroke-width:0.5;" width="15" x="725.6757" y="747.4583"/><rect fill="#F3F4F6" height="2" style="stroke:#D1D5DB;stroke-width:0.5;" width="4" x="723.6757" y="749.4583"/><rect fill="#F3F4F6" height="2" style="stroke:#D1D5DB;stroke-width:0.5;" width="4" x="723.6757" y="753.4583"/><text fill="#333333" font-family="sans-serif" font-size="14" lengthAdjust="spacing" textLength="109.0127" x="589.33" y="775.9934">Durable Objects</text><text fill="#333333" font-family="sans-serif" font-size="14" lengthAdjust="spacing" textLength="74.4434" x="589.33" y="792.4817">KV registry</text><text fill="#333333" font-family="sans-serif" font-size="14" lengthAdjust="spacing" textLength="131.3457" x="589.33" y="808.97">Auth + SPA routing</text></g><g class="entity" data-qualified-name="CF.CF_N" data-source-line="77" id="ent0015"><path d="M780.59,746.5683 L780.59,817.8105 L983.4186,817.8105 L983.4186,756.5683 L973.4186,746.5683 L780.59,746.5683" fill="#F9FAFB" style="stroke:#D1D5DB;stroke-width:0.5;"/><path d="M973.4186,746.5683 L973.4186,756.5683 L983.4186,756.5683 L973.4186,746.5683" fill="#F9FAFB" style="stroke:#D1D5DB;stroke-width:1;"/><text fill="#333333" font-family="sans-serif" font-size="13" lengthAdjust="spacing" textLength="176.9663" x="786.59" y="764.1366">Cloudflare Workers adapter.</text><text fill="#333333" font-family="sans-serif" font-size="13" lengthAdjust="spacing" textLength="162.2715" x="786.59" y="779.4472">Parity with FastAPI server.</text><text fill="#333333" font-family="sans-serif" font-size="13" lengthAdjust="spacing" textLength="181.8286" x="786.59" y="794.7577">100% coverage on new code.</text><text fill="#333333" font-family="sans-serif" font-size="13" lengthAdjust="spacing" textLength="129.0034" x="786.59" y="810.0683">14 real CF E2E tests.</text></g><g class="entity" data-qualified-name="GMN22" data-source-line="93" id="ent0023"><path d="M166.54,563.5583 L166.54,619.4899 L461.4604,619.4899 L461.4604,573.5583 L451.4604,563.5583 L166.54,563.5583" fill="#F9FAFB" style="stroke:#D1D5DB;stroke-width:0.5;"/><path d="M451.4604,563.5583 L451.4604,573.5583 L461.4604,573.5583 L451.4604,563.5583" fill="#F9FAFB" style="stroke:#D1D5DB;stroke-width:1;"/><text fill="#333333" font-family="sans-serif" font-size="13" lengthAdjust="spacing" textLength="191.5532" x="172.54" y="581.1266">DeckMux integrates via mixin:</text><text fill="#333333" font-family="sans-serif" font-size="13" lengthAdjust="spacing" textLength="273.9204" x="172.54" y="596.4372">deckmux/_hub_mixin.py extends TermHub</text><text fill="#333333" font-family="sans-serif" font-size="13" lengthAdjust="spacing" textLength="150.7314" x="172.54" y="611.7477">without modifying core.</text></g><!--reverse link RENDER to SHELL--><g class="link" data-entity-1="ent0002" data-entity-2="ent0004" data-link-type="dependency" data-source-line="85" id="lnk16"><path d="M631.5842,219.575 C631.3336,220.085 633.2825,215.9407 633.019,216.4431 C632.4919,217.448 631.9386,218.4372 631.358,219.4082 C629.0355,223.2925 626.275,226.887 623,230.0383 C609.31,243.2083 593.11,223.3983 581,238.0383 C576.18,243.8583 576.71,248.8183 581,255.0383 C586.67,263.2583 595.69,255.2983 602,263.0383 C604.0519,265.5564 605.9232,268.2086 607.6284,270.9688 C608.481,272.3489 609.2921,273.756 610.0635,275.1869 C610.4492,275.9024 610.825,276.6237 611.191,277.3506 C611.374,277.7141 611.5546,278.0789 611.7328,278.4451 C611.8219,278.6282 611.9104,278.8116 611.9983,278.9954" fill="none" id="RENDER-backto-SHELL" style="stroke:#2563EB;stroke-width:1;stroke-dasharray:7,7;"/><polygon fill="#2563EB" points="634.1612,214.1566,626.6834,220.5662,632.0137,218.672,633.908,224.0022,634.1612,214.1566" style="stroke:#2563EB;stroke-width:1;"/><text fill="#333333" font-family="sans-serif" font-size="13" lengthAdjust="spacing" textLength="90.1938" x="582" y="251.6066">[images] extra</text></g><!--reverse link RENDER to CORE_C--><g class="link" data-entity-1="ent0002" data-entity-2="ent0009" data-link-type="dependency" data-source-line="86" id="lnk17"><path d="M652.7308,168.7145 C652.8325,168.9219 650.441,164.0556 650.5439,164.2662 C650.9554,165.1088 651.3763,165.9775 651.8053,166.8707 C653.5213,170.4436 655.3669,174.4095 657.26,178.6733 C664.8325,195.7283 673.165,217.5483 677,238.0383 C698.91,355.1683 677.71,497.7883 666.27,559.5483" fill="none" id="RENDER-backto-CORE_C" style="stroke:#2563EB;stroke-width:1;stroke-dasharray:7,7;"/><polygon fill="#2563EB" points="650.085,163.3294,650.4636,173.1709,652.2898,167.817,657.6438,169.6432,650.085,163.3294" style="stroke:#2563EB;stroke-width:1;"/><text fill="#333333" font-family="sans-serif" font-size="13" lengthAdjust="spacing" textLength="53.314" x="687.52" y="386.3866">required</text></g><!--reverse link SHELL to CORE_C--><g class="link" data-entity-1="ent0004" data-entity-2="ent0009" data-link-type="dependency" data-source-line="87" id="lnk18"><path d="M614.486,454.5977 C614.4842,456.0954 614.5114,452.1608 614.5339,453.6692 C614.7138,465.7364 615.7,478.0783 618,489.5883 C622.91,514.1583 633.92,540.2283 643.44,559.7083" fill="none" id="SHELL-backto-CORE_C" style="stroke:#2563EB;stroke-width:1;stroke-dasharray:7,7;"/><polygon fill="#2563EB" points="614.5045,448.5977,610.4767,457.5854,614.489,453.5977,618.4767,457.61,614.5045,448.5977" style="stroke:#2563EB;stroke-width:1;"/><text fill="#333333" font-family="sans-serif" font-size="13" lengthAdjust="spacing" textLength="53.314" x="619" y="486.1566">required</text></g><!--reverse link TELEM_C to CORE_C--><g class="link" data-entity-1="ent0012" data-entity-2="ent0009" data-link-type="dependency" data-source-line="88" id="lnk19"><path d="M836.4391,417.2423 C796.3591,456.6023 731.55,520.2483 691.41,559.6783" fill="none" id="TELEM_C-backto-CORE_C" style="stroke:#2563EB;stroke-width:1;stroke-dasharray:7,7;"/><polygon fill="#2563EB" points="840.72,413.0383,831.4959,416.4904,837.1526,416.5416,837.1013,422.1982,840.72,413.0383" style="stroke:#2563EB;stroke-width:1;"/><text fill="#333333" font-family="sans-serif" font-size="13" lengthAdjust="spacing" textLength="53.314" x="779.69" y="486.1566">required</text></g><!--reverse link DECKMUX to CORE_C--><g class="link" data-entity-1="ent0006" data-entity-2="ent0009" data-link-type="dependency" data-source-line="89" id="lnk20"><path d="M324.6277,406.2227 C324.737,406.4484 322.4034,401.6089 322.5148,401.8373 C322.7375,402.2942 322.9645,402.7564 323.1957,403.2236 C325.0452,406.9619 327.1638,411.0252 329.5425,415.2608 C339.0575,432.2033 352.735,451.9033 370,464.5883 C410.79,494.5583 432.07,478.6183 479,497.5883 C523.05,515.3983 570.77,540.1483 606.15,559.6283" fill="none" id="DECKMUX-backto-CORE_C" style="stroke:#2563EB;stroke-width:1;stroke-dasharray:7,7;"/><polygon fill="#2563EB" points="322.0207,400.8187,322.3286,410.6627,324.1932,405.322,329.5339,407.1867,322.0207,400.8187" style="stroke:#2563EB;stroke-width:1;"/><text fill="#333333" font-family="sans-serif" font-size="13" lengthAdjust="spacing" textLength="145.7295" x="452.27" y="486.1566">[terminal] extra (mixin)</text></g><!--reverse link CORE_C to CF_C--><g class="link" data-entity-1="ent0009" data-entity-2="ent0014" data-link-type="dependency" data-source-line="90" id="lnk21"><path d="M660,629.2583 C660,661.7283 660,707.0183 660,742.2883" fill="none" id="CORE_C-backto-CF_C" style="stroke:#2563EB;stroke-width:1;stroke-dasharray:7,7;"/><polygon fill="#2563EB" points="660,623.2583,656,632.2583,660,628.2583,664,632.2583,660,623.2583" style="stroke:#2563EB;stroke-width:1;"/><text fill="#333333" font-family="sans-serif" font-size="13" lengthAdjust="spacing" textLength="68.2246" x="661" y="688.0266">CF adapter</text></g><!--link DECKMUX to GMN22--><g class="link" data-entity-1="ent0006" data-entity-2="ent0023" data-link-type="association" data-source-line="93" id="lnk24"><path d="M314,440.9763 C314,441.2566 314,441.5375 314,441.8189 C314,442.3817 314,442.9466 314,443.5136 C314,444.6476 314,445.7898 314,446.9396 C314,449.2392 314,451.5689 314,453.9233 C314,491.5933 314,535.5733 314,563.2383" fill="none" id="DECKMUX-GMN22" style="stroke:#2563EB;stroke-width:1;stroke-dasharray:7,7;"/></g><?plantuml-src ZLNRRjj647tdLmmIj74GIRNZ2n2ZBwv49K5iHv3S2se5neeSYXilTvdTfIIsID6dVa3HByoNTBXBsQGb6HOWG9mvEppdpEp8SYiG2XbZqhMeCowPW6z__mSZ5jsoES80SwIiZ4fugrcU1e6vvJ9dccKm8ynSAphTLq9fU9wuJmD1PLaXx519MqCEtQS1OLghPPryVNnoYBD6Cb9PhYHA-vFICUeQ5X_4n_5ss0QZm-GeEMb0fRBuU367sAZp9c594vLxVnuljGRjy6cR0lWp0DXMbQ8xn05i-lir25x0xwXLDyPypSEupgPydWhwMemR13H6biav3SC6WRehMmXWafoGZXQ10ppQPqb5uBxai_Q0TNKrKdegz_uWXg0BQNc6D2ovUVaCc85nU3a8nuv9rOtxqCqbXG2kCIi4iqf_Wc___0jvQT77ULR9zD4H5q8jNVpiSlAUJ11egPXbCu6cunAJjsF0Z5DOcmwuqouUARcW45SISiq9m1TeA4Ey7QF7vPaKXTYjRl8kF3zlYNEHjRPr6Q-YNNgNIdW5tbElYdZ5JD0ymQYqAOaOXwDpbyhzSpVpXNkEgiiS7By1YyQI3mVx-z-H1UI0z-DfgcECRhDYjLlt8En_kFZvjvRoElPaxIEDXfOHJgZvs84hpQH9K5ymILIrRoh6jBSoPjCEDKzP5Ia1jinT0rlcLBUXCDKum9AJBuK5WthXN6nghg_FGyMm5n49hwt_SHmwOTT3PkpPw7rTQIgl2Fskc567QAWakQSqjQu-SjDlUE42teWnVYauIJszyq1WXbQNdQdSDcoRuSOuN2znPbHqYzRRcX13bdDYT9VmrbmRate8CwMCwAaEEoaF3nSBJleb_ShBpqlheP7Wkt4MLxOWtrv1Qcs-SYV-Eje_F7xAu6qqeNR4sNyLdeSNtl-9rKLa2uqn23MVSpcVok_1QXPXrO6AmwUx8-J_xlvs8w6AE15C8-prX_2hqhUewtuF_Ti6XNRpyt7scLfhflB3BtGJvzmGiwayAsnAQYUZCw2rQOcBx_omtVTXtVN-_VlykmomcEN4f-U7dsbkIpUhq1upds_P1tJD9IxfESOwVKJKo7xY7huElUUz1ow_QFxXkxzc4zJR-CTUhrvTf_ShYDpKh8dmKqqGxKSu3loPxRcw2JkowuNHoZPsX7ivx6LynUNBe4OuyD11IMZjNn0uisVAMfM1IjPxXzGFQ6rT52lWD1fppSWLM706hkWfvUkrziDDMinkNBINbzMhoIMQ8d-x2RVU89cAUL9Igw7Q3htWpjt_0G00?></g></svg>