<?plantuml 1.2026.2?><svg xmlns="http://www.w3.org/2000/svg" xmlns:xlink="http://www.w3.org/1999/xlink" contentStyleType="text/css" data-diagram-type="SEQUENCE" height="937px" preserveAspectRatio="none" style="width:1003px;height:937px;background:#FFFFFF;" version="1.1" viewBox="0 0 1003 937" width="1003px" zoomAndPan="magnify"><title>DeckMux &#8212; Presence Events (200ms Debounce)</title><defs/><g><text fill="#333333" font-family="sans-serif" font-size="14" font-weight="bold" lengthAdjust="spacing" textLength="345.8232" x="324.8247" y="28.5352">DeckMux &#8212; Presence Events (200ms Debounce)</text><g class="participant-lifeline" data-entity-uid="part1" data-qualified-name="A" id="part1-lifeline"><g><title>Browser A</title><rect fill="#000000" fill-opacity="0.00000" height="828.4531" width="8" x="41.9609" y="73.9766"/><line style="stroke:#D1D5DB;stroke-width:0.5;stroke-dasharray:5,5;" x1="45" x2="45" y1="73.9766" y2="902.4297"/></g></g><g class="participant-lifeline" data-entity-uid="part2" data-qualified-name="S" id="part2-lifeline"><g><title>Server</title><rect fill="#000000" fill-opacity="0.00000" height="828.4531" width="8" x="415.9644" y="73.9766"/><line style="stroke:#D1D5DB;stroke-width:0.5;stroke-dasharray:5,5;" x1="419.043" x2="419.043" y1="73.9766" y2="902.4297"/></g></g><g class="participant-lifeline" data-entity-uid="part3" data-qualified-name="B" id="part3-lifeline"><g><title>Browser B</title><rect fill="#000000" fill-opacity="0.00000" height="828.4531" width="8" x="796.4678" y="73.9766"/><line style="stroke:#D1D5DB;stroke-width:0.5;stroke-dasharray:5,5;" x1="800.3101" x2="800.3101" y1="73.9766" y2="902.4297"/></g></g><g class="participant-lifeline" data-entity-uid="part4" data-qualified-name="C" id="part4-lifeline"><g><title>Browser C</title><rect fill="#000000" fill-opacity="0.00000" height="828.4531" width="8" x="946.498" y="73.9766"/><line style="stroke:#D1D5DB;stroke-width:0.5;stroke-dasharray:5,5;" x1="949.5234" x2="949.5234" y1="73.9766" y2="902.4297"/></g></g><g class="participant participant-head" data-entity-uid="part1" data-qualified-name="A" id="part1-head"><rect fill="#F3F4F6" height="30.4883" rx="2.5" ry="2.5" style="stroke:#D1D5DB;stroke-width:0.5;" width="81.9219" x="5" y="42.4883"/><text fill="#333333" font-family="sans-serif" font-size="14" lengthAdjust="spacing" textLength="67.9219" x="12" y="63.0234">Browser A</text></g><g class="participant participant-tail" data-entity-uid="part1" data-qualified-name="A" id="part1-tail"><rect fill="#F3F4F6" height="30.4883" rx="2.5" ry="2.5" style="stroke:#D1D5DB;stroke-width:0.5;" width="81.9219" x="5" y="901.4297"/><text fill="#333333" font-family="sans-serif" font-size="14" lengthAdjust="spacing" textLength="67.9219" x="12" y="921.9648">Browser A</text></g><g class="participant participant-head" data-entity-uid="part2" data-qualified-name="S" id="part2-head"><rect fill="#F3F4F6" height="30.4883" rx="2.5" ry="2.5" style="stroke:#D1D5DB;stroke-width:0.5;" width="55.8428" x="392.043" y="42.4883"/><text fill="#333333" font-family="sans-serif" font-size="14" lengthAdjust="spacing" textLength="41.8428" x="399.043" y="63.0234">Server</text></g><g class="participant participant-tail" data-entity-uid="part2" data-qualified-name="S" id="part2-tail"><rect fill="#F3F4F6" height="30.4883" rx="2.5" ry="2.5" style="stroke:#D1D5DB;stroke-width:0.5;" width="55.8428" x="392.043" y="901.4297"/><text fill="#333333" font-family="sans-serif" font-size="14" lengthAdjust="spacing" textLength="41.8428" x="399.043" y="921.9648">Server</text></g><g class="participant participant-head" data-entity-uid="part3" data-qualified-name="B" id="part3-head"><rect fill="#F3F4F6" height="30.4883" rx="2.5" ry="2.5" style="stroke:#D1D5DB;stroke-width:0.5;" width="80.3154" x="760.3101" y="42.4883"/><text fill="#333333" font-family="sans-serif" font-size="14" lengthAdjust="spacing" textLength="66.3154" x="767.3101" y="63.0234">Browser B</text></g><g class="participant participant-tail" data-entity-uid="part3" data-qualified-name="B" id="part3-tail"><rect fill="#F3F4F6" height="30.4883" rx="2.5" ry="2.5" style="stroke:#D1D5DB;stroke-width:0.5;" width="80.3154" x="760.3101" y="901.4297"/><text fill="#333333" font-family="sans-serif" font-size="14" lengthAdjust="spacing" textLength="66.3154" x="767.3101" y="921.9648">Browser B</text></g><g class="participant participant-head" data-entity-uid="part4" data-qualified-name="C" id="part4-head"><rect fill="#F3F4F6" height="30.4883" rx="2.5" ry="2.5" style="stroke:#D1D5DB;stroke-width:0.5;" width="81.9492" x="909.5234" y="42.4883"/><text fill="#333333" font-family="sans-serif" font-size="14" lengthAdjust="spacing" textLength="67.9492" x="916.5234" y="63.0234">Browser C</text></g><g class="participant participant-tail" data-entity-uid="part4" data-qualified-name="C" id="part4-tail"><rect fill="#F3F4F6" height="30.4883" rx="2.5" ry="2.5" style="stroke:#D1D5DB;stroke-width:0.5;" width="81.9492" x="909.5234" y="901.4297"/><text fill="#333333" font-family="sans-serif" font-size="14" lengthAdjust="spacing" textLength="67.9492" x="916.5234" y="921.9648">Browser C</text></g><rect fill="#EEEEEE" height="3" style="stroke:#EEEEEE;stroke-width:1;" width="996.4727" x="0" y="104.6318"/><line style="stroke:#000000;stroke-width:1;" x1="0" x2="996.4727" y1="104.6318" y2="104.6318"/><line style="stroke:#000000;stroke-width:1;" x1="0" x2="996.4727" y1="107.6318" y2="107.6318"/><rect fill="#EEEEEE" height="23.3105" style="stroke:#000000;stroke-width:2;" width="55.2979" x="470.5874" y="93.9766"/><text fill="#333333" font-family="sans-serif" font-size="13" font-weight="bold" lengthAdjust="spacing" textLength="37.0132" x="476.5874" y="110.5449">Scroll</text><g class="message" data-entity-1="part1" data-entity-2="part1" id="msg1"><line style="stroke:#2563EB;stroke-width:1;" x1="45.9609" x2="87.9609" y1="148.5977" y2="148.5977"/><line style="stroke:#2563EB;stroke-width:1;" x1="87.9609" x2="87.9609" y1="148.5977" y2="161.5977"/><line style="stroke:#2563EB;stroke-width:1;" x1="46.9609" x2="87.9609" y1="161.5977" y2="161.5977"/><polygon fill="#2563EB" points="56.9609,157.5977,46.9609,161.5977,56.9609,165.5977,52.9609,161.5977" style="stroke:#2563EB;stroke-width:1;"/><text fill="#333333" font-family="sans-serif" font-size="13" lengthAdjust="spacing" textLength="193.8384" x="52.9609" y="143.8555">user scrolls (debounce 200ms)</text></g><g class="message" data-entity-1="part1" data-entity-2="part2" id="msg2"><polygon fill="#2563EB" points="407.9644,186.9082,417.9644,190.9082,407.9644,194.9082,411.9644,190.9082" style="stroke:#2563EB;stroke-width:1;"/><line style="stroke:#2563EB;stroke-width:1;" x1="45.9609" x2="413.9644" y1="190.9082" y2="190.9082"/><text fill="#333333" font-family="sans-serif" font-size="13" lengthAdjust="spacing" textLength="350.0034" x="52.9609" y="186.166">presence_update {scroll_line: 42, scroll_range: [38, 52]}</text></g><g class="message" data-entity-1="part2" data-entity-2="part3" id="msg3"><polygon fill="#2563EB" points="788.4678,216.2188,798.4678,220.2188,788.4678,224.2188,792.4678,220.2188" style="stroke:#2563EB;stroke-width:1;"/><line style="stroke:#2563EB;stroke-width:1;" x1="419.9644" x2="794.4678" y1="220.2188" y2="220.2188"/><text fill="#333333" font-family="sans-serif" font-size="13" lengthAdjust="spacing" textLength="202.8267" x="426.9644" y="215.4766">presence_update {user_id: A, ...}</text></g><g class="message" data-entity-1="part2" data-entity-2="part4" id="msg4"><polygon fill="#2563EB" points="938.498,245.5293,948.498,249.5293,938.498,253.5293,942.498,249.5293" style="stroke:#2563EB;stroke-width:1;"/><line style="stroke:#2563EB;stroke-width:1;" x1="419.9644" x2="944.498" y1="249.5293" y2="249.5293"/><text fill="#333333" font-family="sans-serif" font-size="13" lengthAdjust="spacing" textLength="202.8267" x="426.9644" y="244.7871">presence_update {user_id: A, ...}</text></g><path d="M762,262.5293 L762,287.5293 L988,287.5293 L988,272.5293 L978,262.5293 L762,262.5293" fill="#F9FAFB" style="stroke:#D1D5DB;stroke-width:0.5;"/><path d="M978,262.5293 L978,272.5293 L988,272.5293 L978,262.5293" fill="#F9FAFB" style="stroke:#D1D5DB;stroke-width:0.5;"/><text fill="#333333" font-family="sans-serif" font-size="13" lengthAdjust="spacing" textLength="145.1074" x="798.0276" y="280.0977">Edge bars update for A</text><rect fill="#EEEEEE" height="3" style="stroke:#EEEEEE;stroke-width:1;" width="996.4727" x="0" y="313.4951"/><line style="stroke:#000000;stroke-width:1;" x1="0" x2="996.4727" y1="313.4951" y2="313.4951"/><line style="stroke:#000000;stroke-width:1;" x1="0" x2="996.4727" y1="316.4951" y2="316.4951"/><rect fill="#EEEEEE" height="23.3105" style="stroke:#000000;stroke-width:2;" width="39.0225" x="478.7251" y="302.8398"/><text fill="#333333" font-family="sans-serif" font-size="13" font-weight="bold" lengthAdjust="spacing" textLength="20.7378" x="484.7251" y="319.4082">Pin</text><g class="message" data-entity-1="part1" data-entity-2="part1" id="msg5"><line style="stroke:#2563EB;stroke-width:1;" x1="45.9609" x2="87.9609" y1="357.4609" y2="357.4609"/><line style="stroke:#2563EB;stroke-width:1;" x1="87.9609" x2="87.9609" y1="357.4609" y2="370.4609"/><line style="stroke:#2563EB;stroke-width:1;" x1="46.9609" x2="87.9609" y1="370.4609" y2="370.4609"/><polygon fill="#2563EB" points="56.9609,366.4609,46.9609,370.4609,56.9609,374.4609,52.9609,370.4609" style="stroke:#2563EB;stroke-width:1;"/><text fill="#333333" font-family="sans-serif" font-size="13" lengthAdjust="spacing" textLength="113.9214" x="52.9609" y="352.7188">user clicks line 13</text></g><g class="message" data-entity-1="part1" data-entity-2="part2" id="msg6"><polygon fill="#2563EB" points="407.9644,395.7715,417.9644,399.7715,407.9644,403.7715,411.9644,399.7715" style="stroke:#2563EB;stroke-width:1;"/><line style="stroke:#2563EB;stroke-width:1;" x1="45.9609" x2="413.9644" y1="399.7715" y2="399.7715"/><text fill="#333333" font-family="sans-serif" font-size="13" lengthAdjust="spacing" textLength="203.5503" x="52.9609" y="395.0293">presence_update {pin: {line: 13}}</text></g><g class="message" data-entity-1="part2" data-entity-2="part3" id="msg7"><polygon fill="#2563EB" points="788.4678,425.082,798.4678,429.082,788.4678,433.082,792.4678,429.082" style="stroke:#2563EB;stroke-width:1;"/><line style="stroke:#2563EB;stroke-width:1;" x1="419.9644" x2="794.4678" y1="429.082" y2="429.082"/><text fill="#333333" font-family="sans-serif" font-size="13" lengthAdjust="spacing" textLength="274.6694" x="426.9644" y="424.3398">presence_update {user_id: A, pin: {line: 13}}</text></g><g class="message" data-entity-1="part2" data-entity-2="part4" id="msg8"><polygon fill="#2563EB" points="938.498,454.3926,948.498,458.3926,938.498,462.3926,942.498,458.3926" style="stroke:#2563EB;stroke-width:1;"/><line style="stroke:#2563EB;stroke-width:1;" x1="419.9644" x2="944.498" y1="458.3926" y2="458.3926"/><text fill="#333333" font-family="sans-serif" font-size="13" lengthAdjust="spacing" textLength="274.6694" x="426.9644" y="453.6504">presence_update {user_id: A, pin: {line: 13}}</text></g><path d="M762,471.3926 L762,496.3926 L988,496.3926 L988,481.3926 L978,471.3926 L762,471.3926" fill="#F9FAFB" style="stroke:#D1D5DB;stroke-width:0.5;"/><path d="M978,471.3926 L978,481.3926 L988,481.3926 L978,471.3926" fill="#F9FAFB" style="stroke:#D1D5DB;stroke-width:0.5;"/><text fill="#333333" font-family="sans-serif" font-size="13" lengthAdjust="spacing" textLength="143.6982" x="798.7322" y="488.9609">Pin label "A" on line 13</text><rect fill="#EEEEEE" height="3" style="stroke:#EEEEEE;stroke-width:1;" width="996.4727" x="0" y="522.3584"/><line style="stroke:#000000;stroke-width:1;" x1="0" x2="996.4727" y1="522.3584" y2="522.3584"/><line style="stroke:#000000;stroke-width:1;" x1="0" x2="996.4727" y1="525.3584" y2="525.3584"/><rect fill="#EEEEEE" height="23.3105" style="stroke:#000000;stroke-width:2;" width="91.1812" x="452.6458" y="511.7031"/><text fill="#333333" font-family="sans-serif" font-size="13" font-weight="bold" lengthAdjust="spacing" textLength="72.8965" x="458.6458" y="528.2715">Select Text</text><g class="message" data-entity-1="part3" data-entity-2="part3" id="msg9"><line style="stroke:#2563EB;stroke-width:1;" x1="800.4678" x2="842.4678" y1="566.3242" y2="566.3242"/><line style="stroke:#2563EB;stroke-width:1;" x1="842.4678" x2="842.4678" y1="566.3242" y2="579.3242"/><line style="stroke:#2563EB;stroke-width:1;" x1="801.4678" x2="842.4678" y1="579.3242" y2="579.3242"/><polygon fill="#2563EB" points="811.4678,575.3242,801.4678,579.3242,811.4678,583.3242,807.4678,579.3242" style="stroke:#2563EB;stroke-width:1;"/><text fill="#333333" font-family="sans-serif" font-size="13" lengthAdjust="spacing" textLength="136.0303" x="807.4678" y="561.582">user selects lines 7-8</text></g><g class="message" data-entity-1="part3" data-entity-2="part2" id="msg10"><polygon fill="#2563EB" points="430.9644,604.6348,420.9644,608.6348,430.9644,612.6348,426.9644,608.6348" style="stroke:#2563EB;stroke-width:1;"/><line style="stroke:#2563EB;stroke-width:1;" x1="424.9644" x2="799.4678" y1="608.6348" y2="608.6348"/><text fill="#333333" font-family="sans-serif" font-size="13" lengthAdjust="spacing" textLength="356.5034" x="436.9644" y="603.8926">presence_update {selection: {start: {line:7}, end: {line:8}}}</text></g><g class="message" data-entity-1="part2" data-entity-2="part1" id="msg11"><polygon fill="#2563EB" points="56.9609,633.9453,46.9609,637.9453,56.9609,641.9453,52.9609,637.9453" style="stroke:#2563EB;stroke-width:1;"/><line style="stroke:#2563EB;stroke-width:1;" x1="50.9609" x2="418.9644" y1="637.9453" y2="637.9453"/><text fill="#333333" font-family="sans-serif" font-size="13" lengthAdjust="spacing" textLength="265.7637" x="62.9609" y="633.2031">presence_update {user_id: B, selection: ...}</text></g><g class="message" data-entity-1="part2" data-entity-2="part4" id="msg12"><polygon fill="#2563EB" points="938.498,663.2559,948.498,667.2559,938.498,671.2559,942.498,667.2559" style="stroke:#2563EB;stroke-width:1;"/><line style="stroke:#2563EB;stroke-width:1;" x1="419.9644" x2="944.498" y1="667.2559" y2="667.2559"/><text fill="#333333" font-family="sans-serif" font-size="13" lengthAdjust="spacing" textLength="265.7637" x="426.9644" y="662.5137">presence_update {user_id: B, selection: ...}</text></g><path d="M7,680.2559 L7,720.2559 L988,720.2559 L988,690.2559 L978,680.2559 L7,680.2559" fill="#F9FAFB" style="stroke:#D1D5DB;stroke-width:0.5;"/><path d="M978,680.2559 L978,690.2559 L988,690.2559 L978,680.2559" fill="#F9FAFB" style="stroke:#D1D5DB;stroke-width:0.5;"/><text fill="#333333" font-family="sans-serif" font-size="13" lengthAdjust="spacing" textLength="169.019" x="388.4397" y="697.8242">Blue highlight on lines 7-8</text><text fill="#333333" font-family="sans-serif" font-size="13" lengthAdjust="spacing" textLength="209.5933" x="388.4397" y="713.1348">Brighter segment on B's edge bar</text><rect fill="#EEEEEE" height="3" style="stroke:#EEEEEE;stroke-width:1;" width="996.4727" x="0" y="746.5322"/><line style="stroke:#000000;stroke-width:1;" x1="0" x2="996.4727" y1="746.5322" y2="746.5322"/><line style="stroke:#000000;stroke-width:1;" x1="0" x2="996.4727" y1="749.5322" y2="749.5322"/><rect fill="#EEEEEE" height="23.3105" style="stroke:#000000;stroke-width:2;" width="92.2729" x="452.0999" y="735.877"/><text fill="#333333" font-family="sans-serif" font-size="13" font-weight="bold" lengthAdjust="spacing" textLength="73.9883" x="458.0999" y="752.4453">Disconnect</text><g class="message" data-entity-1="part4" data-entity-2="part2" id="msg13"><polygon fill="#2563EB" points="430.9644,786.498,420.9644,790.498,430.9644,794.498,426.9644,790.498" style="stroke:#2563EB;stroke-width:1;"/><line style="stroke:#2563EB;stroke-width:1;" x1="424.9644" x2="949.498" y1="790.498" y2="790.498"/><text fill="#333333" font-family="sans-serif" font-size="13" lengthAdjust="spacing" textLength="104.2793" x="436.9644" y="785.7559">WebSocket close</text></g><g class="message" data-entity-1="part2" data-entity-2="part1" id="msg14"><polygon fill="#2563EB" points="56.9609,815.8086,46.9609,819.8086,56.9609,823.8086,52.9609,819.8086" style="stroke:#2563EB;stroke-width:1;"/><line style="stroke:#2563EB;stroke-width:1;" x1="50.9609" x2="418.9644" y1="819.8086" y2="819.8086"/><text fill="#333333" font-family="sans-serif" font-size="13" lengthAdjust="spacing" textLength="170.7202" x="62.9609" y="815.0664">presence_leave {user_id: C}</text></g><g class="message" data-entity-1="part2" data-entity-2="part3" id="msg15"><polygon fill="#2563EB" points="788.4678,845.1191,798.4678,849.1191,788.4678,853.1191,792.4678,849.1191" style="stroke:#2563EB;stroke-width:1;"/><line style="stroke:#2563EB;stroke-width:1;" x1="419.9644" x2="794.4678" y1="849.1191" y2="849.1191"/><text fill="#333333" font-family="sans-serif" font-size="13" lengthAdjust="spacing" textLength="170.7202" x="426.9644" y="844.377">presence_leave {user_id: C}</text></g><path d="M7,862.1191 L7,887.1191 L837,887.1191 L837,872.1191 L827,862.1191 L7,862.1191" fill="#F9FAFB" style="stroke:#D1D5DB;stroke-width:0.5;"/><path d="M827,862.1191 L827,872.1191 L837,872.1191 L827,862.1191" fill="#F9FAFB" style="stroke:#D1D5DB;stroke-width:0.5;"/><text fill="#333333" font-family="sans-serif" font-size="13" lengthAdjust="spacing" textLength="184.5264" x="325.5496" y="879.6875">C's avatar/edge/pin removed</text><?plantuml-src bLJHQjim57ttLrooXwtWfatSj5aW0zljdbO8kD27RGJPkav55CcJvAnG0lk8VU6-P9BihDxYRQb03xxttAjpphtOCCCHhh5OtzQFyEFRTrWer2WAX9ij2gFXpVZyVACj99Ur3Py4WLupKH55Df2JOhrIDavJoQM2LwK_7GJ5ajJSl9V2j938dmv4uvVQFHWh9R-seF7aCiAy1_I1bVOAJAIYg5eq7T49xKClY3AiO1KHvkK51zgYygAyx1G9QVx3moCE-hmjIPa7GVNy5WmIgrsZWdW0H4FyUp93jKNbCrb_MUAJINyozSaq2EPpo0ebEOVvF8ZXz1t4CwWTHFkm7JPjnmn-wYSDAfj1rMx5igueCGXFJSMIsrdCu68SjYsMYeYLZNoCfY5CnfztGUOw93qTtCDBHcSGXp0S3bjaUWpI-GfowuI7jk26hj3kejBGLfJMvzZhNJ1n8BRWh5XhSDHX5FrTOiN439uQXQDeTwIK_ghqfLL_I7GwECcHmy2kY1I_sFkX8iV2m1q-6YSsQMasa_MvHgs6gzDfa-uTgOSowPXeOpTfp-Xg5m8Akl-SxlQgud-fIaBeT3nomZr5pqx4pec4rmWFRFN0xJLxAxoqJo9HBkXbhpRsz-NIoMiDs6w8j-kQwK8AuIopRgMj7VUOPx9Oex7x8JKU2kH8jbsgQSz2z62wz2qqjMp8bbXxpnofCpjuKBYn01hy1000?></g></svg>