<?plantuml 1.2026.2?><svg xmlns="http://www.w3.org/2000/svg" xmlns:xlink="http://www.w3.org/1999/xlink" contentStyleType="text/css" data-diagram-type="ACTIVITY" height="885px" preserveAspectRatio="none" style="width:1774px;height:885px;background:#FFFFFF;" version="1.1" viewBox="0 0 1774 885" width="1774px" zoomAndPan="magnify"><title>DeckMux &#8212; Collaborative Session Journey</title><defs/><g><g class="title" data-source-line="4"><text fill="#333333" font-family="sans-serif" font-size="14" font-weight="bold" lengthAdjust="spacing" textLength="304.6846" x="733.2222" y="33.5352">DeckMux &#8212; Collaborative Session Journey</text></g><rect fill="none" height="21.1992" style="stroke:none;stroke-width:1;" width="1741.1289" x="15" y="49.7852"/><ellipse cx="229.3296" cy="85.9844" fill="#222222" rx="10" ry="10" style="stroke:#222222;stroke-width:1;"/><path d="M317.4048,112.1514 L317.4048,136.1172 L297.4048,140.1172 L317.4048,144.1172 L317.4048,168.083 A0,0 0 0 0 317.4048,168.083 L480.1987,168.083 A0,0 0 0 0 480.1987,168.083 L480.1987,122.1514 L470.1987,112.1514 L317.4048,112.1514 A0,0 0 0 0 317.4048,112.1514" fill="#F9FAFB" style="stroke:#D1D5DB;stroke-width:0.5;"/><path d="M470.1987,112.1514 L470.1987,122.1514 L480.1987,122.1514 L470.1987,112.1514" fill="#F9FAFB" style="stroke:#D1D5DB;stroke-width:0.5;"/><text fill="#333333" font-family="sans-serif" font-size="13" lengthAdjust="spacing" textLength="123.1699" x="323.4048" y="129.7197">Avatar bar appears.</text><text fill="#333333" font-family="sans-serif" font-size="13" lengthAdjust="spacing" textLength="141.7939" x="323.4048" y="145.0303">Tim's border pulses &#8212;</text><text fill="#333333" font-family="sans-serif" font-size="13" lengthAdjust="spacing" textLength="106.9072" x="323.4048" y="160.3408">he holds control.</text><rect fill="#F3F4F6" height="48.2656" rx="12.5" ry="12.5" style="stroke:#D1D5DB;stroke-width:0.5;" width="136.1504" x="161.2544" y="115.9844"/><text fill="#333333" font-family="sans-serif" font-size="12" lengthAdjust="spacing" textLength="84.2461" x="171.2544" y="137.5859">Opens session</text><text fill="#333333" font-family="sans-serif" font-size="12" lengthAdjust="spacing" textLength="24.6504" x="171.2544" y="151.7188">with</text><text fill="#333333" font-family="sans-serif" font-size="12" font-weight="bold" lengthAdjust="spacing" textLength="87.7031" x="199.7017" y="151.7188">presence: true</text><path d="M327.3511,299.5928 L327.3511,315.9033 L307.3511,319.9033 L327.3511,323.9033 L327.3511,340.2139 A0,0 0 0 0 327.3511,340.2139 L512.8252,340.2139 A0,0 0 0 0 512.8252,340.2139 L512.8252,309.5928 L502.8252,299.5928 L327.3511,299.5928 A0,0 0 0 0 327.3511,299.5928" fill="#F9FAFB" style="stroke:#D1D5DB;stroke-width:0.5;"/><path d="M502.8252,299.5928 L502.8252,309.5928 L512.8252,309.5928 L502.8252,299.5928" fill="#F9FAFB" style="stroke:#D1D5DB;stroke-width:0.5;"/><text fill="#333333" font-family="sans-serif" font-size="13" lengthAdjust="spacing" textLength="164.4741" x="333.3511" y="317.1611">Pin label "line 13" appears</text><text fill="#333333" font-family="sans-serif" font-size="13" lengthAdjust="spacing" textLength="18.0845" x="333.3511" y="332.4717">for</text><text fill="#333333" font-family="sans-serif" font-size="13" font-weight="bold" lengthAdjust="spacing" textLength="16.0977" x="355.5488" y="332.4717">all</text><text fill="#333333" font-family="sans-serif" font-size="13" lengthAdjust="spacing" textLength="51.0479" x="375.7598" y="332.4717">viewers.</text><rect fill="#F3F4F6" height="34.1328" rx="12.5" ry="12.5" style="stroke:#D1D5DB;stroke-width:0.5;" width="156.043" x="151.3081" y="302.8369"/><text fill="#333333" font-family="sans-serif" font-size="12" lengthAdjust="spacing" textLength="136.043" x="161.3081" y="324.4385">Pins line 13 (milestone)</text><polygon fill="#F3F4F6" points="182.3916,471.7236,276.2676,471.7236,288.2676,483.7236,276.2676,495.7236,182.3916,495.7236,170.3916,483.7236,182.3916,471.7236" style="stroke:#D1D5DB;stroke-width:0.5;"/><text fill="#333333" font-family="sans-serif" font-size="11" lengthAdjust="spacing" textLength="93.876" x="182.3916" y="487.8809">Accept handover?</text><text fill="#333333" font-family="sans-serif" font-size="11" lengthAdjust="spacing" textLength="17.4829" x="152.9087" y="481.4033">yes</text><text fill="#333333" font-family="sans-serif" font-size="11" lengthAdjust="spacing" textLength="45.7241" x="288.2676" y="481.4033">no / idle</text><path d="M106.416,515.7236 L106.416,532.0342 L86.416,536.0342 L106.416,540.0342 L106.416,556.3447 A0,0 0 0 0 106.416,556.3447 L300.6689,556.3447 A0,0 0 0 0 300.6689,556.3447 L300.6689,525.7236 L290.6689,515.7236 L106.416,515.7236 A0,0 0 0 0 106.416,515.7236" fill="#F9FAFB" style="stroke:#D1D5DB;stroke-width:0.5;"/><path d="M290.6689,515.7236 L290.6689,525.7236 L300.6689,525.7236 L290.6689,515.7236" fill="#F9FAFB" style="stroke:#D1D5DB;stroke-width:0.5;"/><text fill="#333333" font-family="sans-serif" font-size="13" lengthAdjust="spacing" textLength="106.2407" x="112.416" y="533.292">Toast dismissed.</text><text fill="#333333" font-family="sans-serif" font-size="13" lengthAdjust="spacing" textLength="173.2529" x="112.416" y="548.6025">Tim's border stops pulsing.</text><rect fill="#F3F4F6" height="34.1328" rx="12.5" ry="12.5" style="stroke:#D1D5DB;stroke-width:0.5;" width="65.416" x="21" y="518.9678"/><text fill="#333333" font-family="sans-serif" font-size="12" lengthAdjust="spacing" textLength="45.416" x="31" y="540.5693">Accepts</text><path d="M480.5283,519.5459 L480.5283,535.8564 L460.5283,539.8564 L480.5283,543.8564 L480.5283,560.167 A0,0 0 0 0 480.5283,560.167 L657.8076,560.167 A0,0 0 0 0 657.8076,560.167 L657.8076,529.5459 L647.8076,519.5459 L480.5283,519.5459 A0,0 0 0 0 480.5283,519.5459" fill="#F9FAFB" style="stroke:#D1D5DB;stroke-width:0.5;"/><path d="M647.8076,519.5459 L647.8076,529.5459 L657.8076,529.5459 L647.8076,519.5459" fill="#F9FAFB" style="stroke:#D1D5DB;stroke-width:0.5;"/><text fill="#333333" font-family="sans-serif" font-size="13" lengthAdjust="spacing" textLength="104.0635" x="486.5283" y="537.1143">Idle timer starts.</text><text fill="#333333" font-family="sans-serif" font-size="13" lengthAdjust="spacing" textLength="156.2793" x="486.5283" y="552.4248">Countdown visible to all.</text><rect fill="#F3F4F6" height="48.2656" rx="12.5" ry="12.5" style="stroke:#D1D5DB;stroke-width:0.5;" width="111.1543" x="349.374" y="515.7236"/><text fill="#333333" font-family="sans-serif" font-size="12" lengthAdjust="spacing" textLength="91.1543" x="359.374" y="537.3252">Ignores request</text><text fill="#333333" font-family="sans-serif" font-size="12" lengthAdjust="spacing" textLength="60.4336" x="359.374" y="551.458">(goes idle)</text><rect fill="#F3F4F6" height="48.2656" rx="12.5" ry="12.5" style="stroke:#D1D5DB;stroke-width:0.5;" width="129.5176" x="340.1924" y="652.2549"/><text fill="#333333" font-family="sans-serif" font-size="12" lengthAdjust="spacing" textLength="109.5176" x="350.1924" y="673.8564">Auto-transfer fires</text><text fill="#333333" font-family="sans-serif" font-size="12" lengthAdjust="spacing" textLength="77.9297" x="350.1924" y="687.9893">(idle timeout)</text><polygon fill="#F3F4F6" points="229.3296,807.0518,241.3296,819.0518,229.3296,831.0518,217.3296,819.0518,229.3296,807.0518" style="stroke:#D1D5DB;stroke-width:0.5;"/><line style="stroke:#000000;stroke-width:1.5;" x1="15" x2="15" y1="49.7852" y2="873.0518"/><path d="M1007.6665,184.8389 L1007.6665,201.1494 L987.6665,205.1494 L1007.6665,209.1494 L1007.6665,225.46 A0,0 0 0 0 1007.6665,225.46 L1213.4595,225.46 A0,0 0 0 0 1213.4595,225.46 L1213.4595,194.8389 L1203.4595,184.8389 L1007.6665,184.8389 A0,0 0 0 0 1007.6665,184.8389" fill="#F9FAFB" style="stroke:#D1D5DB;stroke-width:0.5;"/><path d="M1203.4595,184.8389 L1203.4595,194.8389 L1213.4595,194.8389 L1203.4595,184.8389" fill="#F9FAFB" style="stroke:#D1D5DB;stroke-width:0.5;"/><text fill="#333333" font-family="sans-serif" font-size="13" lengthAdjust="spacing" textLength="167.6479" x="1013.6665" y="202.4072">Jane's avatar added to bar.</text><text fill="#333333" font-family="sans-serif" font-size="13" lengthAdjust="spacing" textLength="184.793" x="1013.6665" y="217.7178">Edge bar tracks her viewport.</text><rect fill="#F3F4F6" height="34.1328" rx="12.5" ry="12.5" style="stroke:#D1D5DB;stroke-width:0.5;" width="129.0195" x="858.647" y="188.083"/><text fill="#333333" font-family="sans-serif" font-size="12" lengthAdjust="spacing" textLength="109.0195" x="868.647" y="209.6846">Joins via share link</text><path d="M1017.27,356.9697 L1017.27,373.2803 L997.27,377.2803 L1017.27,381.2803 L1017.27,397.5908 A0,0 0 0 0 1017.27,397.5908 L1242.6201,397.5908 A0,0 0 0 0 1242.6201,397.5908 L1242.6201,366.9697 L1232.6201,356.9697 L1017.27,356.9697 A0,0 0 0 0 1017.27,356.9697" fill="#F9FAFB" style="stroke:#D1D5DB;stroke-width:0.5;"/><path d="M1232.6201,356.9697 L1232.6201,366.9697 L1242.6201,366.9697 L1232.6201,356.9697" fill="#F9FAFB" style="stroke:#D1D5DB;stroke-width:0.5;"/><text fill="#333333" font-family="sans-serif" font-size="13" lengthAdjust="spacing" textLength="171.2598" x="1023.27" y="374.5381">Blue highlight visible to all.</text><text fill="#333333" font-family="sans-serif" font-size="13" lengthAdjust="spacing" textLength="204.3501" x="1023.27" y="389.8486">Jane's name shown on selection.</text><rect fill="#F3F4F6" height="34.1328" rx="12.5" ry="12.5" style="stroke:#D1D5DB;stroke-width:0.5;" width="148.2266" x="849.0435" y="360.2139"/><text fill="#333333" font-family="sans-serif" font-size="12" lengthAdjust="spacing" textLength="128.2266" x="859.0435" y="381.8154">Selects a block of text</text><rect fill="#F3F4F6" height="34.1328" rx="12.5" ry="12.5" style="stroke:#D1D5DB;stroke-width:0.5;" width="248.8496" x="798.7319" y="417.5908"/><text fill="#333333" font-family="sans-serif" font-size="12" lengthAdjust="spacing" textLength="228.8496" x="808.7319" y="439.1924">Clicks Tim's avatar &#8594; "Request control"</text><rect fill="#F3F4F6" height="48.2656" rx="12.5" ry="12.5" style="stroke:#D1D5DB;stroke-width:0.5;" width="157.4551" x="668.8076" y="583.9893"/><text fill="#333333" font-family="sans-serif" font-size="12" lengthAdjust="spacing" textLength="137.4551" x="678.8076" y="605.5908">Border starts pulsing &#8212;</text><text fill="#333333" font-family="sans-serif" font-size="12" lengthAdjust="spacing" textLength="103.4707" x="678.8076" y="619.7236">Jane now controls</text><rect fill="#F3F4F6" height="34.1328" rx="12.5" ry="12.5" style="stroke:#D1D5DB;stroke-width:0.5;" width="121.6777" x="686.6963" y="652.2549"/><text fill="#333333" font-family="sans-serif" font-size="12" lengthAdjust="spacing" textLength="101.6777" x="696.6963" y="673.8564">Types commands</text><line style="stroke:#000000;stroke-width:1.5;" x1="662.8076" x2="662.8076" y1="49.7852" y2="873.0518"/><path d="M1402.6396,242.2158 L1402.6396,258.5264 L1382.6396,262.5264 L1402.6396,266.5264 L1402.6396,282.8369 A0,0 0 0 0 1402.6396,282.8369 L1585.105,282.8369 A0,0 0 0 0 1585.105,282.8369 L1585.105,252.2158 L1575.105,242.2158 L1402.6396,242.2158 A0,0 0 0 0 1402.6396,242.2158" fill="#F9FAFB" style="stroke:#D1D5DB;stroke-width:0.5;"/><path d="M1575.105,242.2158 L1575.105,252.2158 L1585.105,252.2158 L1575.105,242.2158" fill="#F9FAFB" style="stroke:#D1D5DB;stroke-width:0.5;"/><text fill="#333333" font-family="sans-serif" font-size="13" lengthAdjust="spacing" textLength="161.4653" x="1408.6396" y="259.7842">Red Hawk's avatar added.</text><text fill="#333333" font-family="sans-serif" font-size="13" lengthAdjust="spacing" textLength="161.2622" x="1408.6396" y="275.0947">Three people now visible.</text><rect fill="#F3F4F6" height="34.1328" rx="12.5" ry="12.5" style="stroke:#D1D5DB;stroke-width:0.5;" width="129.0195" x="1253.6201" y="245.46"/><text fill="#333333" font-family="sans-serif" font-size="12" lengthAdjust="spacing" textLength="109.0195" x="1263.6201" y="267.0615">Joins via share link</text><path d="M1598.0337,591.6338 L1598.0337,607.9443 L1578.0337,611.9443 L1598.0337,615.9443 L1598.0337,632.2549 A0,0 0 0 0 1598.0337,632.2549 L1749.2813,632.2549 A0,0 0 0 0 1749.2813,632.2549 L1749.2813,601.6338 L1739.2813,591.6338 L1598.0337,591.6338 A0,0 0 0 0 1598.0337,591.6338" fill="#F9FAFB" style="stroke:#D1D5DB;stroke-width:0.5;"/><path d="M1739.2813,591.6338 L1739.2813,601.6338 L1749.2813,601.6338 L1739.2813,591.6338" fill="#F9FAFB" style="stroke:#D1D5DB;stroke-width:0.5;"/><text fill="#333333" font-family="sans-serif" font-size="13" lengthAdjust="spacing" textLength="126.6929" x="1604.0337" y="609.2021">Keystrokes buffered</text><text fill="#333333" font-family="sans-serif" font-size="13" lengthAdjust="spacing" textLength="130.2476" x="1604.0337" y="624.5127">by TransferManager.</text><rect fill="#F3F4F6" height="34.1328" rx="12.5" ry="12.5" style="stroke:#D1D5DB;stroke-width:0.5;" width="168.5645" x="1409.4692" y="594.8779"/><text fill="#333333" font-family="sans-serif" font-size="12" lengthAdjust="spacing" textLength="148.5645" x="1419.4692" y="616.4795">Has been typing in queue</text><rect fill="#F3F4F6" height="76.5313" rx="12.5" ry="12.5" style="stroke:#D1D5DB;stroke-width:0.5;" width="139.2734" x="1424.1147" y="720.5205"/><text fill="#333333" font-family="sans-serif" font-size="12" lengthAdjust="spacing" textLength="110.3848" x="1434.1147" y="742.1221">Receives control &#8212;</text><text fill="#333333" font-family="sans-serif" font-size="12" lengthAdjust="spacing" textLength="83.9648" x="1434.1147" y="756.2549">border pulses;</text><text fill="#333333" font-family="sans-serif" font-size="12" lengthAdjust="spacing" textLength="119.2734" x="1434.1147" y="770.3877">:Buffered keystrokes</text><text fill="#333333" font-family="sans-serif" font-size="12" lengthAdjust="spacing" textLength="117.5039" x="1434.1147" y="784.5205">replayed to terminal</text><ellipse cx="1318.1299" cy="862.0518" fill="none" rx="11" ry="11" style="stroke:#222222;stroke-width:1;"/><ellipse cx="1318.1299" cy="862.0518" fill="#222222" rx="6" ry="6" style="stroke:#222222;stroke-width:1;"/><line style="stroke:#000000;stroke-width:1.5;" x1="1247.6201" x2="1247.6201" y1="49.7852" y2="873.0518"/><line style="stroke:#000000;stroke-width:1.5;" x1="1754.2813" x2="1754.2813" y1="49.7852" y2="873.0518"/><line style="stroke:#2563EB;stroke-width:1;" x1="229.3296" x2="229.3296" y1="95.9844" y2="115.9844"/><polygon fill="#2563EB" points="225.3296,105.9844,229.3296,115.9844,233.3296,105.9844,229.3296,109.9844" style="stroke:#2563EB;stroke-width:1;"/><line style="stroke:#2563EB;stroke-width:1;" x1="170.3916" x2="53.708" y1="483.7236" y2="483.7236"/><line style="stroke:#2563EB;stroke-width:1;" x1="53.708" x2="53.708" y1="483.7236" y2="518.9678"/><polygon fill="#2563EB" points="49.708,508.9678,53.708,518.9678,57.708,508.9678,53.708,512.9678" style="stroke:#2563EB;stroke-width:1;"/><line style="stroke:#2563EB;stroke-width:1;" x1="288.2676" x2="404.9512" y1="483.7236" y2="483.7236"/><line style="stroke:#2563EB;stroke-width:1;" x1="404.9512" x2="404.9512" y1="483.7236" y2="515.7236"/><polygon fill="#2563EB" points="400.9512,505.7236,404.9512,515.7236,408.9512,505.7236,404.9512,509.7236" style="stroke:#2563EB;stroke-width:1;"/><line style="stroke:#2563EB;stroke-width:1;" x1="923.1567" x2="923.1567" y1="394.3467" y2="417.5908"/><polygon fill="#2563EB" points="919.1567,407.5908,923.1567,417.5908,927.1567,407.5908,923.1567,411.5908" style="stroke:#2563EB;stroke-width:1;"/><line style="stroke:#2563EB;stroke-width:1;" x1="747.5352" x2="747.5352" y1="632.2549" y2="652.2549"/><polygon fill="#2563EB" points="743.5352,642.2549,747.5352,652.2549,751.5352,642.2549,747.5352,646.2549" style="stroke:#2563EB;stroke-width:1;"/><line style="stroke:#2563EB;stroke-width:1;" x1="229.3296" x2="229.3296" y1="164.25" y2="173.083"/><line style="stroke:#2563EB;stroke-width:1;" x1="229.3296" x2="923.1567" y1="173.083" y2="173.083"/><line style="stroke:#2563EB;stroke-width:1;" x1="923.1567" x2="923.1567" y1="173.083" y2="188.083"/><polygon fill="#2563EB" points="919.1567,178.083,923.1567,188.083,927.1567,178.083,923.1567,182.083" style="stroke:#2563EB;stroke-width:1;"/><line style="stroke:#2563EB;stroke-width:1;" x1="923.1567" x2="923.1567" y1="222.2158" y2="230.46"/><line style="stroke:#2563EB;stroke-width:1;" x1="923.1567" x2="1318.1299" y1="230.46" y2="230.46"/><line style="stroke:#2563EB;stroke-width:1;" x1="1318.1299" x2="1318.1299" y1="230.46" y2="245.46"/><polygon fill="#2563EB" points="1314.1299,235.46,1318.1299,245.46,1322.1299,235.46,1318.1299,239.46" style="stroke:#2563EB;stroke-width:1;"/><line style="stroke:#2563EB;stroke-width:1;" x1="1318.1299" x2="1318.1299" y1="279.5928" y2="287.8369"/><line style="stroke:#2563EB;stroke-width:1;" x1="1318.1299" x2="229.3296" y1="287.8369" y2="287.8369"/><line style="stroke:#2563EB;stroke-width:1;" x1="229.3296" x2="229.3296" y1="287.8369" y2="302.8369"/><polygon fill="#2563EB" points="225.3296,292.8369,229.3296,302.8369,233.3296,292.8369,229.3296,296.8369" style="stroke:#2563EB;stroke-width:1;"/><line style="stroke:#2563EB;stroke-width:1;" x1="229.3296" x2="229.3296" y1="336.9697" y2="345.2139"/><line style="stroke:#2563EB;stroke-width:1;" x1="229.3296" x2="923.1567" y1="345.2139" y2="345.2139"/><line style="stroke:#2563EB;stroke-width:1;" x1="923.1567" x2="923.1567" y1="345.2139" y2="360.2139"/><polygon fill="#2563EB" points="919.1567,350.2139,923.1567,360.2139,927.1567,350.2139,923.1567,354.2139" style="stroke:#2563EB;stroke-width:1;"/><line style="stroke:#2563EB;stroke-width:1;" x1="53.708" x2="53.708" y1="553.1006" y2="568.9893"/><line style="stroke:#2563EB;stroke-width:1;" x1="53.708" x2="747.5352" y1="568.9893" y2="568.9893"/><line style="stroke:#2563EB;stroke-width:1;" x1="747.5352" x2="747.5352" y1="568.9893" y2="583.9893"/><polygon fill="#2563EB" points="743.5352,573.9893,747.5352,583.9893,751.5352,573.9893,747.5352,577.9893" style="stroke:#2563EB;stroke-width:1;"/><line style="stroke:#2563EB;stroke-width:1;" x1="404.9512" x2="404.9512" y1="563.9893" y2="575.7559"/><line style="stroke:#2563EB;stroke-width:1;" x1="404.9512" x2="1493.7515" y1="575.7559" y2="575.7559"/><line style="stroke:#2563EB;stroke-width:1;" x1="1493.7515" x2="1493.7515" y1="575.7559" y2="594.8779"/><polygon fill="#2563EB" points="1489.7515,584.8779,1493.7515,594.8779,1497.7515,584.8779,1493.7515,588.8779" style="stroke:#2563EB;stroke-width:1;"/><line style="stroke:#2563EB;stroke-width:1;" x1="1493.7515" x2="1493.7515" y1="629.0107" y2="637.2549"/><line style="stroke:#2563EB;stroke-width:1;" x1="1493.7515" x2="404.9512" y1="637.2549" y2="637.2549"/><line style="stroke:#2563EB;stroke-width:1;" x1="404.9512" x2="404.9512" y1="637.2549" y2="652.2549"/><polygon fill="#2563EB" points="400.9512,642.2549,404.9512,652.2549,408.9512,642.2549,404.9512,646.2549" style="stroke:#2563EB;stroke-width:1;"/><line style="stroke:#2563EB;stroke-width:1;" x1="404.9512" x2="404.9512" y1="700.5205" y2="705.5205"/><line style="stroke:#2563EB;stroke-width:1;" x1="404.9512" x2="1493.7515" y1="705.5205" y2="705.5205"/><line style="stroke:#2563EB;stroke-width:1;" x1="1493.7515" x2="1493.7515" y1="705.5205" y2="720.5205"/><polygon fill="#2563EB" points="1489.7515,710.5205,1493.7515,720.5205,1497.7515,710.5205,1493.7515,714.5205" style="stroke:#2563EB;stroke-width:1;"/><line style="stroke:#2563EB;stroke-width:1;" x1="747.5352" x2="747.5352" y1="686.3877" y2="801.0518"/><line style="stroke:#2563EB;stroke-width:1;" x1="747.5352" x2="199.3296" y1="801.0518" y2="801.0518"/><line style="stroke:#2563EB;stroke-width:1;" x1="199.3296" x2="199.3296" y1="801.0518" y2="819.0518"/><line style="stroke:#2563EB;stroke-width:1;" x1="199.3296" x2="217.3296" y1="819.0518" y2="819.0518"/><polygon fill="#2563EB" points="207.3296,815.0518,217.3296,819.0518,207.3296,823.0518,211.3296,819.0518" style="stroke:#2563EB;stroke-width:1;"/><line style="stroke:#2563EB;stroke-width:1;" x1="1493.7515" x2="1493.7515" y1="797.0518" y2="819.0518"/><line style="stroke:#2563EB;stroke-width:1;" x1="1493.7515" x2="241.3296" y1="819.0518" y2="819.0518"/><polygon fill="#2563EB" points="251.3296,815.0518,241.3296,819.0518,251.3296,823.0518,247.3296,819.0518" style="stroke:#2563EB;stroke-width:1;"/><line style="stroke:#2563EB;stroke-width:1;" x1="923.1567" x2="923.1567" y1="451.7236" y2="456.7236"/><line style="stroke:#2563EB;stroke-width:1;" x1="923.1567" x2="229.3296" y1="456.7236" y2="456.7236"/><line style="stroke:#2563EB;stroke-width:1;" x1="229.3296" x2="229.3296" y1="456.7236" y2="471.7236"/><polygon fill="#2563EB" points="225.3296,461.7236,229.3296,471.7236,233.3296,461.7236,229.3296,465.7236" style="stroke:#2563EB;stroke-width:1;"/><line style="stroke:#2563EB;stroke-width:1;" x1="229.3296" x2="229.3296" y1="831.0518" y2="836.0518"/><line style="stroke:#2563EB;stroke-width:1;" x1="229.3296" x2="1318.1299" y1="836.0518" y2="836.0518"/><line style="stroke:#2563EB;stroke-width:1;" x1="1318.1299" x2="1318.1299" y1="836.0518" y2="851.0518"/><polygon fill="#2563EB" points="1314.1299,841.0518,1318.1299,851.0518,1322.1299,841.0518,1318.1299,845.0518" style="stroke:#2563EB;stroke-width:1;"/><text fill="#333333" font-family="sans-serif" font-size="18" lengthAdjust="spacing" textLength="210.4717" x="233.668" y="67.1875">Tim (admin / controller)</text><text fill="#333333" font-family="sans-serif" font-size="18" lengthAdjust="spacing" textLength="129.0146" x="890.7065" y="67.1875">Jane (operator)</text><text fill="#333333" font-family="sans-serif" font-size="18" lengthAdjust="spacing" textLength="159.2051" x="1421.3481" y="67.1875">Red Hawk (viewer)</text><?plantuml-src ZLNDRjD04BxxAKRXW6k9GXjQm3cWfe3QeWhKzfZBsZkELrxlcjrrKaizSE8144_O9s7MTaB-ck935E_yVTytCsidd4JuX6bnNT_3uyy_SAwbP8asp8aPmYrQAxI2ArqRXKqGs4AeYXbMGiBIOcfqhJY5Q0ClilPPyU2OiLgwBrgvtcNOFYikp1Wzxut79wT3J5QDgTDch0r7qxkS9k-Etx_PSjb2yY5ZsKOcCHEkMKl6Z_W9t-crbM-OlSrELpoLThW_L-lnB2xwTSAHmBkI1GzteeIGyL8eU0qfoMYeEMWE7WBhA388ucyLAWkswz94pONB8OegWnPLYZ4uKsCKZG8F1uoOvYu0E9in2gS66c1LXSpOGpgbOYyj92qGg6f9IVr0a2L7oBNaTW7XC435MuQ4yOefX51NI1EZFRJuIWl2D1CCRCuCWXIgs43WWwWOwu0mpf63qnwHH_APJx55vmmfQAc-eNGuhxHnQxLlAEo2pGi8lHd_j_eYR0D1Aq9k4A52NT5QA3sdH5Oa4jVAFjsM-BilJYKHZeOGbaAYTLhXmGO2SWFQCfGmw9q7YrQGDQCXY28cPHH1Hym-8_ajIamTqO54whG0dO73UxTHTInhwYIzI7-meEQ5frg7_zgYM8cadfuheDMtRMuQhrKCyRaKlZNTqFGgFlxw3OCR_54JwOKkWz5UmKG6uLcQOkKWPuhh6PgF1-1oL10sQ0y8LDpPxOZ-hz6XRcb6bRYmfR2sQ-3679FwbMsdMQYfjoyf06phICN6YpZQhsMWtuE9QjtzJFGCMaJnNLEXtuoo9FnqXBGu42fDJ0MNw1diuKy9BgTAqxw2wOIRg72gwRKDti7valkMYN89icDzJjUCuxvbssrTvRnZPGZ31IF5a4HtJUNv4b02K-EE-b-niOI_88X9dMLeaBVdIGDtXYbB9zTCiIcQpT9xLJYhdNxb-WIG2LA4b10BihfshHXFuB_15EbpjRoXkeQjtMMZYOh7FM0ebYGcoc0bMTDTG0uDmMDov4TTPFIve_a9_W80?></g></svg>