<?plantuml 1.2026.2?><svg xmlns="http://www.w3.org/2000/svg" xmlns:xlink="http://www.w3.org/1999/xlink" contentStyleType="text/css" data-diagram-type="SEQUENCE" height="1694px" preserveAspectRatio="none" style="width:1038px;height:1694px;background:#FFFFFF;" version="1.1" viewBox="0 0 1038 1694" width="1038px" zoomAndPan="magnify"><title>undef-terminal &#8212; Terminal Sharing Journey</title><defs/><g><text fill="#333333" font-family="sans-serif" font-size="14" font-weight="bold" lengthAdjust="spacing" textLength="318.4385" x="355.8335" y="28.5352">undef-terminal &#8212; Terminal Sharing Journey</text><g class="participant-lifeline" data-entity-uid="part1" data-qualified-name="Tim" id="part1-lifeline"><g><title>Tim</title><rect fill="#000000" fill-opacity="0.00000" height="1461.459" width="8" x="89.7271" y="135.4648"/><line style="stroke:#D1D5DB;stroke-width:0.5;stroke-dasharray:5,5;" x1="93" x2="93" y1="135.4648" y2="1596.9238"/></g></g><g class="participant-lifeline" data-entity-uid="part2" data-qualified-name="CLI" id="part2-lifeline"><g><title>uterm share</title><rect fill="#000000" fill-opacity="0.00000" height="1461.459" width="8" x="224.0239" y="135.4648"/><line style="stroke:#D1D5DB;stroke-width:0.5;stroke-dasharray:5,5;" x1="228.0049" x2="228.0049" y1="135.4648" y2="1596.9238"/></g></g><g class="participant-lifeline" data-entity-uid="part3" data-qualified-name="S" id="part3-lifeline"><g><title>Server</title><rect fill="#000000" fill-opacity="0.00000" height="1461.459" width="8" x="512.188" y="135.4648"/><line style="stroke:#D1D5DB;stroke-width:0.5;stroke-dasharray:5,5;" x1="516.0156" x2="516.0156" y1="135.4648" y2="1596.9238"/></g></g><g class="participant-lifeline" data-entity-uid="part4" data-qualified-name="Jane" id="part4-lifeline"><g><title>Jane.s Browser</title><rect fill="#000000" fill-opacity="0.00000" height="1461.459" width="8" x="769.623" y="135.4648"/><line style="stroke:#D1D5DB;stroke-width:0.5;stroke-dasharray:5,5;" x1="773.0332" x2="773.0332" y1="135.4648" y2="1596.9238"/></g></g><g class="participant-lifeline" data-entity-uid="part5" data-qualified-name="RH" id="part5-lifeline"><g><title>Red Hawk.s Browser</title><rect fill="#000000" fill-opacity="0.00000" height="1461.459" width="8" x="909.957" y="135.4648"/><line style="stroke:#D1D5DB;stroke-width:0.5;stroke-dasharray:5,5;" x1="913.2129" x2="913.2129" y1="135.4648" y2="1596.9238"/></g></g><g class="participant participant-head" data-entity-uid="part1" data-qualified-name="Tim" id="part1-head"><text fill="#333333" font-family="sans-serif" font-size="14" lengthAdjust="spacing" textLength="25.9697" x="77.7422" y="116.0234">Tim</text><text fill="#333333" font-family="sans-serif" font-size="14" lengthAdjust="spacing" textLength="51.4541" x="65" y="132.5117">(admin)</text><ellipse cx="93.7271" cy="50.9883" fill="#E2E2F0" rx="8" ry="8" style="stroke:#6B7280;stroke-width:0.5;"/><path d="M93.7271,58.9883 L93.7271,85.9883 M80.7271,66.9883 L106.7271,66.9883 M93.7271,85.9883 L80.7271,100.9883 M93.7271,85.9883 L106.7271,100.9883" fill="none" style="stroke:#6B7280;stroke-width:0.5;"/></g><g class="participant participant-tail" data-entity-uid="part1" data-qualified-name="Tim" id="part1-tail"><text fill="#333333" font-family="sans-serif" font-size="14" lengthAdjust="spacing" textLength="25.9697" x="77.7422" y="1609.459">Tim</text><text fill="#333333" font-family="sans-serif" font-size="14" lengthAdjust="spacing" textLength="51.4541" x="65" y="1625.9473">(admin)</text><ellipse cx="93.7271" cy="1637.4004" fill="#E2E2F0" rx="8" ry="8" style="stroke:#6B7280;stroke-width:0.5;"/><path d="M93.7271,1645.4004 L93.7271,1672.4004 M80.7271,1653.4004 L106.7271,1653.4004 M93.7271,1672.4004 L80.7271,1687.4004 M93.7271,1672.4004 L106.7271,1687.4004" fill="none" style="stroke:#6B7280;stroke-width:0.5;"/></g><g class="participant participant-head" data-entity-uid="part2" data-qualified-name="CLI" id="part2-head"><rect fill="#F3F4F6" height="46.9766" rx="2.5" ry="2.5" style="stroke:#D1D5DB;stroke-width:0.5;" width="96.0381" x="180.0049" y="87.4883"/><text fill="#333333" font-family="sans-serif" font-size="14" lengthAdjust="spacing" textLength="82.0381" x="187.0049" y="108.0234">uterm share</text><text fill="#333333" font-family="sans-serif" font-size="14" lengthAdjust="spacing" textLength="30.29" x="212.8789" y="124.5117">(CLI)</text></g><g class="participant participant-tail" data-entity-uid="part2" data-qualified-name="CLI" id="part2-tail"><rect fill="#F3F4F6" height="46.9766" rx="2.5" ry="2.5" style="stroke:#D1D5DB;stroke-width:0.5;" width="96.0381" x="180.0049" y="1595.9238"/><text fill="#333333" font-family="sans-serif" font-size="14" lengthAdjust="spacing" textLength="82.0381" x="187.0049" y="1616.459">uterm share</text><text fill="#333333" font-family="sans-serif" font-size="14" lengthAdjust="spacing" textLength="30.29" x="212.8789" y="1632.9473">(CLI)</text></g><g class="participant participant-head" data-entity-uid="part3" data-qualified-name="S" id="part3-head"><rect fill="#F3F4F6" height="46.9766" rx="2.5" ry="2.5" style="stroke:#D1D5DB;stroke-width:0.5;" width="86.3447" x="473.0156" y="87.4883"/><text fill="#333333" font-family="sans-serif" font-size="14" lengthAdjust="spacing" textLength="41.8428" x="495.2666" y="108.0234">Server</text><text fill="#333333" font-family="sans-serif" font-size="14" lengthAdjust="spacing" textLength="72.3447" x="480.0156" y="124.5117">(TermHub)</text></g><g class="participant participant-tail" data-entity-uid="part3" data-qualified-name="S" id="part3-tail"><rect fill="#F3F4F6" height="46.9766" rx="2.5" ry="2.5" style="stroke:#D1D5DB;stroke-width:0.5;" width="86.3447" x="473.0156" y="1595.9238"/><text fill="#333333" font-family="sans-serif" font-size="14" lengthAdjust="spacing" textLength="41.8428" x="495.2666" y="1616.459">Server</text><text fill="#333333" font-family="sans-serif" font-size="14" lengthAdjust="spacing" textLength="72.3447" x="480.0156" y="1632.9473">(TermHub)</text></g><g class="participant participant-head" data-entity-uid="part4" data-qualified-name="Jane" id="part4-head"><rect fill="#F3F4F6" height="46.9766" rx="2.5" ry="2.5" style="stroke:#D1D5DB;stroke-width:0.5;" width="111.1797" x="718.0332" y="87.4883"/><text fill="#333333" font-family="sans-serif" font-size="14" lengthAdjust="spacing" textLength="97.1797" x="725.0332" y="108.0234">Jane's Browser</text><text fill="#333333" font-family="sans-serif" font-size="14" lengthAdjust="spacing" textLength="67.3408" x="739.9526" y="124.5117">(operator)</text></g><g class="participant participant-tail" data-entity-uid="part4" data-qualified-name="Jane" id="part4-tail"><rect fill="#F3F4F6" height="46.9766" rx="2.5" ry="2.5" style="stroke:#D1D5DB;stroke-width:0.5;" width="111.1797" x="718.0332" y="1595.9238"/><text fill="#333333" font-family="sans-serif" font-size="14" lengthAdjust="spacing" textLength="97.1797" x="725.0332" y="1616.459">Jane's Browser</text><text fill="#333333" font-family="sans-serif" font-size="14" lengthAdjust="spacing" textLength="67.3408" x="739.9526" y="1632.9473">(operator)</text></g><g class="participant participant-head" data-entity-uid="part5" data-qualified-name="RH" id="part5-head"><rect fill="#F3F4F6" height="46.9766" rx="2.5" ry="2.5" style="stroke:#D1D5DB;stroke-width:0.5;" width="149.4883" x="839.2129" y="87.4883"/><text fill="#333333" font-family="sans-serif" font-size="14" lengthAdjust="spacing" textLength="135.4883" x="846.2129" y="108.0234">Red Hawk's Browser</text><text fill="#333333" font-family="sans-serif" font-size="14" lengthAdjust="spacing" textLength="52.5137" x="887.7002" y="124.5117">(viewer)</text></g><g class="participant participant-tail" data-entity-uid="part5" data-qualified-name="RH" id="part5-tail"><rect fill="#F3F4F6" height="46.9766" rx="2.5" ry="2.5" style="stroke:#D1D5DB;stroke-width:0.5;" width="149.4883" x="839.2129" y="1595.9238"/><text fill="#333333" font-family="sans-serif" font-size="14" lengthAdjust="spacing" textLength="135.4883" x="846.2129" y="1616.459">Red Hawk's Browser</text><text fill="#333333" font-family="sans-serif" font-size="14" lengthAdjust="spacing" textLength="52.5137" x="887.7002" y="1632.9473">(viewer)</text></g><rect fill="#EEEEEE" height="3" style="stroke:#EEEEEE;stroke-width:1;" width="1031.1055" x="0" y="166.1201"/><line style="stroke:#000000;stroke-width:1;" x1="0" x2="1031.1055" y1="166.1201" y2="166.1201"/><line style="stroke:#000000;stroke-width:1;" x1="0" x2="1031.1055" y1="169.1201" y2="169.1201"/><rect fill="#EEEEEE" height="23.3105" style="stroke:#000000;stroke-width:2;" width="142.229" x="444.4382" y="155.4648"/><text fill="#333333" font-family="sans-serif" font-size="13" font-weight="bold" lengthAdjust="spacing" textLength="123.9443" x="450.4382" y="172.0332">Tim starts sharing</text><g class="message" data-entity-1="part1" data-entity-2="part2" id="msg1"><polygon fill="#2563EB" points="216.0239,206.0859,226.0239,210.0859,216.0239,214.0859,220.0239,210.0859" style="stroke:#2563EB;stroke-width:1;"/><line style="stroke:#2563EB;stroke-width:1;" x1="93.7271" x2="222.0239" y1="210.0859" y2="210.0859"/><text fill="#333333" font-family="sans-serif" font-size="13" lengthAdjust="spacing" textLength="76.1782" x="100.7271" y="205.3438">uterm share</text></g><g class="message" data-entity-1="part2" data-entity-2="part3" id="msg2"><polygon fill="#2563EB" points="504.188,250.707,514.188,254.707,504.188,258.707,508.188,254.707" style="stroke:#2563EB;stroke-width:1;"/><line style="stroke:#2563EB;stroke-width:1;" x1="228.0239" x2="510.188" y1="254.707" y2="254.707"/><text fill="#333333" font-family="sans-serif" font-size="13" lengthAdjust="spacing" textLength="121.5513" x="235.0239" y="234.6543">WebSocket connect</text><text fill="#333333" font-family="sans-serif" font-size="13" lengthAdjust="spacing" textLength="179.2705" x="235.0239" y="249.9648">(worker role + bearer token)</text></g><g class="message" data-entity-1="part3" data-entity-2="part2" id="msg3"><polygon fill="#2563EB" points="239.0239,295.3281,229.0239,299.3281,239.0239,303.3281,235.0239,299.3281" style="stroke:#2563EB;stroke-width:1;"/><line style="stroke:#2563EB;stroke-width:1;" x1="233.0239" x2="515.188" y1="299.3281" y2="299.3281"/><text fill="#333333" font-family="sans-serif" font-size="13" lengthAdjust="spacing" textLength="173.4053" x="245.0239" y="279.2754">hello {input_mode: "hijack",</text><text fill="#333333" font-family="sans-serif" font-size="13" lengthAdjust="spacing" textLength="150.8838" x="253.2505" y="294.5859">presence_enabled: true}</text></g><path d="M153,312.3281 L153,352.3281 L301,352.3281 L301,322.3281 L291,312.3281 L153,312.3281" fill="#F9FAFB" style="stroke:#D1D5DB;stroke-width:0.5;"/><path d="M291,312.3281 L291,322.3281 L301,322.3281 L291,312.3281" fill="#F9FAFB" style="stroke:#D1D5DB;stroke-width:0.5;"/><text fill="#333333" font-family="sans-serif" font-size="13" lengthAdjust="spacing" textLength="127.0737" x="159" y="329.8965">PTY process spawns</text><text fill="#333333" font-family="sans-serif" font-size="13" lengthAdjust="spacing" textLength="95.7798" x="159" y="345.207">Terminal is live</text><rect fill="#EEEEEE" height="3" style="stroke:#EEEEEE;stroke-width:1;" width="1031.1055" x="0" y="378.6045"/><line style="stroke:#000000;stroke-width:1;" x1="0" x2="1031.1055" y1="378.6045" y2="378.6045"/><line style="stroke:#000000;stroke-width:1;" x1="0" x2="1031.1055" y1="381.6045" y2="381.6045"/><rect fill="#EEEEEE" height="23.3105" style="stroke:#000000;stroke-width:2;" width="137.9253" x="446.5901" y="367.9492"/><text fill="#333333" font-family="sans-serif" font-size="13" font-weight="bold" lengthAdjust="spacing" textLength="119.6406" x="452.5901" y="384.5176">Jane joins via link</text><g class="message" data-entity-1="part4" data-entity-2="part3" id="msg4"><polygon fill="#2563EB" points="527.188,433.8809,517.188,437.8809,527.188,441.8809,523.188,437.8809" style="stroke:#2563EB;stroke-width:1;"/><line style="stroke:#2563EB;stroke-width:1;" x1="521.188" x2="772.623" y1="437.8809" y2="437.8809"/><text fill="#333333" font-family="sans-serif" font-size="13" lengthAdjust="spacing" textLength="121.5513" x="533.188" y="417.8281">WebSocket connect</text><text fill="#333333" font-family="sans-serif" font-size="13" lengthAdjust="spacing" textLength="132.8945" x="533.188" y="433.1387">(operator role + JWT)</text></g><g class="message" data-entity-1="part3" data-entity-2="part4" id="msg5"><polygon fill="#2563EB" points="761.623,478.502,771.623,482.502,761.623,486.502,765.623,482.502" style="stroke:#2563EB;stroke-width:1;"/><line style="stroke:#2563EB;stroke-width:1;" x1="516.188" x2="767.623" y1="482.502" y2="482.502"/><text fill="#333333" font-family="sans-serif" font-size="13" lengthAdjust="spacing" textLength="165.8452" x="523.188" y="462.4492">hello {worker_online: true,</text><text fill="#333333" font-family="sans-serif" font-size="13" lengthAdjust="spacing" textLength="150.8838" x="531.4146" y="477.7598">presence_enabled: true}</text></g><g class="message" data-entity-1="part3" data-entity-2="part4" id="msg6"><polygon fill="#2563EB" points="761.623,507.8125,771.623,511.8125,761.623,515.8125,765.623,511.8125" style="stroke:#2563EB;stroke-width:1;"/><line style="stroke:#2563EB;stroke-width:1;" x1="516.188" x2="767.623" y1="511.8125" y2="511.8125"/><text fill="#333333" font-family="sans-serif" font-size="13" lengthAdjust="spacing" textLength="178.4771" x="523.188" y="507.0703">presence_sync {users: [Tim]}</text></g><g class="message" data-entity-1="part4" data-entity-2="part3" id="msg7"><polygon fill="#2563EB" points="527.188,552.4336,517.188,556.4336,527.188,560.4336,523.188,556.4336" style="stroke:#2563EB;stroke-width:1;"/><line style="stroke:#2563EB;stroke-width:1;" x1="521.188" x2="772.623" y1="556.4336" y2="556.4336"/><text fill="#333333" font-family="sans-serif" font-size="13" lengthAdjust="spacing" textLength="199.1323" x="533.188" y="536.3809">presence_update {scroll_line: 0,</text><text fill="#333333" font-family="sans-serif" font-size="13" lengthAdjust="spacing" textLength="83.3257" x="541.4146" y="551.6914">name: "Jane"}</text></g><g class="message" data-entity-1="part3" data-entity-2="part2" id="msg8"><polygon fill="#2563EB" points="239.0239,581.7441,229.0239,585.7441,239.0239,589.7441,235.0239,585.7441" style="stroke:#2563EB;stroke-width:1;"/><line style="stroke:#2563EB;stroke-width:1;" x1="233.0239" x2="515.188" y1="585.7441" y2="585.7441"/><text fill="#333333" font-family="sans-serif" font-size="13" lengthAdjust="spacing" textLength="197.8628" x="245.0239" y="581.002">presence_update &#8212; Jane joined</text></g><path d="M672,598.7441 L672,653.7441 L873,653.7441 L873,608.7441 L863,598.7441 L672,598.7441" fill="#F9FAFB" style="stroke:#D1D5DB;stroke-width:0.5;"/><path d="M863,598.7441 L863,608.7441 L873,608.7441 L863,598.7441" fill="#F9FAFB" style="stroke:#D1D5DB;stroke-width:0.5;"/><text fill="#333333" font-family="sans-serif" font-size="13" lengthAdjust="spacing" textLength="122.3828" x="678" y="616.3125">Sees Tim's terminal</text><text fill="#333333" font-family="sans-serif" font-size="13" lengthAdjust="spacing" textLength="116.8857" x="678" y="631.623">Tim's avatar glows</text><text fill="#333333" font-family="sans-serif" font-size="13" lengthAdjust="spacing" textLength="180.8828" x="678" y="646.9336">(pulsing border = controller)</text><rect fill="#EEEEEE" height="3" style="stroke:#EEEEEE;stroke-width:1;" width="1031.1055" x="0" y="680.3311"/><line style="stroke:#000000;stroke-width:1;" x1="0" x2="1031.1055" y1="680.3311" y2="680.3311"/><line style="stroke:#000000;stroke-width:1;" x1="0" x2="1031.1055" y1="683.3311" y2="683.3311"/><rect fill="#EEEEEE" height="23.3105" style="stroke:#000000;stroke-width:2;" width="122.0308" x="454.5374" y="669.6758"/><text fill="#333333" font-family="sans-serif" font-size="13" font-weight="bold" lengthAdjust="spacing" textLength="103.7461" x="460.5374" y="686.2441">Red Hawk joins</text><g class="message" data-entity-1="part5" data-entity-2="part3" id="msg9"><polygon fill="#2563EB" points="527.188,735.6074,517.188,739.6074,527.188,743.6074,523.188,739.6074" style="stroke:#2563EB;stroke-width:1;"/><line style="stroke:#2563EB;stroke-width:1;" x1="521.188" x2="912.957" y1="739.6074" y2="739.6074"/><text fill="#333333" font-family="sans-serif" font-size="13" lengthAdjust="spacing" textLength="121.5513" x="533.188" y="719.5547">WebSocket connect</text><text fill="#333333" font-family="sans-serif" font-size="13" lengthAdjust="spacing" textLength="119.1265" x="533.188" y="734.8652">(viewer role + JWT)</text></g><g class="message" data-entity-1="part3" data-entity-2="part5" id="msg10"><polygon fill="#2563EB" points="901.957,764.918,911.957,768.918,901.957,772.918,905.957,768.918" style="stroke:#2563EB;stroke-width:1;"/><line style="stroke:#2563EB;stroke-width:1;" x1="516.188" x2="907.957" y1="768.918" y2="768.918"/><text fill="#333333" font-family="sans-serif" font-size="13" lengthAdjust="spacing" textLength="165.9595" x="523.188" y="764.1758">hello {worker_online: true}</text></g><g class="message" data-entity-1="part3" data-entity-2="part5" id="msg11"><polygon fill="#2563EB" points="901.957,794.2285,911.957,798.2285,901.957,802.2285,905.957,798.2285" style="stroke:#2563EB;stroke-width:1;"/><line style="stroke:#2563EB;stroke-width:1;" x1="516.188" x2="907.957" y1="798.2285" y2="798.2285"/><text fill="#333333" font-family="sans-serif" font-size="13" lengthAdjust="spacing" textLength="213.2368" x="523.188" y="793.4863">presence_sync {users: [Tim, Jane]}</text></g><g class="message" data-entity-1="part5" data-entity-2="part3" id="msg12"><polygon fill="#2563EB" points="527.188,823.5391,517.188,827.5391,527.188,831.5391,523.188,827.5391" style="stroke:#2563EB;stroke-width:1;"/><line style="stroke:#2563EB;stroke-width:1;" x1="521.188" x2="912.957" y1="827.5391" y2="827.5391"/><text fill="#333333" font-family="sans-serif" font-size="13" lengthAdjust="spacing" textLength="234.0381" x="533.188" y="822.7969">presence_update {name: "Red Hawk"}</text></g><g class="message" data-entity-1="part3" data-entity-2="part4" id="msg13"><polygon fill="#2563EB" points="761.623,852.8496,771.623,856.8496,761.623,860.8496,765.623,856.8496" style="stroke:#2563EB;stroke-width:1;"/><line style="stroke:#2563EB;stroke-width:1;" x1="516.188" x2="767.623" y1="856.8496" y2="856.8496"/><text fill="#333333" font-family="sans-serif" font-size="13" lengthAdjust="spacing" textLength="233.4351" x="523.188" y="852.1074">presence_update &#8212; Red Hawk joined</text></g><g class="message" data-entity-1="part3" data-entity-2="part2" id="msg14"><polygon fill="#2563EB" points="239.0239,882.1602,229.0239,886.1602,239.0239,890.1602,235.0239,886.1602" style="stroke:#2563EB;stroke-width:1;"/><line style="stroke:#2563EB;stroke-width:1;" x1="233.0239" x2="515.188" y1="886.1602" y2="886.1602"/><text fill="#333333" font-family="sans-serif" font-size="13" lengthAdjust="spacing" textLength="233.4351" x="245.0239" y="881.418">presence_update &#8212; Red Hawk joined</text></g><path d="M667,899.1602 L667,939.1602 L878,939.1602 L878,909.1602 L868,899.1602 L667,899.1602" fill="#F9FAFB" style="stroke:#D1D5DB;stroke-width:0.5;"/><path d="M868,899.1602 L868,909.1602 L878,909.1602 L868,899.1602" fill="#F9FAFB" style="stroke:#D1D5DB;stroke-width:0.5;"/><text fill="#333333" font-family="sans-serif" font-size="13" lengthAdjust="spacing" textLength="168.2954" x="673" y="916.7285">Red Hawk's avatar appears</text><text fill="#333333" font-family="sans-serif" font-size="13" lengthAdjust="spacing" textLength="190.3789" x="673" y="932.0391">Edge bar shows their viewport</text><rect fill="#EEEEEE" height="3" style="stroke:#EEEEEE;stroke-width:1;" width="1031.1055" x="0" y="965.4365"/><line style="stroke:#000000;stroke-width:1;" x1="0" x2="1031.1055" y1="965.4365" y2="965.4365"/><line style="stroke:#000000;stroke-width:1;" x1="0" x2="1031.1055" y1="968.4365" y2="968.4365"/><rect fill="#EEEEEE" height="23.3105" style="stroke:#000000;stroke-width:2;" width="137.811" x="446.6472" y="954.7813"/><text fill="#333333" font-family="sans-serif" font-size="13" font-weight="bold" lengthAdjust="spacing" textLength="119.5264" x="452.6472" y="971.3496">Live collaboration</text><g class="message" data-entity-1="part2" data-entity-2="part3" id="msg15"><polygon fill="#2563EB" points="504.188,1005.4023,514.188,1009.4023,504.188,1013.4023,508.188,1009.4023" style="stroke:#2563EB;stroke-width:1;"/><line style="stroke:#2563EB;stroke-width:1;" x1="228.0239" x2="510.188" y1="1009.4023" y2="1009.4023"/><text fill="#333333" font-family="sans-serif" font-size="13" lengthAdjust="spacing" textLength="172.3579" x="235.0239" y="1004.6602">PTY bytes (terminal output)</text></g><g class="message" data-entity-1="part3" data-entity-2="part4" id="msg16"><polygon fill="#2563EB" points="761.623,1034.7129,771.623,1038.7129,761.623,1042.7129,765.623,1038.7129" style="stroke:#2563EB;stroke-width:1;"/><line style="stroke:#2563EB;stroke-width:1;" x1="516.188" x2="767.623" y1="1038.7129" y2="1038.7129"/><text fill="#333333" font-family="sans-serif" font-size="13" lengthAdjust="spacing" textLength="83.8398" x="523.188" y="1033.9707">terminal data</text></g><g class="message" data-entity-1="part3" data-entity-2="part5" id="msg17"><polygon fill="#2563EB" points="901.957,1064.0234,911.957,1068.0234,901.957,1072.0234,905.957,1068.0234" style="stroke:#2563EB;stroke-width:1;"/><line style="stroke:#2563EB;stroke-width:1;" x1="516.188" x2="907.957" y1="1068.0234" y2="1068.0234"/><text fill="#333333" font-family="sans-serif" font-size="13" lengthAdjust="spacing" textLength="83.8398" x="523.188" y="1063.2813">terminal data</text></g><g class="message" data-entity-1="part4" data-entity-2="part3" id="msg18"><polygon fill="#2563EB" points="527.188,1093.334,517.188,1097.334,527.188,1101.334,523.188,1097.334" style="stroke:#2563EB;stroke-width:1;"/><line style="stroke:#2563EB;stroke-width:1;" x1="521.188" x2="772.623" y1="1097.334" y2="1097.334"/><text fill="#333333" font-family="sans-serif" font-size="13" lengthAdjust="spacing" textLength="98.5601" x="533.188" y="1092.5918">scroll to line 42</text></g><g class="message" data-entity-1="part3" data-entity-2="part5" id="msg19"><polygon fill="#2563EB" points="901.957,1122.6445,911.957,1126.6445,901.957,1130.6445,905.957,1126.6445" style="stroke:#2563EB;stroke-width:1;"/><line style="stroke:#2563EB;stroke-width:1;" x1="516.188" x2="907.957" y1="1126.6445" y2="1126.6445"/><text fill="#333333" font-family="sans-serif" font-size="13" lengthAdjust="spacing" textLength="277.71" x="523.188" y="1121.9023">presence_update {scroll_line: 42, user: Jane}</text></g><path d="M800,1139.6445 L800,1164.6445 L1026,1164.6445 L1026,1149.6445 L1016,1139.6445 L800,1139.6445" fill="#F9FAFB" style="stroke:#D1D5DB;stroke-width:0.5;"/><path d="M1016,1139.6445 L1016,1149.6445 L1026,1149.6445 L1016,1139.6445" fill="#F9FAFB" style="stroke:#D1D5DB;stroke-width:0.5;"/><text fill="#333333" font-family="sans-serif" font-size="13" lengthAdjust="spacing" textLength="205.1055" x="806" y="1157.2129">Jane's edge bar moves to line 42</text><path d="M673,1174.9551 L673,1245.9551 L1012,1245.9551 L1012,1184.9551 L1002,1174.9551 L673,1174.9551" fill="#F9FAFB" style="stroke:#D1D5DB;stroke-width:0.5;"/><path d="M1002,1174.9551 L1002,1184.9551 L1012,1184.9551 L1002,1174.9551" fill="#F9FAFB" style="stroke:#D1D5DB;stroke-width:0.5;"/><text fill="#333333" font-family="sans-serif" font-size="13" lengthAdjust="spacing" textLength="155.1431" x="679" y="1192.5234">DeckMux overlay shows:</text><text fill="#333333" font-family="sans-serif" font-size="13" lengthAdjust="spacing" textLength="275.3423" x="679" y="1207.834">&#8226; Tim's avatar &#8212; pulsing border (controller)</text><text fill="#333333" font-family="sans-serif" font-size="13" lengthAdjust="spacing" textLength="170.8599" x="679" y="1223.1445">&#8226; Jane's avatar &#8212; at line 42</text><text fill="#333333" font-family="sans-serif" font-size="13" lengthAdjust="spacing" textLength="318.6206" x="679" y="1238.4551">&#8226; Red Hawk's avatar &#8212; position shown in edge bar</text><rect fill="#EEEEEE" height="3" style="stroke:#EEEEEE;stroke-width:1;" width="1031.1055" x="0" y="1271.8525"/><line style="stroke:#000000;stroke-width:1;" x1="0" x2="1031.1055" y1="1271.8525" y2="1271.8525"/><line style="stroke:#000000;stroke-width:1;" x1="0" x2="1031.1055" y1="1274.8525" y2="1274.8525"/><rect fill="#EEEEEE" height="23.3105" style="stroke:#000000;stroke-width:2;" width="161.8242" x="434.6406" y="1261.1973"/><text fill="#333333" font-family="sans-serif" font-size="13" font-weight="bold" lengthAdjust="spacing" textLength="143.5396" x="440.6406" y="1277.7656">Jane requests control</text><g class="message" data-entity-1="part4" data-entity-2="part3" id="msg20"><polygon fill="#2563EB" points="527.188,1311.8184,517.188,1315.8184,527.188,1319.8184,523.188,1315.8184" style="stroke:#2563EB;stroke-width:1;"/><line style="stroke:#2563EB;stroke-width:1;" x1="521.188" x2="772.623" y1="1315.8184" y2="1315.8184"/><text fill="#333333" font-family="sans-serif" font-size="13" lengthAdjust="spacing" textLength="177.8042" x="533.188" y="1311.0762">control_request {target: tim}</text></g><g class="message" data-entity-1="part3" data-entity-2="part2" id="msg21"><polygon fill="#2563EB" points="239.0239,1341.1289,229.0239,1345.1289,239.0239,1349.1289,235.0239,1345.1289" style="stroke:#2563EB;stroke-width:1;"/><line style="stroke:#2563EB;stroke-width:1;" x1="233.0239" x2="515.188" y1="1345.1289" y2="1345.1289"/><text fill="#333333" font-family="sans-serif" font-size="13" lengthAdjust="spacing" textLength="264.1641" x="245.0239" y="1340.3867">control_request_notification {from: "Jane"}</text></g><path d="M5,1358.1289 L5,1413.1289 L182,1413.1289 L182,1368.1289 L172,1358.1289 L5,1358.1289" fill="#F9FAFB" style="stroke:#D1D5DB;stroke-width:0.5;"/><path d="M172,1358.1289 L172,1368.1289 L182,1368.1289 L172,1358.1289" fill="#F9FAFB" style="stroke:#D1D5DB;stroke-width:0.5;"/><text fill="#333333" font-family="sans-serif" font-size="13" lengthAdjust="spacing" textLength="111.3633" x="11" y="1375.6973">Toast in terminal:</text><text fill="#333333" font-family="sans-serif" font-size="13" lengthAdjust="spacing" textLength="156.584" x="11" y="1391.0078">"Jane requesting control"</text><text fill="#333333" font-family="sans-serif" font-size="13" lengthAdjust="spacing" textLength="117.2349" x="11" y="1406.3184">[Hand over] [Deny]</text><g class="message" data-entity-1="part1" data-entity-2="part2" id="msg22"><polygon fill="#2563EB" points="216.0239,1436.3711,226.0239,1440.3711,216.0239,1444.3711,220.0239,1440.3711" style="stroke:#2563EB;stroke-width:1;"/><line style="stroke:#2563EB;stroke-width:1;" x1="93.7271" x2="222.0239" y1="1440.3711" y2="1440.3711"/><text fill="#333333" font-family="sans-serif" font-size="13" lengthAdjust="spacing" textLength="110.2969" x="100.7271" y="1435.6289">accepts handover</text></g><g class="message" data-entity-1="part2" data-entity-2="part3" id="msg23"><polygon fill="#2563EB" points="504.188,1465.6816,514.188,1469.6816,504.188,1473.6816,508.188,1469.6816" style="stroke:#2563EB;stroke-width:1;"/><line style="stroke:#2563EB;stroke-width:1;" x1="228.0239" x2="510.188" y1="1469.6816" y2="1469.6816"/><text fill="#333333" font-family="sans-serif" font-size="13" lengthAdjust="spacing" textLength="169.9966" x="235.0239" y="1464.9395">control_handover {to: jane}</text></g><g class="message" data-entity-1="part3" data-entity-2="part4" id="msg24"><polygon fill="#2563EB" points="761.623,1494.9922,771.623,1498.9922,761.623,1502.9922,765.623,1498.9922" style="stroke:#2563EB;stroke-width:1;"/><line style="stroke:#2563EB;stroke-width:1;" x1="516.188" x2="767.623" y1="1498.9922" y2="1498.9922"/><text fill="#333333" font-family="sans-serif" font-size="13" lengthAdjust="spacing" textLength="232.2354" x="523.188" y="1494.25">control_transfer {reason: "handover"}</text></g><g class="message" data-entity-1="part3" data-entity-2="part5" id="msg25"><polygon fill="#2563EB" points="901.957,1524.3027,911.957,1528.3027,901.957,1532.3027,905.957,1528.3027" style="stroke:#2563EB;stroke-width:1;"/><line style="stroke:#2563EB;stroke-width:1;" x1="516.188" x2="907.957" y1="1528.3027" y2="1528.3027"/><text fill="#333333" font-family="sans-serif" font-size="13" lengthAdjust="spacing" textLength="160.6211" x="523.188" y="1523.5605">control_transfer {to: jane}</text></g><path d="M684,1541.3027 L684,1581.3027 L862,1581.3027 L862,1551.3027 L852,1541.3027 L684,1541.3027" fill="#F9FAFB" style="stroke:#D1D5DB;stroke-width:0.5;"/><path d="M852,1541.3027 L852,1551.3027 L862,1551.3027 L852,1541.3027" fill="#F9FAFB" style="stroke:#D1D5DB;stroke-width:0.5;"/><text fill="#333333" font-family="sans-serif" font-size="13" lengthAdjust="spacing" textLength="157.2822" x="690" y="1558.8711">Jane's border now pulses</text><text fill="#333333" font-family="sans-serif" font-size="13" lengthAdjust="spacing" textLength="83.7446" x="690" y="1574.1816">Jane can type</text><?plantuml-src bLNjYjD05FsVfxZ47wwuWkwNMgZW9tLPGRO5aUrI9ibDEzjq9ivCMajPy25y0X_D9_7EPD9EcdN5Gg6TdFjrphaJmqs1K8aCyoS6rO8BLi3l7pzXrFmPpfZYOWhdib82rr6avroKJB4592oTJvMawBUoa0eUvEuJ82WjgmhpGGhZ8SVk4q0qVgjGfFXQARdoeAFJisDCxW1Ty9o-0jz8bQ7owEnPTfhTXVxCbE4fBvam_n_GcUquFydFWY2M6gbQUS-IvqSldWOG8Sq_MdM8JgcNESkJA78L81xnnLWSi8pqU1G3qq07KRbh5UBAIWUQb492lhtuMEFeHnitHBL4HH2hxg1AQjYm3Jfd0XzgU4DoQ0UM9If6dTHe-xWTS8aP3DXgtWfQSboX3xaSH56_Rzi6RIXIkrQjgVhzABB7JrxPPg47mIIHFQ47Gph-WibGfdCqa4eXC3LKOINL71KeIGP-30bIY08ZvoWUHSDTnXaMXOGD4LwPoK9cs8Dunc-8y_XmB01AXTfgFq71aWAp7XXLuMrabG59TFaydqTV2IjJrDH-oLP2ZyLsIRY6WY_HZMa9WXl9XOObPtGkvcvETtxFF0tDpKJdNqP-41UvdQIUUo85PSQwsti72LDiCNejKjXKf9NkmHL9S7tRQd0BhCgC4H4RdL9RnQIk-TGL56nXoRHXyMr8-NwmlK-sh60MKElR6Y8wLvE3cak8o7N_sPAHPM1QaB68fB8gj3LEuhOA-fO_OpiZhpds6pDw1IpnbuFxQA-DsYMTekwZ_3P0_PtLGpSXSRlheSEifx5fFFwBOW6NhHc9ptzGlm_lq1yiiAURbINj4n7-FfiYtVEALf8403D3hi1ILafb7E4Nv7kYioWOQS8CbyAH7YoltPnaRKZYW-qhHbQ6zh7jx-r3wfm5zBRFMpQjNKbRRzSCuUJeBbNkjF39qI5OeNgkUhZkBjXVWjYClw17Egopn-AXYtg7wVnJzTqT5snTazORYzy_Va7BpbQMFIiV14wk8tmFGGWpJVqQqHNE9PQQEnriUG5SRCVOtK_All4qtSI-QkU6ykSJ3uGDPP-Y8JNuehNiUy09yS9pdjPEsEHABdPtn8upU-dtO2GPfQO66uc9gpZip_BZ2yHZSJLW8dFnrt3r3iNwkltoO6cA9Sqq8vX5XIPiscoUqK2o1pTE-z243Sue9dHkSGgPbiA-DNne7Ev-5x_BsraqhwXNNCYLCm7IdZb0oeY9TOdH7m00?></g></svg>