<?plantuml 1.2026.2?><svg xmlns="http://www.w3.org/2000/svg" xmlns:xlink="http://www.w3.org/1999/xlink" contentStyleType="text/css" data-diagram-type="DESCRIPTION" height="839px" preserveAspectRatio="none" style="width:2595px;height:839px;background:#FFFFFF;" version="1.1" viewBox="0 0 2595 839" width="2595px" zoomAndPan="magnify"><title>undef-terminal-pty &#8212; Architecture</title><defs/><g><g class="title" data-source-line="4"><text fill="#333333" font-family="sans-serif" font-size="14" font-weight="bold" lengthAdjust="spacing" textLength="254.8779" x="1163.191" y="23.5352">undef-terminal-pty &#8212; Architecture</text></g><!--cluster Browser / CF DO--><g class="cluster" data-qualified-name="Browser . CF DO" data-source-line="18" id="ent0002"><path d="M1982.76,43.4883 L2104.845,43.4883 A3.75,3.75 0 0 1 2107.345,45.9883 L2114.345,65.9766 L2380.76,65.9766 A2.5,2.5 0 0 1 2383.26,68.4766 L2383.26,328.9383 A2.5,2.5 0 0 1 2380.76,331.4383 L1982.76,331.4383 A2.5,2.5 0 0 1 1980.26,328.9383 L1980.26,45.9883 A2.5,2.5 0 0 1 1982.76,43.4883" fill="#FFFFFF" style="stroke:#D1D5DB;stroke-width:1.5;"/><line style="stroke:#D1D5DB;stroke-width:1.5;" x1="1980.26" x2="2114.345" y1="65.9766" y2="65.9766"/><text fill="#333333" font-family="sans-serif" font-size="14" font-weight="bold" lengthAdjust="spacing" textLength="121.085" x="1984.26" y="59.0234">Browser / CF DO</text></g><!--cluster undef-terminal server (Python)--><g class="cluster" data-qualified-name="undef-terminal server .Python." data-source-line="28" id="ent0008"><path d="M1587.76,395.4383 L1814.4348,395.4383 A3.75,3.75 0 0 1 1816.9348,397.9383 L1823.9348,417.9266 L2585.76,417.9266 A2.5,2.5 0 0 1 2588.26,420.4266 L2588.26,829.6283 A2.5,2.5 0 0 1 2585.76,832.1283 L1587.76,832.1283 A2.5,2.5 0 0 1 1585.26,829.6283 L1585.26,397.9383 A2.5,2.5 0 0 1 1587.76,395.4383" fill="#FFFFFF" style="stroke:#D1D5DB;stroke-width:1.5;"/><line style="stroke:#D1D5DB;stroke-width:1.5;" x1="1585.26" x2="1823.9348" y1="417.9266" y2="417.9266"/><text fill="#333333" font-family="sans-serif" font-size="14" font-weight="bold" lengthAdjust="spacing" textLength="225.6748" x="1589.26" y="410.9734">undef-terminal server (Python)</text></g><!--cluster PTYConnector  (connector_type=pty)--><g class="cluster" data-qualified-name="undef-terminal server .Python..PTYConnector  .connector_type.pty." data-source-line="31" id="ent0010"><path d="M1988.76,658.6683 L2255.1379,658.6683 A3.75,3.75 0 0 1 2257.6379,661.1683 L2264.6379,681.1566 L2561.76,681.1566 A2.5,2.5 0 0 1 2564.26,683.6566 L2564.26,805.6283 A2.5,2.5 0 0 1 2561.76,808.1283 L1988.76,808.1283 A2.5,2.5 0 0 1 1986.26,805.6283 L1986.26,661.1683 A2.5,2.5 0 0 1 1988.76,658.6683" fill="#EFF6FF" style="stroke:#D1D5DB;stroke-width:1.5;"/><line style="stroke:#D1D5DB;stroke-width:1.5;" x1="1986.26" x2="2264.6379" y1="681.1566" y2="681.1566"/><text fill="#333333" font-family="sans-serif" font-size="14" font-weight="bold" lengthAdjust="spacing" textLength="265.3779" x="1990.26" y="674.2034">PTYConnector  (connector_type=pty)</text></g><!--cluster Existing Connectors--><g class="cluster" data-qualified-name="undef-terminal server .Python..Existing Connectors" data-source-line="37" id="ent0014"><path d="M1611.76,438.4383 L1757.0325,438.4383 A3.75,3.75 0 0 1 1759.5325,440.9383 L1766.5325,460.9266 L1959.76,460.9266 A2.5,2.5 0 0 1 1962.26,463.4266 L1962.26,789.1383 A2.5,2.5 0 0 1 1959.76,791.6383 L1611.76,791.6383 A2.5,2.5 0 0 1 1609.26,789.1383 L1609.26,440.9383 A2.5,2.5 0 0 1 1611.76,438.4383" fill="#FFFFFF" style="stroke:#D1D5DB;stroke-width:1.5;"/><line style="stroke:#D1D5DB;stroke-width:1.5;" x1="1609.26" x2="1766.5325" y1="460.9266" y2="460.9266"/><text fill="#333333" font-family="sans-serif" font-size="14" font-weight="bold" lengthAdjust="spacing" textLength="144.2725" x="1613.26" y="453.9734">Existing Connectors</text></g><!--cluster undef-terminal-pty  (native)--><g class="cluster" data-qualified-name="undef-terminal-pty  .native." data-source-line="44" id="ent0018"><path d="M602.76,430.1983 L810.5403,430.1983 A3.75,3.75 0 0 1 813.0403,432.6983 L820.0403,452.6866 L1152.76,452.6866 A2.5,2.5 0 0 1 1155.26,455.1866 L1155.26,577.1683 A2.5,2.5 0 0 1 1152.76,579.6683 L602.76,579.6683 A2.5,2.5 0 0 1 600.26,577.1683 L600.26,432.6983 A2.5,2.5 0 0 1 602.76,430.1983" fill="#FEFCE8" style="stroke:#D1D5DB;stroke-width:1.5;"/><line style="stroke:#D1D5DB;stroke-width:1.5;" x1="600.26" x2="820.0403" y1="452.6866" y2="452.6866"/><text fill="#333333" font-family="sans-serif" font-size="14" font-weight="bold" lengthAdjust="spacing" textLength="206.7803" x="604.26" y="445.7334">undef-terminal-pty  (native)</text></g><!--cluster OS / Kernel--><g class="cluster" data-qualified-name="OS . Kernel" data-source-line="49" id="ent0021"><path d="M269.76,666.9083 L353.885,666.9083 A3.75,3.75 0 0 1 356.385,669.4083 L363.385,689.3966 L972.76,689.3966 A2.5,2.5 0 0 1 975.26,691.8966 L975.26,797.3883 A2.5,2.5 0 0 1 972.76,799.8883 L269.76,799.8883 A2.5,2.5 0 0 1 267.26,797.3883 L267.26,669.4083 A2.5,2.5 0 0 1 269.76,666.9083" fill="#FFFFFF" style="stroke:#D1D5DB;stroke-width:1.5;"/><line style="stroke:#D1D5DB;stroke-width:1.5;" x1="267.26" x2="363.385" y1="689.3966" y2="689.3966"/><text fill="#333333" font-family="sans-serif" font-size="14" font-weight="bold" lengthAdjust="spacing" textLength="83.125" x="271.26" y="682.4434">OS / Kernel</text></g><!--entity BROWSER--><g class="entity" data-qualified-name="Browser . CF DO.BROWSER" data-source-line="19" id="ent0003"><rect fill="#F3F4F6" height="62.9766" rx="2.5" ry="2.5" style="stroke:#D1D5DB;stroke-width:0.5;" width="105.3516" x="2026.58" y="97.4883"/><rect fill="#F3F4F6" height="10" style="stroke:#D1D5DB;stroke-width:0.5;" width="15" x="2111.9316" y="102.4883"/><rect fill="#F3F4F6" height="2" style="stroke:#D1D5DB;stroke-width:0.5;" width="4" x="2109.9316" y="104.4883"/><rect fill="#F3F4F6" height="2" style="stroke:#D1D5DB;stroke-width:0.5;" width="4" x="2109.9316" y="108.4883"/><text fill="#333333" font-family="sans-serif" font-size="14" lengthAdjust="spacing" textLength="53.833" x="2041.58" y="131.0234">Browser</text><text fill="#333333" font-family="sans-serif" font-size="14" lengthAdjust="spacing" textLength="65.3516" x="2041.58" y="147.5117">(xterm.js)</text></g><!--entity DO--><g class="entity" data-qualified-name="Browser . CF DO.DO" data-source-line="20" id="ent0004"><rect fill="#F3F4F6" height="62.9766" rx="2.5" ry="2.5" style="stroke:#D1D5DB;stroke-width:0.5;" width="165.6924" x="1996.41" y="252.4683"/><rect fill="#F3F4F6" height="10" style="stroke:#D1D5DB;stroke-width:0.5;" width="15" x="2142.1024" y="257.4683"/><rect fill="#F3F4F6" height="2" style="stroke:#D1D5DB;stroke-width:0.5;" width="4" x="2140.1024" y="259.4683"/><rect fill="#F3F4F6" height="2" style="stroke:#D1D5DB;stroke-width:0.5;" width="4" x="2140.1024" y="263.4683"/><text fill="#333333" font-family="sans-serif" font-size="14" lengthAdjust="spacing" textLength="96.0791" x="2011.41" y="286.0034">Cloudflare DO</text><text fill="#333333" font-family="sans-serif" font-size="14" lengthAdjust="spacing" textLength="125.6924" x="2011.41" y="302.4917">(WebSocket proxy)</text></g><g class="entity" data-qualified-name="Browser . CF DO.GMN5" data-source-line="22" id="ent0006"><path d="M2197.47,255.9883 L2197.47,279.9583 L2162.52,283.9583 L2197.47,287.9583 L2197.47,311.9199 A0,0 0 0 0 2197.47,311.9199 L2367.0559,311.9199 A0,0 0 0 0 2367.0559,311.9199 L2367.0559,265.9883 L2357.0559,255.9883 L2197.47,255.9883 A0,0 0 0 0 2197.47,255.9883" fill="#F9FAFB" style="stroke:#D1D5DB;stroke-width:0.5;"/><path d="M2357.0559,255.9883 L2357.0559,265.9883 L2367.0559,265.9883 L2357.0559,255.9883" fill="#F9FAFB" style="stroke:#D1D5DB;stroke-width:0.5;"/><text fill="#333333" font-family="sans-serif" font-size="13" lengthAdjust="spacing" textLength="114.0039" x="2203.47" y="273.5566">DO can hibernate.</text><text fill="#333333" font-family="sans-serif" font-size="13" lengthAdjust="spacing" textLength="148.5859" x="2203.47" y="288.8672">PTY process survives &#8212;</text><text fill="#333333" font-family="sans-serif" font-size="13" lengthAdjust="spacing" textLength="132.0059" x="2203.47" y="304.1777">it lives on the server.</text></g><!--entity RUNTIME--><g class="entity" data-qualified-name="undef-terminal server .Python..RUNTIME" data-source-line="29" id="ent0009"><rect fill="#F3F4F6" height="62.9766" rx="2.5" ry="2.5" style="stroke:#D1D5DB;stroke-width:0.5;" width="195.2031" x="1981.66" y="492.4383"/><rect fill="#F3F4F6" height="10" style="stroke:#D1D5DB;stroke-width:0.5;" width="15" x="2156.8631" y="497.4383"/><rect fill="#F3F4F6" height="2" style="stroke:#D1D5DB;stroke-width:0.5;" width="4" x="2154.8631" y="499.4383"/><rect fill="#F3F4F6" height="2" style="stroke:#D1D5DB;stroke-width:0.5;" width="4" x="2154.8631" y="503.4383"/><text fill="#333333" font-family="sans-serif" font-size="14" lengthAdjust="spacing" textLength="155.2031" x="1996.66" y="525.9734">HostedSessionRuntime</text><text fill="#333333" font-family="sans-serif" font-size="14" lengthAdjust="spacing" textLength="118.624" x="1996.66" y="542.4617">(session lifecycle)</text></g><!--entity PAM--><g class="entity" data-qualified-name="undef-terminal server .Python..PTYConnector  .connector_type.pty..PAM" data-source-line="32" id="ent0011"><rect fill="#F3F4F6" height="62.9766" rx="2.5" ry="2.5" style="stroke:#D1D5DB;stroke-width:0.5;" width="161.9531" x="2386.28" y="720.9083"/><rect fill="#F3F4F6" height="10" style="stroke:#D1D5DB;stroke-width:0.5;" width="15" x="2528.2331" y="725.9083"/><rect fill="#F3F4F6" height="2" style="stroke:#D1D5DB;stroke-width:0.5;" width="4" x="2526.2331" y="727.9083"/><rect fill="#F3F4F6" height="2" style="stroke:#D1D5DB;stroke-width:0.5;" width="4" x="2526.2331" y="731.9083"/><text fill="#333333" font-family="sans-serif" font-size="14" lengthAdjust="spacing" textLength="79.4883" x="2401.28" y="754.4434">PamSession</text><text fill="#333333" font-family="sans-serif" font-size="14" lengthAdjust="spacing" textLength="121.9531" x="2401.28" y="770.9317">(ctypes &#8594; libpam)</text></g><!--entity PTYP--><g class="entity" data-qualified-name="undef-terminal server .Python..PTYConnector  .connector_type.pty..PTYP" data-source-line="33" id="ent0012"><rect fill="#F3F4F6" height="79.4648" rx="2.5" ry="2.5" style="stroke:#D1D5DB;stroke-width:0.5;" width="139.6816" x="2211.42" y="712.6683"/><rect fill="#F3F4F6" height="10" style="stroke:#D1D5DB;stroke-width:0.5;" width="15" x="2331.1016" y="717.6683"/><rect fill="#F3F4F6" height="2" style="stroke:#D1D5DB;stroke-width:0.5;" width="4" x="2329.1016" y="719.6683"/><rect fill="#F3F4F6" height="2" style="stroke:#D1D5DB;stroke-width:0.5;" width="4" x="2329.1016" y="723.6683"/><text fill="#333333" font-family="sans-serif" font-size="14" lengthAdjust="spacing" textLength="71.5996" x="2226.42" y="746.2034">PtyProcess</text><text fill="#333333" font-family="sans-serif" font-size="14" lengthAdjust="spacing" textLength="98.2803" x="2226.42" y="762.6917">(os.fork + pty)</text><text fill="#333333" font-family="sans-serif" font-size="14" lengthAdjust="spacing" textLength="99.6816" x="2226.42" y="779.18">setuid / setgid</text></g><!--entity CSOCK--><g class="entity" data-qualified-name="undef-terminal server .Python..PTYConnector  .connector_type.pty..CSOCK" data-source-line="34" id="ent0013"><rect fill="#F3F4F6" height="62.9766" rx="2.5" ry="2.5" style="stroke:#D1D5DB;stroke-width:0.5;" width="174.5518" x="2001.98" y="720.9083"/><rect fill="#F3F4F6" height="10" style="stroke:#D1D5DB;stroke-width:0.5;" width="15" x="2156.5318" y="725.9083"/><rect fill="#F3F4F6" height="2" style="stroke:#D1D5DB;stroke-width:0.5;" width="4" x="2154.5318" y="727.9083"/><rect fill="#F3F4F6" height="2" style="stroke:#D1D5DB;stroke-width:0.5;" width="4" x="2154.5318" y="731.9083"/><text fill="#333333" font-family="sans-serif" font-size="14" lengthAdjust="spacing" textLength="98.2119" x="2016.98" y="754.4434">CaptureSocket</text><text fill="#333333" font-family="sans-serif" font-size="14" lengthAdjust="spacing" textLength="134.5518" x="2016.98" y="770.9317">(Unix socket server)</text></g><!--entity SSH--><g class="entity" data-qualified-name="undef-terminal server .Python..Existing Connectors.SSH" data-source-line="38" id="ent0015"><rect fill="#F3F4F6" height="62.9766" rx="2.5" ry="2.5" style="stroke:#D1D5DB;stroke-width:0.5;" width="133.5635" x="1625.48" y="492.4383"/><rect fill="#F3F4F6" height="10" style="stroke:#D1D5DB;stroke-width:0.5;" width="15" x="1739.0435" y="497.4383"/><rect fill="#F3F4F6" height="2" style="stroke:#D1D5DB;stroke-width:0.5;" width="4" x="1737.0435" y="499.4383"/><rect fill="#F3F4F6" height="2" style="stroke:#D1D5DB;stroke-width:0.5;" width="4" x="1737.0435" y="503.4383"/><text fill="#333333" font-family="sans-serif" font-size="14" lengthAdjust="spacing" textLength="93.5635" x="1640.48" y="525.9734">SshConnector</text><text fill="#333333" font-family="sans-serif" font-size="14" lengthAdjust="spacing" textLength="70.1094" x="1640.48" y="542.4617">(asyncssh)</text></g><!--entity TEL--><g class="entity" data-qualified-name="undef-terminal server .Python..Existing Connectors.TEL" data-source-line="39" id="ent0016"><rect fill="#F3F4F6" height="46.4883" rx="2.5" ry="2.5" style="stroke:#D1D5DB;stroke-width:0.5;" width="152.6221" x="1793.95" y="500.6883"/><rect fill="#F3F4F6" height="10" style="stroke:#D1D5DB;stroke-width:0.5;" width="15" x="1926.5721" y="505.6883"/><rect fill="#F3F4F6" height="2" style="stroke:#D1D5DB;stroke-width:0.5;" width="4" x="1924.5721" y="507.6883"/><rect fill="#F3F4F6" height="2" style="stroke:#D1D5DB;stroke-width:0.5;" width="4" x="1924.5721" y="511.6883"/><text fill="#333333" font-family="sans-serif" font-size="14" lengthAdjust="spacing" textLength="112.6221" x="1808.95" y="534.2234">TelnetConnector</text></g><!--entity WSCON--><g class="entity" data-qualified-name="undef-terminal server .Python..Existing Connectors.WSCON" data-source-line="40" id="ent0017"><rect fill="#F3F4F6" height="46.4883" rx="2.5" ry="2.5" style="stroke:#D1D5DB;stroke-width:0.5;" width="183.3154" x="1625.6" y="729.1483"/><rect fill="#F3F4F6" height="10" style="stroke:#D1D5DB;stroke-width:0.5;" width="15" x="1788.9154" y="734.1483"/><rect fill="#F3F4F6" height="2" style="stroke:#D1D5DB;stroke-width:0.5;" width="4" x="1786.9154" y="736.1483"/><rect fill="#F3F4F6" height="2" style="stroke:#D1D5DB;stroke-width:0.5;" width="4" x="1786.9154" y="740.1483"/><text fill="#333333" font-family="sans-serif" font-size="14" lengthAdjust="spacing" textLength="143.3154" x="1640.6" y="762.6834">WebSocketConnector</text></g><!--entity CAPLIB--><g class="entity" data-qualified-name="undef-terminal-pty  .native..CAPLIB" data-source-line="45" id="ent0019"><rect fill="#F3F4F6" height="79.4648" rx="2.5" ry="2.5" style="stroke:#D1D5DB;stroke-width:0.5;" width="308.2627" x="831.13" y="484.1983"/><rect fill="#F3F4F6" height="10" style="stroke:#D1D5DB;stroke-width:0.5;" width="15" x="1119.3927" y="489.1983"/><rect fill="#F3F4F6" height="2" style="stroke:#D1D5DB;stroke-width:0.5;" width="4" x="1117.3927" y="491.1983"/><rect fill="#F3F4F6" height="2" style="stroke:#D1D5DB;stroke-width:0.5;" width="4" x="1117.3927" y="495.1983"/><text fill="#333333" font-family="sans-serif" font-size="14" lengthAdjust="spacing" textLength="115.5957" x="846.13" y="517.7334">libuterm_capture</text><text fill="#333333" font-family="sans-serif" font-size="14" lengthAdjust="spacing" textLength="82.9336" x="846.13" y="534.2217">(.so / .dylib)</text><text fill="#333333" font-family="sans-serif" font-size="14" lengthAdjust="spacing" textLength="268.2627" x="846.13" y="550.71">LD_PRELOAD / DYLD_INSERT_LIBRARIES</text></g><!--entity PAMU--><g class="entity" data-qualified-name="undef-terminal-pty  .native..PAMU" data-source-line="46" id="ent0020"><rect fill="#F3F4F6" height="79.4648" rx="2.5" ry="2.5" style="stroke:#D1D5DB;stroke-width:0.5;" width="179.877" x="616.32" y="484.1983"/><rect fill="#F3F4F6" height="10" style="stroke:#D1D5DB;stroke-width:0.5;" width="15" x="776.197" y="489.1983"/><rect fill="#F3F4F6" height="2" style="stroke:#D1D5DB;stroke-width:0.5;" width="4" x="774.197" y="491.1983"/><rect fill="#F3F4F6" height="2" style="stroke:#D1D5DB;stroke-width:0.5;" width="4" x="774.197" y="495.1983"/><text fill="#333333" font-family="sans-serif" font-size="14" lengthAdjust="spacing" textLength="77.1367" x="631.32" y="517.7334">pam_uterm</text><text fill="#333333" font-family="sans-serif" font-size="14" lengthAdjust="spacing" textLength="29.2715" x="631.32" y="534.2217">(.so)</text><text fill="#333333" font-family="sans-serif" font-size="14" lengthAdjust="spacing" textLength="139.877" x="631.32" y="550.71">PAM session module</text></g><!--entity LIBPAM--><g class="entity" data-qualified-name="OS . Kernel.LIBPAM" data-source-line="50" id="ent0022"><rect fill="#F3F4F6" height="62.9766" rx="2.5" ry="2.5" style="stroke:#D1D5DB;stroke-width:0.5;" width="215.9707" x="743.27" y="720.9083"/><rect fill="#F3F4F6" height="10" style="stroke:#D1D5DB;stroke-width:0.5;" width="15" x="939.2407" y="725.9083"/><rect fill="#F3F4F6" height="2" style="stroke:#D1D5DB;stroke-width:0.5;" width="4" x="937.2407" y="727.9083"/><rect fill="#F3F4F6" height="2" style="stroke:#D1D5DB;stroke-width:0.5;" width="4" x="937.2407" y="731.9083"/><text fill="#333333" font-family="sans-serif" font-size="14" lengthAdjust="spacing" textLength="46.5186" x="758.27" y="754.4434">libpam</text><text fill="#333333" font-family="sans-serif" font-size="14" lengthAdjust="spacing" textLength="175.9707" x="758.27" y="770.9317">(libpam.so / libpam.dylib)</text></g><!--entity PROC--><g class="entity" data-qualified-name="OS . Kernel.PROC" data-source-line="51" id="ent0023"><rect fill="#F3F4F6" height="62.9766" rx="2.5" ry="2.5" style="stroke:#D1D5DB;stroke-width:0.5;" width="219.6143" x="488.45" y="720.9083"/><rect fill="#F3F4F6" height="10" style="stroke:#D1D5DB;stroke-width:0.5;" width="15" x="688.0643" y="725.9083"/><rect fill="#F3F4F6" height="2" style="stroke:#D1D5DB;stroke-width:0.5;" width="4" x="686.0643" y="727.9083"/><rect fill="#F3F4F6" height="2" style="stroke:#D1D5DB;stroke-width:0.5;" width="4" x="686.0643" y="731.9083"/><text fill="#333333" font-family="sans-serif" font-size="14" lengthAdjust="spacing" textLength="99.8184" x="503.45" y="754.4434">Target Process</text><text fill="#333333" font-family="sans-serif" font-size="14" lengthAdjust="spacing" textLength="179.6143" x="503.45" y="770.9317">(shell, binary, game client)</text></g><!--entity SSHD--><g class="entity" data-qualified-name="OS . Kernel.SSHD" data-source-line="52" id="ent0024"><rect fill="#F3F4F6" height="62.9766" rx="2.5" ry="2.5" style="stroke:#D1D5DB;stroke-width:0.5;" width="169.6436" x="283.44" y="720.9083"/><rect fill="#F3F4F6" height="10" style="stroke:#D1D5DB;stroke-width:0.5;" width="15" x="433.0836" y="725.9083"/><rect fill="#F3F4F6" height="2" style="stroke:#D1D5DB;stroke-width:0.5;" width="4" x="431.0836" y="727.9083"/><rect fill="#F3F4F6" height="2" style="stroke:#D1D5DB;stroke-width:0.5;" width="4" x="431.0836" y="731.9083"/><text fill="#333333" font-family="sans-serif" font-size="14" lengthAdjust="spacing" textLength="114.1123" x="298.44" y="754.4434">sshd / login / su</text><text fill="#333333" font-family="sans-serif" font-size="14" lengthAdjust="spacing" textLength="129.6436" x="298.44" y="770.9317">(existing daemons)</text></g><g class="entity" data-qualified-name="GMN38" data-source-line="77" id="ent0039"><path d="M6,716.7783 L6,788.0205 L248.5205,788.0205 L248.5205,726.7783 L238.5205,716.7783 L6,716.7783" fill="#F9FAFB" style="stroke:#D1D5DB;stroke-width:0.5;"/><path d="M238.5205,716.7783 L238.5205,726.7783 L248.5205,726.7783 L238.5205,716.7783" fill="#F9FAFB" style="stroke:#D1D5DB;stroke-width:1;"/><text fill="#333333" font-family="sans-serif" font-size="13" lengthAdjust="spacing" textLength="221.5205" x="12" y="734.3466">Intercepts: read(), write(), connect()</text><text fill="#333333" font-family="sans-serif" font-size="13" lengthAdjust="spacing" textLength="220.3335" x="12" y="749.6572">Useful for binaries that bypass PTY</text><text fill="#333333" font-family="sans-serif" font-size="13" lengthAdjust="spacing" textLength="157.8154" x="12" y="764.9677">or do direct network I/O.</text><text fill="#333333" font-family="sans-serif" font-size="13" lengthAdjust="spacing" textLength="187.7891" x="12" y="780.2783">Not needed for normal shells.</text></g><g class="entity" data-qualified-name="GMN41" data-source-line="84" id="ent0042"><path d="M993.99,716.7783 L993.99,788.0205 L1280.5379,788.0205 L1280.5379,726.7783 L1270.5379,716.7783 L993.99,716.7783" fill="#F9FAFB" style="stroke:#D1D5DB;stroke-width:0.5;"/><path d="M1270.5379,716.7783 L1270.5379,726.7783 L1280.5379,726.7783 L1270.5379,716.7783" fill="#F9FAFB" style="stroke:#D1D5DB;stroke-width:1;"/><text fill="#333333" font-family="sans-serif" font-size="13" lengthAdjust="spacing" textLength="141.0259" x="999.99" y="734.3466">Daemon bridge mode:</text><text fill="#333333" font-family="sans-serif" font-size="13" lengthAdjust="spacing" textLength="265.5479" x="999.99" y="749.6572">drop pam_uterm.so into /etc/pam.d/sshd</text><text fill="#333333" font-family="sans-serif" font-size="13" lengthAdjust="spacing" textLength="205.0674" x="999.99" y="764.9677">&#8594; every sshd session appears in</text><text fill="#333333" font-family="sans-serif" font-size="13" lengthAdjust="spacing" textLength="188.5889" x="999.99" y="780.2783">undef-terminal automatically.</text></g><!--link BROWSER to DO--><g class="link" data-entity-1="ent0003" data-entity-2="ent0004" data-link-type="dependency" data-source-line="56" id="lnk25"><path d="M2079.26,160.9383 C2079.26,187.4783 2079.26,219.5183 2079.26,246.0483" fill="none" id="BROWSER-to-DO" style="stroke:#2563EB;stroke-width:1;"/><polygon fill="#2563EB" points="2079.26,252.0483,2083.26,243.0483,2079.26,247.0483,2075.26,243.0483,2079.26,252.0483" style="stroke:#2563EB;stroke-width:1;"/><text fill="#333333" font-family="sans-serif" font-size="13" lengthAdjust="spacing" textLength="67.8945" x="2095.6118" y="204.0366">WebSocket</text><text fill="#333333" font-family="sans-serif" font-size="13" lengthAdjust="spacing" textLength="98.5981" x="2080.26" y="219.3472">(may hibernate)</text></g><!--link DO to RUNTIME--><g class="link" data-entity-1="ent0004" data-entity-2="ent0009" data-link-type="dependency" data-source-line="57" id="lnk26"><path d="M2079.26,315.5783 C2079.26,361.1483 2079.26,440.3283 2079.26,486.0483" fill="none" id="DO-to-RUNTIME" style="stroke:#2563EB;stroke-width:1;"/><polygon fill="#2563EB" points="2079.26,492.0483,2083.26,483.0483,2079.26,487.0483,2075.26,483.0483,2079.26,492.0483" style="stroke:#2563EB;stroke-width:1;"/><text fill="#333333" font-family="sans-serif" font-size="13" lengthAdjust="spacing" textLength="67.8945" x="2081.9358" y="361.0066">WebSocket</text><text fill="#333333" font-family="sans-serif" font-size="13" lengthAdjust="spacing" textLength="71.2461" x="2080.26" y="376.3172">(persistent)</text></g><!--link RUNTIME to PAM--><g class="link" data-entity-1="ent0009" data-entity-2="ent0011" data-link-type="dependency" data-source-line="58" id="lnk27"><path d="M2177.2,528.2183 C2240.33,534.7983 2321.17,552.0483 2379.26,595.6683 C2421.23,627.1783 2444.2135,679.266 2456.2935,714.896" fill="none" id="RUNTIME-to-PAM" style="stroke:#2563EB;stroke-width:1;"/><polygon fill="#2563EB" points="2458.22,720.5783,2459.1184,710.7705,2456.6146,715.843,2451.542,713.3392,2458.22,720.5783" style="stroke:#2563EB;stroke-width:1;"/><text fill="#333333" font-family="sans-serif" font-size="13" lengthAdjust="spacing" textLength="78.0508" x="2457.6534" y="616.7366">authenticate</text><text fill="#333333" font-family="sans-serif" font-size="13" lengthAdjust="spacing" textLength="149.0176" x="2422.17" y="632.0472">(username + password)</text></g><!--link RUNTIME to PTYP--><g class="link" data-entity-1="ent0009" data-entity-2="ent0012" data-link-type="dependency" data-source-line="59" id="lnk28"><path d="M2167.61,555.7983 C2187.58,566.0283 2207.28,579.1483 2222.26,595.6683 C2252.08,628.5283 2266.0772,672.1148 2273.5272,706.4348" fill="none" id="RUNTIME-to-PTYP" style="stroke:#2563EB;stroke-width:1;"/><polygon fill="#2563EB" points="2274.8,712.2983,2276.7998,702.6546,2273.7393,707.4121,2268.9818,704.3517,2274.8,712.2983" style="stroke:#2563EB;stroke-width:1;"/><text fill="#333333" font-family="sans-serif" font-size="13" lengthAdjust="spacing" textLength="118.4282" x="2252.51" y="624.2366">spawn + supervise</text></g><!--link PAM to LIBPAM--><g class="link" data-entity-1="ent0011" data-entity-2="ent0022" data-link-type="dependency" data-source-line="62" id="lnk29"><path d="M2446.75,720.6683 C2429.17,696.5783 2401.45,665.1883 2368.26,650.6683 C2275.58,610.0983 1717.88,616.3983 1349.76,627.6983 C1183.53,632.8083 1131.18,590.1683 976.26,650.6683 C938.21,665.5183 907.0893,692.223 883.7793,716.123" fill="none" id="PAM-to-LIBPAM" style="stroke:#2563EB;stroke-width:1;"/><polygon fill="#2563EB" points="879.59,720.4183,888.7375,716.7682,883.0811,716.8388,883.0104,711.1824,879.59,720.4183" style="stroke:#2563EB;stroke-width:1;"/><text fill="#333333" font-family="sans-serif" font-size="13" lengthAdjust="spacing" textLength="98.8267" x="1369.1301" y="616.7366">dlopen / ctypes</text><text fill="#333333" font-family="sans-serif" font-size="13" lengthAdjust="spacing" textLength="135.5669" x="1350.76" y="632.0472">conversation callback</text></g><!--link LIBPAM to PAM--><g class="link" data-entity-1="ent0022" data-entity-2="ent0011" data-link-type="dependency" data-source-line="63" id="lnk30"><path d="M879.04,720.7283 C902.31,696.6683 937.82,665.2983 976.26,650.6683 C1190.59,569.0583 1262.48,632.8083 1491.76,627.6983 C1823.46,620.3183 2311.92,625.8883 2368.26,650.6683 C2401.42,665.2483 2425.5995,691.7842 2443.1995,715.8642" fill="none" id="LIBPAM-to-PAM" style="stroke:#2563EB;stroke-width:1;"/><polygon fill="#2563EB" points="2446.74,720.7083,2444.6586,711.0819,2443.7896,716.6716,2438.1999,715.8025,2446.74,720.7083" style="stroke:#2563EB;stroke-width:1;"/><text fill="#333333" font-family="sans-serif" font-size="13" lengthAdjust="spacing" textLength="99.2456" x="1492.76" y="616.7366">env vars, limits,</text><text fill="#333333" font-family="sans-serif" font-size="13" lengthAdjust="spacing" textLength="86.8042" x="1498.9807" y="632.0472">session token</text></g><!--link PTYP to PROC--><g class="link" data-entity-1="ent0012" data-entity-2="ent0023" data-link-type="dependency" data-source-line="66" id="lnk31"><path d="M2258.78,712.4083 C2243.72,689.8683 2221.65,663.6783 2194.26,650.6683 C2067.48,590.3983 1071.62,621.8983 931.26,620.1983 C847.71,619.1983 821.17,590.0183 743.26,620.1983 C691.48,640.2583 650.5852,683.6648 624.9952,715.9748" fill="none" id="PTYP-to-PROC" style="stroke:#2563EB;stroke-width:1;"/><polygon fill="#2563EB" points="621.27,720.6783,629.9935,716.1065,624.3744,716.7587,623.7222,711.1396,621.27,720.6783" style="stroke:#2563EB;stroke-width:1;"/><text fill="#333333" font-family="sans-serif" font-size="13" lengthAdjust="spacing" textLength="131.2441" x="772.0024" y="609.2366">fork &#8594; setuid/setgid</text><text fill="#333333" font-family="sans-serif" font-size="13" lengthAdjust="spacing" textLength="60.2012" x="807.5239" y="624.5472">&#8594; execve</text><text fill="#333333" font-family="sans-serif" font-size="13" lengthAdjust="spacing" textLength="186.729" x="744.26" y="639.8577">(PTY master owned by server)</text></g><!--link PTYP to CAPLIB--><g class="link" data-entity-1="ent0012" data-entity-2="ent0019" data-link-type="dependency" data-source-line="67" id="lnk32"><path d="M2259.29,712.3983 C2244.21,689.8483 2221.95,663.4683 2194.26,650.6683 C2168.14,638.5883 1184.1,655.3283 1158.26,642.6683 C1134.39,630.9583 1141.73,612.6183 1121.26,595.6683 C1107.02,583.8683 1095.724,576.1738 1079.194,566.9838" fill="none" id="PTYP-to-CAPLIB" style="stroke:#2563EB;stroke-width:1;stroke-dasharray:7,7;"/><polygon fill="#2563EB" points="1073.95,564.0683,1079.8724,571.9375,1078.32,566.4978,1083.7597,564.9455,1073.95,564.0683" style="stroke:#2563EB;stroke-width:1;"/><text fill="#333333" font-family="sans-serif" font-size="13" lengthAdjust="spacing" textLength="182.1714" x="1159.26" y="609.2366">sets DYLD_INSERT_LIBRARIES</text><text fill="#333333" font-family="sans-serif" font-size="13" lengthAdjust="spacing" textLength="176.8711" x="1161.9101" y="624.5472">or LD_PRELOAD before exec</text><text fill="#333333" font-family="sans-serif" font-size="13" lengthAdjust="spacing" textLength="60.2329" x="1220.2292" y="639.8577">(optional)</text></g><!--link CAPLIB to PROC--><g class="link" data-entity-1="ent0019" data-entity-2="ent0023" data-link-type="dependency" data-source-line="68" id="lnk33"><path d="M894.86,564.0383 C868.98,573.5283 840.42,582.4483 813.26,587.6683 C798.58,590.4783 554.67,584.9383 544.26,595.6683 C510.97,629.9583 540.4092,681.0478 567.4592,715.7178" fill="none" id="CAPLIB-to-PROC" style="stroke:#2563EB;stroke-width:1;"/><polygon fill="#2563EB" points="571.15,720.4483,568.7675,710.8919,568.0743,716.5062,562.4601,715.813,571.15,720.4483" style="stroke:#2563EB;stroke-width:1;"/><text fill="#333333" font-family="sans-serif" font-size="13" lengthAdjust="spacing" textLength="189.2363" x="545.26" y="624.2366">intercepts read/write/connect</text></g><!--link CAPLIB to CSOCK--><g class="link" data-entity-1="ent0019" data-entity-2="ent0013" data-link-type="dependency" data-source-line="69" id="lnk34"><path d="M964.96,564.0183 C954.7,589.7983 948.19,622.4283 968.26,642.6683 C977.98,652.4683 1949.24,646.0683 1962.26,650.6683 C2001.8,664.6183 2034.1456,692.168 2057.7756,716.338" fill="none" id="CAPLIB-to-CSOCK" style="stroke:#2563EB;stroke-width:1;"/><polygon fill="#2563EB" points="2061.97,720.6283,2058.5385,711.3965,2058.4746,717.053,2052.8181,716.9891,2061.97,720.6283" style="stroke:#2563EB;stroke-width:1;"/><text fill="#333333" font-family="sans-serif" font-size="13" lengthAdjust="spacing" textLength="147.2021" x="969.26" y="616.7366">tunnels intercepted I/O</text><text fill="#333333" font-family="sans-serif" font-size="13" lengthAdjust="spacing" textLength="95.6719" x="995.0251" y="632.0472">via Unix socket</text></g><!--link CSOCK to RUNTIME--><g class="link" data-entity-1="ent0013" data-entity-2="ent0009" data-link-type="dependency" data-source-line="70" id="lnk35"><path d="M2075.02,720.5583 C2062.31,689.2683 2046.76,639.3683 2054.26,595.6683 C2056.57,582.1883 2059.0546,573.4754 2063.7046,561.2654" fill="none" id="CSOCK-to-RUNTIME" style="stroke:#2563EB;stroke-width:1;"/><polygon fill="#2563EB" points="2065.84,555.6583,2058.8988,562.6454,2064.0605,560.3309,2066.375,565.4926,2065.84,555.6583" style="stroke:#2563EB;stroke-width:1;"/><text fill="#333333" font-family="sans-serif" font-size="13" lengthAdjust="spacing" textLength="162.0176" x="2055.26" y="624.2366">additional capture stream</text></g><!--link SSHD to PAMU--><g class="link" data-entity-1="ent0024" data-entity-2="ent0020" data-link-type="dependency" data-source-line="73" id="lnk36"><path d="M340.15,720.4983 C312.83,686.6383 279.61,632.2783 310.26,595.6683 C348.48,550.0083 505.459,534.1271 610.049,528.3871" fill="none" id="SSHD-to-PAMU" style="stroke:#2563EB;stroke-width:1;"/><polygon fill="#2563EB" points="616.04,528.0583,606.8343,524.5575,611.0475,528.3323,607.2727,532.5455,616.04,528.0583" style="stroke:#2563EB;stroke-width:1;"/><text fill="#333333" font-family="sans-serif" font-size="13" lengthAdjust="spacing" textLength="151.0044" x="311.26" y="616.7366">calls pam_open_session</text><text fill="#333333" font-family="sans-serif" font-size="13" lengthAdjust="spacing" textLength="113.4961" x="330.0142" y="632.0472">(via pam.d config)</text></g><!--link PAMU to RUNTIME--><g class="link" data-entity-1="ent0020" data-entity-2="ent0009" data-link-type="dependency" data-source-line="74" id="lnk37"><path d="M724.88,483.9483 C742.52,451.2883 772.4,407.3883 813.26,387.4383 C870.62,359.4383 1904.3,360.7083 1962.26,387.4383 C2008.74,408.8783 2040.6829,453.6704 2059.8029,486.8304" fill="none" id="PAMU-to-RUNTIME" style="stroke:#2563EB;stroke-width:1;"/><polygon fill="#2563EB" points="2062.8,492.0283,2061.7696,482.2335,2060.3024,487.6967,2054.8392,486.2296,2062.8,492.0283" style="stroke:#2563EB;stroke-width:1;"/><text fill="#333333" font-family="sans-serif" font-size="13" lengthAdjust="spacing" textLength="114.2515" x="1325.207" y="361.0066">Unix socket notify</text><text fill="#333333" font-family="sans-serif" font-size="13" lengthAdjust="spacing" textLength="171.1455" x="1296.76" y="376.3172">&#8594; register existing session</text></g><!--link CAPLIB to GMN38--><g class="link" data-entity-1="ent0019" data-entity-2="ent0039" data-link-type="association" data-source-line="77" id="lnk40"><path d="M894.87,564.0783 C868.99,573.5683 840.42,582.4783 813.26,587.6683 C749.72,599.7883 585.08,580.1983 522.26,595.6683 C476.13,607.0183 472.26,630.7783 426.26,642.6683 C392.01,651.5083 300.65,638.9683 267.26,650.6683 C227.84,664.4783 189.81,693.1483 163.36,716.3783" fill="none" id="CAPLIB-GMN38" style="stroke:#2563EB;stroke-width:1;stroke-dasharray:7,7;"/></g><!--link PAMU to GMN41--><g class="link" data-entity-1="ent0020" data-entity-2="ent0042" data-link-type="association" data-source-line="84" id="lnk43"><path d="M707.08,564.0383 C709.91,590.7083 718.43,624.3883 742.26,642.6683 C762.82,658.4283 950.48,643.1283 975.26,650.6683 C1019.62,664.1583 1063.91,693.0183 1094.94,716.4083" fill="none" id="PAMU-GMN41" style="stroke:#2563EB;stroke-width:1;stroke-dasharray:7,7;"/></g><?plantuml-src XLRTRjis6BtNKn3fnM8qiR6r3RO0Av3OAHeqZGtRGL4qGq1Bdsmk4YcGb1DXAB2hFS2m9zoJx7oah2Xfk-Oc2dc-_tC-nYjVaAXrHlcX9rigBOl3oZVYtp__4ISstIXFgQyj9OcxLRgILfPY9TFRjJMm6fl2MF4i3pyz1Dp9kl1lZFOjv4NuwK5IKrP6a_QdncPaMrZsO_OgMtqLzaNG5_dB_AW7hO2GQ_f_VplGTqkGrfgxzlAdLqSlgEz56_-TE07nHP1VSfdtKPdqSYNTTtnrg6-q86cB4dkdoDcH5ICnVYCcqptnHoB4f_RqMk_Vyuo7lxl1Rq8wSJgVVbYSpHaoBaoTvOMq13C0Fz1gOT9RygAovhw9-CaKK2vCMBNUU67oU2JmIwHIYurQaTNIqp2SpfOVsJmbvuIhxLPjoJ6nmgNoeWW7HWk_8O44jsJPa7GMeYIVUvKzfcYB5lkpnc-C7hI5lZNEKxP0F6NqlDPUbOHYN3n0l9pI9YqebZE_kboUlpzBODc5GSfZepKuZ_wA_NJtVUERYdw5C13g6UNvKPw7a0WwasKR4Q5Ing78l_v6j5KbonXgTlA-1Vjc5Zi2i773tDXRyLomusljoDSgm_3miLPPj5n-d4NJiQnOY74iiBxIwbwuEAJOZXXhl9YEty7aywF2pkwLyqglHLUUszjLi72RxXIEfMjqwjmckbiitaRKaWfDlWE6o-NPHRpi-FBu_iDYFBqCkNnxbc7TY7tG1dJWzkQKf_Hpd2YQM3Fm9etL8xsXCsZHC6jmXwPTJ6vcyxEBwSa4fvEF-FFy4gHUtboSdyvFvkTdYzYLanaEs2M6SXDyHbzmWUc87KTAazK5xOPszIZlwG8Xte7XLEnrwS4T7CMFc5hx7HCCdX0vCk3JKjervlN00RUXeZWGAtJ2DWTYBKiIQQ6my5hcpATZDiGyc1c5MIlD3AbXIxkPPf9Aerqti0cd_OFeYLZwJTBANHmUlcR17Z_SmrSfcmVv3XBSCwoLo1DiHTOXCkUOx12CvZuU2rb3pf1U2aS0ruvzeYgmN3ftXqttn0eCXvchv9q6oDLmlrMEk0Bs67Bd3mR7JWAU5QOYxaHKtBM6L2411nPXYgai2dwbaXR_a1tfhTXAwmumfb9vTy2oYwFtvfPqY8gzzLpGFQLjSCumkC0mu2E8bYKU1JkAShtMVCHMMwwRdPGINRB2t6dAnAhPoJGw70vVjwpawicxhxFtMcCJzKY-8eId48TNICNrocAGjAvwQIgDu2bLy6n9PgCxYyTyrAwqFZvi31Zu6bU5Up14rkSZF0TR9KLltIJHu351P9Qfc8jejIgSHzoIEpe911Khgp88AJILQRgRonNiUMHEi3Xvi3UkMwaSFEW9_mleNAq7IR1u7Bs_3F5sgBo9ux2qLc46dLPQnqaI7hALyTwK_99r2-AyQzjnwDl-u424rl57sxtz0O1NZlAwO3P4-IeiVh-H7fDcfZEDWC9jPaIcBCm45kWTamTTvPVkql0HPUWpUy6aItxRU2MuOTAzWqzJ3Oj9F6ag5XSTupIpfXBTZkEDX75YBP5FHw6D8rub00QsWewW9U-MdGfaLH7q0IjWdhowaBOf9KkxA9fUWly1?></g></svg>