<?plantuml 1.2026.2?><svg xmlns="http://www.w3.org/2000/svg" xmlns:xlink="http://www.w3.org/1999/xlink" contentStyleType="text/css" data-diagram-type="SEQUENCE" height="897px" preserveAspectRatio="none" style="width:636px;height:897px;background:#FFFFFF;" version="1.1" viewBox="0 0 636 897" width="636px" zoomAndPan="magnify"><title>DeckMux &#8212; Auto-Transfer (Owner Idle + Active Requester)</title><defs/><g><text fill="#333333" font-family="sans-serif" font-size="14" font-weight="bold" lengthAdjust="spacing" textLength="429.625" x="101.7664" y="28.5352">DeckMux &#8212; Auto-Transfer (Owner Idle + Active Requester)</text><rect fill="none" height="191.1289" style="stroke:#000000;stroke-width:1.5;" width="491.479" x="9" y="637.2754"/><g class="participant-lifeline" data-entity-uid="part1" data-qualified-name="J" id="part1-lifeline"><g><title>Jane</title><rect fill="#000000" fill-opacity="0.00000" height="89.9316" width="8" x="82.9663" y="90.4648"/><line style="stroke:#D1D5DB;stroke-width:0.5;stroke-dasharray:5,5;" x1="86" x2="86" y1="90.4648" y2="180.3965"/></g><line style="stroke:#D1D5DB;stroke-width:0.5;stroke-dasharray:1,4;" x1="86" x2="86" y1="180.3965" y2="221.3516"/><g><title>Jane</title><rect fill="#000000" fill-opacity="0.00000" height="205.7949" width="8" x="82.9663" y="221.3516"/><line style="stroke:#D1D5DB;stroke-width:0.5;stroke-dasharray:5,5;" x1="86" x2="86" y1="221.3516" y2="427.1465"/></g><line style="stroke:#D1D5DB;stroke-width:0.5;stroke-dasharray:1,4;" x1="86" x2="86" y1="427.1465" y2="468.1016"/><g><title>Jane</title><rect fill="#000000" fill-opacity="0.00000" height="377.3027" width="8" x="82.9663" y="468.1016"/><line style="stroke:#D1D5DB;stroke-width:0.5;stroke-dasharray:5,5;" x1="86" x2="86" y1="468.1016" y2="845.4043"/></g></g><g class="participant-lifeline" data-entity-uid="part2" data-qualified-name="S" id="part2-lifeline"><g><title>Server</title><rect fill="#000000" fill-opacity="0.00000" height="89.9316" width="8" x="315.8994" y="90.4648"/><line style="stroke:#D1D5DB;stroke-width:0.5;stroke-dasharray:5,5;" x1="318.978" x2="318.978" y1="90.4648" y2="180.3965"/></g><line style="stroke:#D1D5DB;stroke-width:0.5;stroke-dasharray:1,4;" x1="318.978" x2="318.978" y1="180.3965" y2="221.3516"/><g><title>Server</title><rect fill="#000000" fill-opacity="0.00000" height="205.7949" width="8" x="315.8994" y="221.3516"/><line style="stroke:#D1D5DB;stroke-width:0.5;stroke-dasharray:5,5;" x1="318.978" x2="318.978" y1="221.3516" y2="427.1465"/></g><line style="stroke:#D1D5DB;stroke-width:0.5;stroke-dasharray:1,4;" x1="318.978" x2="318.978" y1="427.1465" y2="468.1016"/><g><title>Server</title><rect fill="#000000" fill-opacity="0.00000" height="377.3027" width="8" x="315.8994" y="468.1016"/><line style="stroke:#D1D5DB;stroke-width:0.5;stroke-dasharray:5,5;" x1="318.978" x2="318.978" y1="468.1016" y2="845.4043"/></g></g><g class="participant-lifeline" data-entity-uid="part3" data-qualified-name="T" id="part3-lifeline"><g><title>Tim</title><rect fill="#000000" fill-opacity="0.00000" height="89.9316" width="8" x="521.9946" y="90.4648"/><line style="stroke:#D1D5DB;stroke-width:0.5;stroke-dasharray:5,5;" x1="525.3872" x2="525.3872" y1="90.4648" y2="180.3965"/></g><line style="stroke:#D1D5DB;stroke-width:0.5;stroke-dasharray:1,4;" x1="525.3872" x2="525.3872" y1="180.3965" y2="221.3516"/><g><title>Tim</title><rect fill="#000000" fill-opacity="0.00000" height="205.7949" width="8" x="521.9946" y="221.3516"/><line style="stroke:#D1D5DB;stroke-width:0.5;stroke-dasharray:5,5;" x1="525.3872" x2="525.3872" y1="221.3516" y2="427.1465"/></g><line style="stroke:#D1D5DB;stroke-width:0.5;stroke-dasharray:1,4;" x1="525.3872" x2="525.3872" y1="427.1465" y2="468.1016"/><g><title>Tim</title><rect fill="#000000" fill-opacity="0.00000" height="377.3027" width="8" x="521.9946" y="468.1016"/><line style="stroke:#D1D5DB;stroke-width:0.5;stroke-dasharray:5,5;" x1="525.3872" x2="525.3872" y1="468.1016" y2="845.4043"/></g></g><g class="participant participant-head" data-entity-uid="part1" data-qualified-name="J" id="part1-head"><rect fill="#F3F4F6" height="46.9766" rx="2.5" ry="2.5" style="stroke:#D1D5DB;stroke-width:0.5;" width="65.9326" x="54" y="42.4883"/><text fill="#333333" font-family="sans-serif" font-size="14" lengthAdjust="spacing" textLength="28.5742" x="72.6792" y="63.0234">Jane</text><text fill="#333333" font-family="sans-serif" font-size="14" lengthAdjust="spacing" textLength="51.9326" x="61" y="79.5117">(typing)</text></g><g class="participant participant-tail" data-entity-uid="part1" data-qualified-name="J" id="part1-tail"><rect fill="#F3F4F6" height="46.9766" rx="2.5" ry="2.5" style="stroke:#D1D5DB;stroke-width:0.5;" width="65.9326" x="54" y="844.4043"/><text fill="#333333" font-family="sans-serif" font-size="14" lengthAdjust="spacing" textLength="28.5742" x="72.6792" y="864.9395">Jane</text><text fill="#333333" font-family="sans-serif" font-size="14" lengthAdjust="spacing" textLength="51.9326" x="61" y="881.4277">(typing)</text></g><g class="participant participant-head" data-entity-uid="part2" data-qualified-name="S" id="part2-head"><rect fill="#F3F4F6" height="30.4883" rx="2.5" ry="2.5" style="stroke:#D1D5DB;stroke-width:0.5;" width="55.8428" x="291.978" y="58.9766"/><text fill="#333333" font-family="sans-serif" font-size="14" lengthAdjust="spacing" textLength="41.8428" x="298.978" y="79.5117">Server</text></g><g class="participant participant-tail" data-entity-uid="part2" data-qualified-name="S" id="part2-tail"><rect fill="#F3F4F6" height="30.4883" rx="2.5" ry="2.5" style="stroke:#D1D5DB;stroke-width:0.5;" width="55.8428" x="291.978" y="844.4043"/><text fill="#333333" font-family="sans-serif" font-size="14" lengthAdjust="spacing" textLength="41.8428" x="298.978" y="864.9395">Server</text></g><g class="participant participant-head" data-entity-uid="part3" data-qualified-name="T" id="part3-head"><rect fill="#F3F4F6" height="46.9766" rx="2.5" ry="2.5" style="stroke:#D1D5DB;stroke-width:0.5;" width="79.2148" x="486.3872" y="42.4883"/><text fill="#333333" font-family="sans-serif" font-size="14" lengthAdjust="spacing" textLength="25.9697" x="513.0098" y="63.0234">Tim</text><text fill="#333333" font-family="sans-serif" font-size="14" lengthAdjust="spacing" textLength="65.2148" x="493.3872" y="79.5117">(DM, idle)</text></g><g class="participant participant-tail" data-entity-uid="part3" data-qualified-name="T" id="part3-tail"><rect fill="#F3F4F6" height="46.9766" rx="2.5" ry="2.5" style="stroke:#D1D5DB;stroke-width:0.5;" width="79.2148" x="486.3872" y="844.4043"/><text fill="#333333" font-family="sans-serif" font-size="14" lengthAdjust="spacing" textLength="25.9697" x="513.0098" y="864.9395">Tim</text><text fill="#333333" font-family="sans-serif" font-size="14" lengthAdjust="spacing" textLength="65.2148" x="493.3872" y="881.4277">(DM, idle)</text></g><g class="message" data-entity-1="part1" data-entity-2="part2" id="msg1"><polygon fill="#2563EB" points="307.8994,117.7754,317.8994,121.7754,307.8994,125.7754,311.8994,121.7754" style="stroke:#2563EB;stroke-width:1;"/><line style="stroke:#2563EB;stroke-width:1;" x1="86.9663" x2="313.8994" y1="121.7754" y2="121.7754"/><text fill="#333333" font-family="sans-serif" font-size="13" lengthAdjust="spacing" textLength="208.9331" x="93.9663" y="117.0332">queued_input {keys: "&lt;&lt;&gt;&gt;kqs"}</text></g><path d="M226,134.7754 L226,174.7754 L413,174.7754 L413,144.7754 L403,134.7754 L226,134.7754" fill="#F9FAFB" style="stroke:#D1D5DB;stroke-width:0.5;"/><path d="M403,134.7754 L403,144.7754 L413,144.7754 L403,134.7754" fill="#F9FAFB" style="stroke:#D1D5DB;stroke-width:0.5;"/><text fill="#333333" font-family="sans-serif" font-size="13" lengthAdjust="spacing" textLength="166.0547" x="232" y="152.3438">Jane's keystrokes buffered</text><text fill="#333333" font-family="sans-serif" font-size="13" lengthAdjust="spacing" textLength="118.0029" x="232" y="167.6543">Display: &lt;&lt;&gt;&gt;kqs</text><text fill="#333333" font-family="sans-serif" font-size="11" lengthAdjust="spacing" textLength="66.2954" x="273.3328" y="205.0313">Tim idle 20s</text><path d="M228,226.3516 L228,281.3516 L410,281.3516 L410,236.3516 L400,226.3516 L228,226.3516" fill="#F9FAFB" style="stroke:#D1D5DB;stroke-width:0.5;"/><path d="M400,226.3516 L400,236.3516 L410,236.3516 L400,226.3516" fill="#F9FAFB" style="stroke:#D1D5DB;stroke-width:0.5;"/><text fill="#333333" font-family="sans-serif" font-size="13" lengthAdjust="spacing" textLength="78.3491" x="234" y="243.9199">Tim idle 20s</text><text fill="#333333" font-family="sans-serif" font-size="13" lengthAdjust="spacing" textLength="161.5605" x="234" y="259.2305">auto_transfer_idle_s = 30</text><text fill="#333333" font-family="sans-serif" font-size="13" lengthAdjust="spacing" textLength="157.4727" x="234" y="274.541">Warning threshold = 20s</text><g class="message" data-entity-1="part2" data-entity-2="part3" id="msg2"><polygon fill="#2563EB" points="513.9946,319.9043,523.9946,323.9043,513.9946,327.9043,517.9946,323.9043" style="stroke:#2563EB;stroke-width:1;"/><line style="stroke:#2563EB;stroke-width:1;" x1="319.8994" x2="519.9946" y1="323.9043" y2="323.9043"/><text fill="#333333" font-family="sans-serif" font-size="13" lengthAdjust="spacing" textLength="141.0068" x="326.8994" y="303.8516">auto_transfer_warning</text><text fill="#333333" font-family="sans-serif" font-size="13" lengthAdjust="spacing" textLength="154.6479" x="326.8994" y="319.1621">{seconds_remaining: 10}</text></g><g class="message" data-entity-1="part2" data-entity-2="part1" id="msg3"><polygon fill="#2563EB" points="97.9663,364.5254,87.9663,368.5254,97.9663,372.5254,93.9663,368.5254" style="stroke:#2563EB;stroke-width:1;"/><line style="stroke:#2563EB;stroke-width:1;" x1="91.9663" x2="318.8994" y1="368.5254" y2="368.5254"/><text fill="#333333" font-family="sans-serif" font-size="13" lengthAdjust="spacing" textLength="141.0068" x="103.9663" y="348.4727">auto_transfer_warning</text><text fill="#333333" font-family="sans-serif" font-size="13" lengthAdjust="spacing" textLength="154.6479" x="103.9663" y="363.7832">{seconds_remaining: 10}</text></g><path d="M422,381.5254 L422,421.5254 L629,421.5254 L629,391.5254 L619,381.5254 L422,381.5254" fill="#F9FAFB" style="stroke:#D1D5DB;stroke-width:0.5;"/><path d="M619,381.5254 L619,391.5254 L629,391.5254 L619,381.5254" fill="#F9FAFB" style="stroke:#D1D5DB;stroke-width:0.5;"/><text fill="#333333" font-family="sans-serif" font-size="13" lengthAdjust="spacing" textLength="186.1577" x="428" y="399.0938">Toast: "Losing control in 10s"</text><text fill="#333333" font-family="sans-serif" font-size="13" lengthAdjust="spacing" textLength="117.1714" x="428" y="414.4043">Border dims/fades</text><text fill="#333333" font-family="sans-serif" font-size="11" lengthAdjust="spacing" textLength="195.8462" x="208.5574" y="451.7813">10 more seconds, Tim does not type</text><g class="message" data-entity-1="part2" data-entity-2="part2" id="msg4"><line style="stroke:#2563EB;stroke-width:1;" x1="319.8994" x2="361.8994" y1="504.7227" y2="504.7227"/><line style="stroke:#2563EB;stroke-width:1;" x1="361.8994" x2="361.8994" y1="504.7227" y2="517.7227"/><line style="stroke:#2563EB;stroke-width:1;" x1="320.8994" x2="361.8994" y1="517.7227" y2="517.7227"/><polygon fill="#2563EB" points="330.8994,513.7227,320.8994,517.7227,330.8994,521.7227,326.8994,517.7227" style="stroke:#2563EB;stroke-width:1;"/><text fill="#333333" font-family="sans-serif" font-size="13" lengthAdjust="spacing" textLength="118.606" x="326.8994" y="484.6699">release Tim's lease</text><text fill="#333333" font-family="sans-serif" font-size="13" lengthAdjust="spacing" textLength="122.8208" x="326.8994" y="499.9805">acquire Jane's lease</text></g><g class="message" data-entity-1="part2" data-entity-2="part1" id="msg5"><polygon fill="#2563EB" points="97.9663,573.6543,87.9663,577.6543,97.9663,581.6543,93.9663,577.6543" style="stroke:#2563EB;stroke-width:1;"/><line style="stroke:#2563EB;stroke-width:1;" x1="91.9663" x2="318.8994" y1="577.6543" y2="577.6543"/><text fill="#333333" font-family="sans-serif" font-size="13" lengthAdjust="spacing" textLength="100.5342" x="103.9663" y="542.291">control_transfer</text><text fill="#333333" font-family="sans-serif" font-size="13" lengthAdjust="spacing" textLength="181.981" x="103.9663" y="557.6016">{to: jane, reason: "auto_idle",</text><text fill="#333333" font-family="sans-serif" font-size="13" lengthAdjust="spacing" textLength="167.6543" x="103.9663" y="572.9121">queued_keys: "&lt;&lt;&gt;&gt;kqs"}</text></g><g class="message" data-entity-1="part2" data-entity-2="part3" id="msg6"><polygon fill="#2563EB" points="513.9946,618.2754,523.9946,622.2754,513.9946,626.2754,517.9946,622.2754" style="stroke:#2563EB;stroke-width:1;"/><line style="stroke:#2563EB;stroke-width:1;" x1="319.8994" x2="519.9946" y1="622.2754" y2="622.2754"/><text fill="#333333" font-family="sans-serif" font-size="13" lengthAdjust="spacing" textLength="100.5342" x="326.8994" y="602.2227">control_transfer</text><text fill="#333333" font-family="sans-serif" font-size="13" lengthAdjust="spacing" textLength="182.0952" x="326.8994" y="617.5332">{to: jane, reason: "auto_idle"}</text></g><path d="M9,637.2754 L71.1387,637.2754 L71.1387,644.5859 L61.1387,654.5859 L9,654.5859 L9,637.2754" fill="#EEEEEE" style="stroke:#000000;stroke-width:1.5;"/><rect fill="none" height="191.1289" style="stroke:#000000;stroke-width:1.5;" width="491.479" x="9" y="637.2754"/><text fill="#333333" font-family="sans-serif" font-size="13" font-weight="bold" lengthAdjust="spacing" textLength="17.1387" x="24" y="650.8438">alt</text><text fill="#333333" font-family="sans-serif" font-size="11" font-weight="bold" lengthAdjust="spacing" textLength="174.0879" x="86.1387" y="649.9102">[keystroke_queue == "replay"]</text><g class="message" data-entity-1="part2" data-entity-2="part2" id="msg7"><line style="stroke:#2563EB;stroke-width:1;" x1="319.8994" x2="361.8994" y1="691.207" y2="691.207"/><line style="stroke:#2563EB;stroke-width:1;" x1="361.8994" x2="361.8994" y1="691.207" y2="704.207"/><line style="stroke:#2563EB;stroke-width:1;" x1="320.8994" x2="361.8994" y1="704.207" y2="704.207"/><polygon fill="#2563EB" points="330.8994,700.207,320.8994,704.207,330.8994,708.207,326.8994,704.207" style="stroke:#2563EB;stroke-width:1;"/><text fill="#333333" font-family="sans-serif" font-size="13" lengthAdjust="spacing" textLength="161.5796" x="326.8994" y="671.1543">replay queued keystrokes</text><text fill="#333333" font-family="sans-serif" font-size="13" lengthAdjust="spacing" textLength="69.2847" x="326.8994" y="686.4648">to terminal</text></g><path d="M19,717.207 L19,757.207 L154,757.207 L154,727.207 L144,717.207 L19,717.207" fill="#F9FAFB" style="stroke:#D1D5DB;stroke-width:0.5;"/><path d="M144,717.207 L144,727.207 L154,727.207 L144,717.207" fill="#F9FAFB" style="stroke:#D1D5DB;stroke-width:0.5;"/><text fill="#333333" font-family="sans-serif" font-size="13" lengthAdjust="spacing" textLength="99.6963" x="25" y="734.7754">Keystrokes sent</text><text fill="#333333" font-family="sans-serif" font-size="13" lengthAdjust="spacing" textLength="114.0801" x="25" y="750.0859">Zero-loss handoff</text><line style="stroke:#000000;stroke-width:1;stroke-dasharray:2,2;" x1="9" x2="500.479" y1="763.8281" y2="763.8281"/><text fill="#333333" font-family="sans-serif" font-size="11" font-weight="bold" lengthAdjust="spacing" textLength="179.7275" x="14" y="774.4629">[keystroke_queue == "display"]</text><path d="M31,782.7832 L31,822.7832 L142,822.7832 L142,792.7832 L132,782.7832 L31,782.7832" fill="#F9FAFB" style="stroke:#D1D5DB;stroke-width:0.5;"/><path d="M132,782.7832 L132,792.7832 L142,792.7832 L132,782.7832" fill="#F9FAFB" style="stroke:#D1D5DB;stroke-width:0.5;"/><text fill="#333333" font-family="sans-serif" font-size="13" lengthAdjust="spacing" textLength="90.416" x="37" y="800.3516">Queue cleared</text><text fill="#333333" font-family="sans-serif" font-size="13" lengthAdjust="spacing" textLength="80.1582" x="37" y="815.6621">Display-only</text><?plantuml-src bLJjYjf05Fq_Jt59VtINgjMrkz2m2hPIgDsb7mg54f0nSxDEZNTqPh9M5g4FqIVia_HEJ5Uj2yL0IBXpplquzp1U-noXZ-dijlW1lt_-WbxXJNra9RaCBPnzN15_tYj6lO1UwlKzmXTS5kWysdCXt4pJGbevXubCPtVM5AJUcjnOU9QLpnv2OIQBtBypv2j8ktps82wafXHxrffL1Rgul6hZv0dGZSxu9NnZh49ReLLBNQgdq9-azJhL2qd-TCBHREtiLNQrHoBZ_zD7YJZAypgJsKI8nQuMH0D9cD2PNoyqtPr781qC3X53jFTeovFXuSb8pvdQlws1vfrjoICX1b3lmZ06dgn0DUQU2WyFCrox6ABhwsvtjdJHHeGUmN3gW0rjF7SGGDwQ6JgO51cR0bL2VUqMkLp7K765Q3GQmCNBid3HTC01SPXm_pWXoKOR-yfeun0VE-X0kvdGLsc9HmS_jUYc9bSSPuuGmp36A8P3xceBJ-Z1OMf8kR75kTGX5aEhkTdI1YVJTirpoP6HphDODyQ5rfZ0ekIWYQ4kIcYxV51wxbvcKc4bIQi9SsCHgXArKWHbM4pE3hnYt0erh1PaCKVfCC1O-_AVfKgNXUOarKRAwEDGLIUFS_4ytiJmdR4rJYUT8Mwx73s87DKIgbnmjFw_yfwQSYE4pFtEAUEo07Gw45aCFea4m6x24AcSkEUkXBm1lbJcccJE-9twFEI7dGaTaa_e6rfJpurpC9Ma3DypcBDiJxMWjbwD_itvkKIahEQ-fUk6yhL0Kk8F?></g></svg>