<?plantuml 1.2026.2?><svg xmlns="http://www.w3.org/2000/svg" xmlns:xlink="http://www.w3.org/1999/xlink" contentStyleType="text/css" data-diagram-type="SEQUENCE" height="555px" preserveAspectRatio="none" style="width:637px;height:555px;background:#FFFFFF;" version="1.1" viewBox="0 0 637 555" width="637px" zoomAndPan="magnify"><title>DeckMux &#8212; CF Worker Hibernation Recovery</title><defs/><g><text fill="#333333" font-family="sans-serif" font-size="14" font-weight="bold" lengthAdjust="spacing" textLength="322.6563" x="155.7258" y="28.5352">DeckMux &#8212; CF Worker Hibernation Recovery</text><g class="participant-lifeline" data-entity-uid="part1" data-qualified-name="A" id="part1-lifeline"><g><title>Browser A</title><rect fill="#000000" fill-opacity="0.00000" height="412.6582" width="8" x="41.9609" y="90.4648"/><line style="stroke:#D1D5DB;stroke-width:0.5;stroke-dasharray:5,5;" x1="45" x2="45" y1="90.4648" y2="503.123"/></g></g><g class="participant-lifeline" data-entity-uid="part2" data-qualified-name="DO" id="part2-lifeline"><g><title>CF Worker</title><rect fill="#000000" fill-opacity="0.00000" height="412.6582" width="8" x="273.4277" y="90.4648"/><line style="stroke:#D1D5DB;stroke-width:0.5;stroke-dasharray:5,5;" x1="276.937" x2="276.937" y1="90.4648" y2="503.123"/></g></g><g class="participant-lifeline" data-entity-uid="part3" data-qualified-name="B" id="part3-lifeline"><g><title>Browser B</title><rect fill="#000000" fill-opacity="0.00000" height="412.6582" width="8" x="525.4609" y="90.4648"/><line style="stroke:#D1D5DB;stroke-width:0.5;stroke-dasharray:5,5;" x1="529.3032" x2="529.3032" y1="90.4648" y2="503.123"/></g></g><g class="participant participant-head" data-entity-uid="part1" data-qualified-name="A" id="part1-head"><rect fill="#F3F4F6" height="30.4883" rx="2.5" ry="2.5" style="stroke:#D1D5DB;stroke-width:0.5;" width="81.9219" x="5" y="58.9766"/><text fill="#333333" font-family="sans-serif" font-size="14" lengthAdjust="spacing" textLength="67.9219" x="12" y="79.5117">Browser A</text></g><g class="participant participant-tail" data-entity-uid="part1" data-qualified-name="A" id="part1-tail"><rect fill="#F3F4F6" height="30.4883" rx="2.5" ry="2.5" style="stroke:#D1D5DB;stroke-width:0.5;" width="81.9219" x="5" y="502.123"/><text fill="#333333" font-family="sans-serif" font-size="14" lengthAdjust="spacing" textLength="67.9219" x="12" y="522.6582">Browser A</text></g><g class="participant participant-head" data-entity-uid="part2" data-qualified-name="DO" id="part2-head"><rect fill="#F3F4F6" height="46.9766" rx="2.5" ry="2.5" style="stroke:#D1D5DB;stroke-width:0.5;" width="124.9814" x="214.937" y="42.4883"/><text fill="#333333" font-family="sans-serif" font-size="14" lengthAdjust="spacing" textLength="69.6377" x="242.6089" y="63.0234">CF Worker</text><text fill="#333333" font-family="sans-serif" font-size="14" lengthAdjust="spacing" textLength="110.9814" x="221.937" y="79.5117">(Durable Object)</text></g><g class="participant participant-tail" data-entity-uid="part2" data-qualified-name="DO" id="part2-tail"><rect fill="#F3F4F6" height="46.9766" rx="2.5" ry="2.5" style="stroke:#D1D5DB;stroke-width:0.5;" width="124.9814" x="214.937" y="502.123"/><text fill="#333333" font-family="sans-serif" font-size="14" lengthAdjust="spacing" textLength="69.6377" x="242.6089" y="522.6582">CF Worker</text><text fill="#333333" font-family="sans-serif" font-size="14" lengthAdjust="spacing" textLength="110.9814" x="221.937" y="539.1465">(Durable Object)</text></g><g class="participant participant-head" data-entity-uid="part3" data-qualified-name="B" id="part3-head"><rect fill="#F3F4F6" height="30.4883" rx="2.5" ry="2.5" style="stroke:#D1D5DB;stroke-width:0.5;" width="80.3154" x="489.3032" y="58.9766"/><text fill="#333333" font-family="sans-serif" font-size="14" lengthAdjust="spacing" textLength="66.3154" x="496.3032" y="79.5117">Browser B</text></g><g class="participant participant-tail" data-entity-uid="part3" data-qualified-name="B" id="part3-tail"><rect fill="#F3F4F6" height="30.4883" rx="2.5" ry="2.5" style="stroke:#D1D5DB;stroke-width:0.5;" width="80.3154" x="489.3032" y="502.123"/><text fill="#333333" font-family="sans-serif" font-size="14" lengthAdjust="spacing" textLength="66.3154" x="496.3032" y="522.6582">Browser B</text></g><path d="M202,105.4648 L202,160.4648 L350,160.4648 L350,115.4648 L340,105.4648 L202,105.4648" fill="#F9FAFB" style="stroke:#D1D5DB;stroke-width:0.5;"/><path d="M340,105.4648 L340,115.4648 L350,115.4648 L340,105.4648" fill="#F9FAFB" style="stroke:#D1D5DB;stroke-width:0.5;"/><text fill="#333333" font-family="sans-serif" font-size="13" lengthAdjust="spacing" textLength="69.5894" x="208" y="123.0332">Hibernated</text><text fill="#333333" font-family="sans-serif" font-size="13" lengthAdjust="spacing" textLength="127.9243" x="208" y="138.3438">(&gt;30s no messages)</text><text fill="#333333" font-family="sans-serif" font-size="13" lengthAdjust="spacing" textLength="117.8188" x="208" y="153.6543">Presence state lost</text><g class="message" data-entity-1="part1" data-entity-2="part1" id="msg1"><line style="stroke:#2563EB;stroke-width:1;" x1="45.9609" x2="87.9609" y1="187.707" y2="187.707"/><line style="stroke:#2563EB;stroke-width:1;" x1="87.9609" x2="87.9609" y1="187.707" y2="200.707"/><line style="stroke:#2563EB;stroke-width:1;" x1="46.9609" x2="87.9609" y1="200.707" y2="200.707"/><polygon fill="#2563EB" points="56.9609,196.707,46.9609,200.707,56.9609,204.707,52.9609,200.707" style="stroke:#2563EB;stroke-width:1;"/><text fill="#333333" font-family="sans-serif" font-size="13" lengthAdjust="spacing" textLength="72.103" x="52.9609" y="182.9648">user scrolls</text></g><g class="message" data-entity-1="part1" data-entity-2="part2" id="msg2"><polygon fill="#2563EB" points="265.4277,226.0176,275.4277,230.0176,265.4277,234.0176,269.4277,230.0176" style="stroke:#2563EB;stroke-width:1;"/><line style="stroke:#2563EB;stroke-width:1;" x1="45.9609" x2="271.4277" y1="230.0176" y2="230.0176"/><text fill="#333333" font-family="sans-serif" font-size="13" lengthAdjust="spacing" textLength="207.4668" x="52.9609" y="225.2754">presence_update {scroll_line: 42}</text></g><path d="M190,243.0176 L190,283.0176 L364,283.0176 L364,253.0176 L354,243.0176 L190,243.0176" fill="#F9FAFB" style="stroke:#D1D5DB;stroke-width:0.5;"/><path d="M354,243.0176 L354,253.0176 L364,253.0176 L354,243.0176" fill="#F9FAFB" style="stroke:#D1D5DB;stroke-width:0.5;"/><text fill="#333333" font-family="sans-serif" font-size="13" font-weight="bold" lengthAdjust="spacing" textLength="153.4355" x="196" y="260.5859">Wake from hibernation</text><text fill="#333333" font-family="sans-serif" font-size="13" lengthAdjust="spacing" textLength="145.8247" x="196" y="275.8965">PresenceStore is empty</text><g class="message" data-entity-1="part2" data-entity-2="part3" id="msg3"><polygon fill="#2563EB" points="517.4609,305.9492,527.4609,309.9492,517.4609,313.9492,521.4609,309.9492" style="stroke:#2563EB;stroke-width:1;"/><line style="stroke:#2563EB;stroke-width:1;" x1="277.4277" x2="523.4609" y1="309.9492" y2="309.9492"/><text fill="#333333" font-family="sans-serif" font-size="13" lengthAdjust="spacing" textLength="202.8267" x="284.4277" y="305.207">presence_update {user_id: A, ...}</text></g><path d="M427,322.9492 L427,377.9492 L630,377.9492 L630,332.9492 L620,322.9492 L427,322.9492" fill="#F9FAFB" style="stroke:#D1D5DB;stroke-width:0.5;"/><path d="M620,322.9492 L620,332.9492 L630,332.9492 L620,322.9492" fill="#F9FAFB" style="stroke:#D1D5DB;stroke-width:0.5;"/><text fill="#333333" font-family="sans-serif" font-size="13" lengthAdjust="spacing" textLength="175.627" x="433" y="340.5176">Received message after gap</text><text fill="#333333" font-family="sans-serif" font-size="13" lengthAdjust="spacing" textLength="182.1079" x="433" y="355.8281">Last sent presence &gt;10s ago</text><text fill="#333333" font-family="sans-serif" font-size="13" lengthAdjust="spacing" textLength="151.5376" x="433" y="371.1387">Triggering re-announce</text><g class="message" data-entity-1="part3" data-entity-2="part2" id="msg4"><polygon fill="#2563EB" points="288.4277,401.1914,278.4277,405.1914,288.4277,409.1914,284.4277,405.1914" style="stroke:#2563EB;stroke-width:1;"/><line style="stroke:#2563EB;stroke-width:1;" x1="282.4277" x2="528.4609" y1="405.1914" y2="405.1914"/><text fill="#333333" font-family="sans-serif" font-size="13" lengthAdjust="spacing" textLength="228.0332" x="294.4277" y="400.4492">presence_update {scroll_line: 15, ...}</text></g><g class="message" data-entity-1="part2" data-entity-2="part1" id="msg5"><polygon fill="#2563EB" points="56.9609,430.502,46.9609,434.502,56.9609,438.502,52.9609,434.502" style="stroke:#2563EB;stroke-width:1;"/><line style="stroke:#2563EB;stroke-width:1;" x1="50.9609" x2="276.4277" y1="434.502" y2="434.502"/><text fill="#333333" font-family="sans-serif" font-size="13" lengthAdjust="spacing" textLength="201.335" x="62.9609" y="429.7598">presence_update {user_id: B, ...}</text></g><path d="M7,447.502 L7,487.502 L566,487.502 L566,457.502 L556,447.502 L7,447.502" fill="#F9FAFB" style="stroke:#D1D5DB;stroke-width:0.5;"/><path d="M556,447.502 L556,457.502 L566,457.502 L556,447.502" fill="#F9FAFB" style="stroke:#D1D5DB;stroke-width:0.5;"/><text fill="#333333" font-family="sans-serif" font-size="13" lengthAdjust="spacing" textLength="158.5708" x="203.0239" y="465.0703">Both have fresh presence</text><text fill="#333333" font-family="sans-serif" font-size="13" lengthAdjust="spacing" textLength="118.1743" x="203.0239" y="480.3809">Recovery &lt; 200ms</text><?plantuml-src bPFRQjj048Rlzoc6zAOnYV4X3jGKWnGJSf7Wq1Po8p0hxQoybRIhpgxSXb3eG_G9-oJTbUL3QzE3G3VQR_xvP_wLKwv4c6DMF3HVuCUtxt1p2q-62YIuKocIvauP3UymCskaPyPieNJDYLUGygp8oJHQt9ZI4BoIxND029IyATsjqQv3nkrpW5ZyrA3EC28odpjeDBaUOte2kbVIlnfZGmAfeyLGJCGf-f6JKvcgkNR_Nt0qsrXUoUk38ctSNtoqn97E6ybbobYzxmLdiP_T-er7Py0jHByUxW99zEjvGpprWItIZvYvynQVBqwBnUrfp5Zm0I4zZqvtgQBmUhFnm7gVKA6rF4TxdkX7GXkM0TPv24fZ7MCHNCuWca8JX6r6fYpjvcEGhBkIPLEBKFEo8PQbZseALwEllrdezPvuWI39LB3QNx9URz_zlJE4e2nWLJj_w-QBq2m-qIjOMYenXUW2-lt-OI-F-tkBQerYEo5mwVn9pkj4ttFhVFP-PrjHc0tzFdXk4ls1L9uZAPq3uINNscUO8MFnlmqzd7HkDiQZFncFZun75zvwRDmALdmT5eLsjHD8zFPdXBSm6Wmgotu2?></g></svg>